<svg width="444" height="297" viewBox="0 0 444 297" fill="none" xmlns="http://www.w3.org/2000/svg">
<path d="M18.543 140.584C8.302 134.682 8.302 125.113 18.543 119.21L140.709 48.8019C147.906 44.6543 159.573 44.6543 166.77 48.8019L427.792 199.237C436.372 204.183 436.372 212.2 427.792 217.145L302.618 289.287C295.422 293.434 283.754 293.434 276.557 289.287L18.543 140.584Z" fill="#E7E7E7"/>
<mask id="mask0_1_2724" style="mask-type:alpha" maskUnits="userSpaceOnUse" x="10" y="45" width="425" height="248">
<path d="M18.543 140.584C8.302 134.681 8.302 125.112 18.543 119.21L140.709 48.8013C147.906 44.6538 159.573 44.6538 166.77 48.8013L427.792 199.237C436.372 204.182 436.372 212.199 427.792 217.144L302.618 289.286C295.422 293.434 283.754 293.434 276.557 289.286L18.543 140.584Z" fill="white"/>
</mask>
<g mask="url(#mask0_1_2724)">
<path d="M154.147 24.0977H5.66438V270.101H154.147V24.0977Z" fill="white"/>
</g>
<path d="M18.543 140.584C8.302 134.682 8.302 125.113 18.543 119.21L140.709 48.8019C147.906 44.6543 159.573 44.6543 166.77 48.8019L427.792 199.237C436.372 204.183 436.372 212.2 427.792 217.145L302.618 289.287C295.422 293.434 283.754 293.434 276.557 289.287L18.543 140.584Z" stroke="#1A1A1A" stroke-width="1.5"/>
<mask id="mask1_1_2724" style="mask-type:alpha" maskUnits="userSpaceOnUse" x="59" y="75" width="377" height="218">
<path d="M191.992 78.6554L64.827 151.945C57.6306 156.092 57.6306 162.817 64.827 166.964L276.593 289.012C283.79 293.16 295.457 293.16 302.654 289.012L429.818 215.723C437.015 211.575 437.015 204.851 429.819 200.703L218.052 78.6554C210.856 74.5078 199.188 74.5078 191.992 78.6554Z" fill="#C0C0C0"/>
</mask>
<g mask="url(#mask1_1_2724)">
<path d="M220.354 231.414L332.895 166.554C333.448 166.235 333.897 166.493 333.897 167.131V296.5C333.897 297.138 333.448 297.914 332.895 298.233L221.356 362.516C220.803 362.835 220.354 362.577 220.354 361.939V231.414Z" fill="white"/>
<path d="M221.84 232.392L124.346 176.203C123.793 175.884 123.344 176.143 123.344 176.781V296.953C123.344 297.591 123.793 298.367 124.346 298.686L220.838 354.297C221.391 354.616 221.84 354.358 221.84 353.719V232.392Z" fill="#C0C0C0"/>
<path d="M227.672 113.33L126.755 171.491C122.326 174.044 122.326 178.182 126.755 180.734L214.083 231.064C218.511 233.616 225.692 233.616 230.12 231.064L331.037 172.902C335.465 170.35 335.465 166.212 331.037 163.66L243.709 113.33C239.28 110.777 232.1 110.777 227.672 113.33Z" fill="#F5C635" stroke="#1A1A1A" stroke-width="1.5"/>
<path d="M289.266 232.096L344.175 200.45C344.729 200.131 345.178 200.39 345.178 201.028V273.093C345.178 273.731 344.729 274.507 344.175 274.826L290.269 305.895C289.715 306.214 289.266 305.955 289.266 305.317V232.096Z" fill="white"/>
<path d="M289.266 233.195L276.202 225.665C275.648 225.346 275.2 225.605 275.2 226.243V297.518C275.2 298.156 275.648 298.932 276.202 299.251L288.264 306.203C288.818 306.522 289.266 306.263 289.266 305.625V233.195Z" fill="#C0C0C0"/>
<path d="M321.812 195.913L279.203 220.47C273.855 223.553 273.855 228.55 279.203 231.633C284.552 234.716 293.224 234.716 298.572 231.633L341.181 207.076C346.529 203.994 346.529 198.996 341.181 195.913C335.832 192.831 327.16 192.831 321.812 195.913Z" fill="#1A1A1A"/>
<path d="M295.166 225.101L291.726 223.119L290.409 223.877L289.673 223.453L293.095 221.48L293.831 221.905L292.515 222.664L295.954 224.646L295.166 225.101ZM297.448 223.785L294.316 221.98L295.012 221.579L295.778 222.02L295.604 222.007C295.536 221.921 295.492 221.833 295.47 221.743C295.449 221.653 295.459 221.562 295.499 221.472C295.528 221.402 295.574 221.334 295.639 221.268C295.7 221.201 295.776 221.139 295.865 221.081C295.952 221.022 296.048 220.968 296.155 220.92L296.891 221.345C296.777 221.38 296.667 221.433 296.561 221.505C296.455 221.575 296.377 221.65 296.329 221.73C296.278 221.807 296.257 221.885 296.265 221.963C296.271 222.04 296.306 222.116 296.369 222.19C296.431 222.264 296.522 222.336 296.642 222.405L298.243 223.327L297.448 223.785ZM300.734 221.992C300.509 222.122 300.276 222.207 300.035 222.248C299.792 222.287 299.559 222.289 299.336 222.253C299.111 222.215 298.912 222.146 298.738 222.046C298.593 221.962 298.483 221.873 298.407 221.778C298.332 221.684 298.298 221.582 298.306 221.472C298.314 221.361 298.37 221.239 298.477 221.106C298.551 221.015 298.651 220.913 298.779 220.802C298.906 220.691 299.057 220.568 299.231 220.434C299.403 220.299 299.593 220.152 299.799 219.99L299.672 220.244C299.486 220.137 299.306 220.084 299.129 220.085C298.953 220.086 298.761 220.147 298.552 220.267C298.436 220.334 298.344 220.42 298.274 220.524C298.204 220.63 298.216 220.737 298.309 220.849L297.369 221.13C297.189 220.935 297.127 220.728 297.184 220.508C297.24 220.289 297.456 220.07 297.833 219.853C298.11 219.693 298.398 219.576 298.697 219.502C298.997 219.427 299.307 219.418 299.625 219.475C299.803 219.506 299.956 219.552 300.084 219.612C300.211 219.672 300.347 219.743 300.49 219.826L302.404 220.929L301.714 221.327L301.07 220.956L301.302 220.976C301.36 221.185 301.347 221.369 301.264 221.526C301.181 221.681 301.004 221.836 300.734 221.992ZM300.281 221.537C300.426 221.454 300.522 221.369 300.571 221.284C300.619 221.196 300.639 221.116 300.632 221.045C300.626 220.972 300.612 220.917 300.588 220.879C300.544 220.807 300.468 220.736 300.362 220.668C300.256 220.598 300.165 220.542 300.09 220.498L300.38 220.397C300.184 220.555 300.028 220.683 299.909 220.782C299.79 220.88 299.696 220.961 299.628 221.024C299.561 221.088 299.506 221.146 299.463 221.2C299.417 221.262 299.387 221.318 299.376 221.367C299.364 221.414 299.368 221.456 299.387 221.494C299.409 221.531 299.446 221.564 299.498 221.595C299.57 221.636 299.649 221.661 299.736 221.671C299.823 221.679 299.913 221.672 300.005 221.65C300.098 221.627 300.19 221.59 300.281 221.537ZM304.515 219.813C304.227 219.979 303.903 220.082 303.541 220.123C303.179 220.165 302.813 220.148 302.441 220.075C302.072 220.001 301.731 219.873 301.418 219.692C301.099 219.508 300.876 219.31 300.751 219.097C300.625 218.882 300.602 218.669 300.681 218.459C300.76 218.248 300.95 218.056 301.25 217.884C301.547 217.712 301.87 217.61 302.218 217.576C302.567 217.542 302.917 217.568 303.271 217.651C303.625 217.735 303.959 217.867 304.272 218.048C304.585 218.228 304.813 218.421 304.956 218.626C305.101 218.83 305.142 219.033 305.078 219.238C305.014 219.442 304.826 219.633 304.515 219.813ZM303.941 219.334C304.117 219.233 304.217 219.129 304.242 219.024C304.27 218.917 304.235 218.808 304.138 218.7C304.041 218.59 303.898 218.481 303.709 218.372C303.519 218.263 303.33 218.18 303.14 218.124C302.951 218.068 302.765 218.048 302.584 218.061C302.404 218.073 302.232 218.127 302.067 218.222C301.892 218.323 301.79 218.431 301.763 218.547C301.736 218.661 301.768 218.775 301.858 218.89C301.948 219.004 302.079 219.111 302.253 219.211C302.429 219.312 302.616 219.39 302.813 219.443C303.008 219.495 303.202 219.515 303.396 219.502C303.589 219.488 303.771 219.432 303.941 219.334ZM305.275 219.275L303.129 218.037L303.03 218.094L301 216.924L301.795 216.466L305.971 218.873L305.275 219.275ZM308.326 217.616C308.005 217.801 307.653 217.925 307.27 217.987C306.888 218.048 306.506 218.048 306.125 217.989C305.744 217.928 305.397 217.807 305.084 217.626C304.741 217.429 304.511 217.219 304.394 216.995C304.276 216.771 304.266 216.55 304.364 216.333C304.461 216.114 304.664 215.916 304.973 215.737C305.302 215.548 305.659 215.432 306.044 215.388C306.429 215.345 306.816 215.372 307.207 215.47C307.597 215.568 307.966 215.736 308.312 215.973L307.532 216.423L307.241 216.256C306.922 216.072 306.642 215.969 306.4 215.948C306.159 215.924 305.923 215.979 305.693 216.112C305.424 216.267 305.308 216.429 305.345 216.597C305.382 216.763 305.559 216.937 305.878 217.122C306.17 217.29 306.46 217.384 306.746 217.404C307.032 217.422 307.298 217.36 307.543 217.219C307.698 217.13 307.796 217.034 307.839 216.931C307.882 216.829 307.868 216.724 307.798 216.617L308.814 216.293C308.981 216.525 309.017 216.761 308.92 216.999C308.826 217.237 308.628 217.442 308.326 217.616ZM305.855 217.389L305.269 217.051L307.346 215.855L307.932 216.192L305.855 217.389ZM311.473 215.702L307.297 213.295L308.968 212.332C309.265 212.161 309.566 212.056 309.87 212.02C310.171 211.982 310.454 211.99 310.719 212.045C310.984 212.1 311.209 212.18 311.392 212.286C311.626 212.42 311.767 212.563 311.816 212.714C311.866 212.863 311.825 213.005 311.694 213.141L311.549 213.058C311.864 212.939 312.18 212.896 312.497 212.929C312.816 212.962 313.091 213.044 313.324 213.178C313.573 213.322 313.746 213.475 313.843 213.638C313.942 213.799 313.951 213.966 313.872 214.136C313.79 214.305 313.608 214.472 313.324 214.636L311.473 215.702ZM311.532 214.813L312.5 214.255C312.606 214.193 312.679 214.126 312.717 214.053C312.754 213.978 312.755 213.904 312.721 213.83C312.686 213.754 312.612 213.684 312.5 213.619C312.402 213.562 312.293 213.523 312.175 213.503C312.057 213.481 311.934 213.482 311.807 213.504C311.679 213.524 311.555 213.569 311.433 213.64L310.464 214.198L311.532 214.813ZM309.727 213.773L310.586 213.279C310.675 213.227 310.739 213.172 310.778 213.115C310.816 213.057 310.824 212.997 310.8 212.938C310.775 212.876 310.712 212.816 310.609 212.757C310.481 212.683 310.334 212.644 310.168 212.64C310.002 212.636 309.843 212.677 309.693 212.764L308.834 213.258L309.727 213.773ZM311.657 211.484L310.961 211.083L311.75 210.628L312.446 211.029L311.657 211.484ZM315.225 213.54L312.093 211.735L312.881 211.28L316.014 213.085L315.225 213.54ZM318.762 211.501C318.586 211.649 318.391 211.782 318.176 211.899C317.966 212.016 317.744 212.102 317.512 212.158C317.28 212.212 317.045 212.219 316.808 212.18C316.587 212.142 316.402 212.082 316.251 211.999C316.098 211.916 315.928 211.82 315.74 211.712L313.066 210.171L313.855 209.716L316.483 211.231C316.605 211.3 316.716 211.363 316.816 211.419C316.917 211.473 317.014 211.506 317.109 211.518C317.289 211.542 317.46 211.512 317.623 211.43C317.785 211.347 317.946 211.245 318.107 211.123L318.762 211.501ZM314.012 211.331L313.402 210.98L315.63 209.696L316.239 210.047L314.012 211.331ZM320.758 210.451C320.433 210.638 320.082 210.757 319.705 210.808C319.328 210.858 318.953 210.847 318.58 210.774C318.207 210.701 317.864 210.575 317.55 210.395C317.233 210.212 317.014 210.012 316.892 209.795C316.772 209.576 316.757 209.358 316.848 209.141C316.939 208.924 317.144 208.723 317.463 208.539C317.833 208.326 318.236 208.202 318.673 208.166C319.11 208.129 319.525 208.182 319.917 208.329L319.337 208.904C319.128 208.837 318.92 208.81 318.713 208.825C318.508 208.839 318.333 208.887 318.189 208.97C318.022 209.066 317.926 209.168 317.901 209.277C317.874 209.383 317.905 209.492 317.994 209.601C318.081 209.709 318.211 209.813 318.386 209.913C318.658 210.07 318.939 210.163 319.23 210.193C319.52 210.219 319.783 210.164 320.021 210.027C320.199 209.924 320.294 209.823 320.305 209.723C320.317 209.622 320.271 209.516 320.166 209.402L321.141 209.034C321.384 209.277 321.472 209.521 321.405 209.768C321.337 210.014 321.121 210.242 320.758 210.451ZM324.083 208.535C323.768 208.716 323.421 208.835 323.042 208.891C322.664 208.946 322.284 208.942 321.903 208.876C321.522 208.808 321.17 208.681 320.847 208.495C320.52 208.306 320.301 208.102 320.189 207.881C320.074 207.66 320.067 207.44 320.165 207.223C320.264 207.005 320.468 206.808 320.777 206.629C321.092 206.448 321.44 206.329 321.819 206.273C322.199 206.216 322.581 206.221 322.964 206.288C323.345 206.354 323.697 206.48 324.02 206.666C324.345 206.853 324.564 207.058 324.678 207.279C324.792 207.499 324.8 207.718 324.701 207.938C324.603 208.155 324.397 208.354 324.083 208.535ZM323.347 208.11C323.6 207.964 323.703 207.806 323.657 207.637C323.611 207.465 323.453 207.302 323.185 207.148C322.906 206.987 322.62 206.896 322.326 206.873C322.034 206.85 321.764 206.91 321.514 207.054C321.342 207.153 321.239 207.256 321.207 207.365C321.174 207.473 321.199 207.582 321.282 207.692C321.367 207.802 321.501 207.908 321.682 208.013C321.962 208.175 322.249 208.267 322.541 208.291C322.832 208.312 323.101 208.252 323.347 208.11ZM322.714 205.112L322.019 204.711L322.807 204.256L323.503 204.657L322.714 205.112ZM326.281 207.168L323.149 205.363L323.938 204.908L327.071 206.713L326.281 207.168ZM330.075 204.982L328.595 204.129C328.524 204.088 328.429 204.038 328.311 203.979C328.191 203.919 328.055 203.868 327.902 203.827C327.749 203.785 327.589 203.77 327.421 203.78C327.255 203.789 327.087 203.842 326.919 203.939C326.852 203.978 326.79 204.026 326.733 204.082C326.677 204.139 326.646 204.205 326.641 204.28C326.633 204.353 326.666 204.437 326.739 204.53C326.815 204.623 326.95 204.725 327.146 204.838L326.478 204.975C326.231 204.832 326.049 204.67 325.933 204.487C325.817 204.304 325.793 204.116 325.86 203.923C325.93 203.73 326.118 203.544 326.426 203.367C326.672 203.226 326.913 203.134 327.151 203.093C327.389 203.052 327.614 203.043 327.827 203.068C328.042 203.091 328.237 203.132 328.413 203.191C328.587 203.25 328.735 203.309 328.857 203.37C328.979 203.431 329.065 203.477 329.117 203.507L330.875 204.52L330.075 204.982ZM327.934 206.215L324.802 204.41L325.504 204.005L326.542 204.604L326.641 204.547L328.735 205.754L327.934 206.215Z" fill="white"/>
</g>
<path d="M29.7881 126.789C30.1181 126.6 30.4907 126.474 30.9059 126.413C31.3235 126.35 31.7468 126.355 32.1759 126.427C32.6027 126.497 32.9972 126.637 33.3594 126.846L34.8059 127.679C35.1981 127.905 35.4611 128.144 35.595 128.397C35.7264 128.649 35.7311 128.898 35.6088 129.147C35.4842 129.394 35.235 129.626 34.8613 129.841C34.619 129.981 34.3526 130.093 34.0619 130.178C33.7712 130.261 33.4494 130.307 33.0964 130.316V129.542C33.2625 129.542 33.4229 129.524 33.5774 129.488C33.7343 129.451 33.8693 129.4 33.9823 129.335C34.1623 129.231 34.2765 129.117 34.3249 128.994C34.3734 128.867 34.3664 128.745 34.3042 128.627C34.2419 128.506 34.1346 128.401 33.9823 128.314L33.2418 127.887L33.574 127.895C33.5786 128.06 33.5256 128.219 33.4148 128.373C33.3017 128.526 33.1448 128.66 32.9442 128.776C32.6304 128.957 32.2832 129.076 31.9025 129.133C31.5242 129.189 31.1447 129.186 30.764 129.123C30.3857 129.059 30.0396 128.937 29.7259 128.756C29.4121 128.575 29.2091 128.366 29.1168 128.13C29.0223 127.892 29.0326 127.655 29.1479 127.418C29.261 127.18 29.4744 126.97 29.7881 126.789ZM30.6879 127.308C30.5449 127.391 30.448 127.486 30.3972 127.596C30.3488 127.703 30.3476 127.812 30.3938 127.92C30.4422 128.028 30.538 128.123 30.681 128.206C30.824 128.288 30.9901 128.344 31.1793 128.373C31.3662 128.401 31.5542 128.402 31.7433 128.375C31.9302 128.347 32.0952 128.292 32.2382 128.21C32.3813 128.127 32.477 128.032 32.5254 127.925C32.5739 127.814 32.5739 127.705 32.5254 127.598C32.477 127.487 32.3813 127.391 32.2382 127.308C32.0998 127.229 31.9372 127.175 31.7503 127.147C31.5634 127.119 31.3754 127.118 31.1862 127.145C30.9971 127.171 30.8309 127.226 30.6879 127.308ZM37.2703 127.854L36.329 127.312L37.2703 126.769L38.2116 127.312L37.2703 127.854ZM35.3117 126.717L34.3704 126.175L35.3117 125.632L36.2529 126.175L35.3117 126.717ZM41.7442 125.755L40.9691 125.308L38.8028 126.556L37.9238 126.05L36.1658 123.225L37.2455 122.603L39.0035 125.428L40.0901 124.801L38.8443 124.083L39.7994 123.533L41.0452 124.251L41.4882 123.996L42.3671 124.502L41.9242 124.758L42.6993 125.204L41.7442 125.755ZM44.6735 124.066L40.7146 121.785L40.3547 122.654L39.3166 122.056L39.6903 121.195L40.6523 120.64L45.6355 123.512L44.6735 124.066Z" fill="#1A1A1A"/>
<path opacity="0.35" d="M146.827 59.4612L153.749 55.4723C154.457 55.0645 155.604 55.0645 156.311 55.4723L158.347 56.6456C159.055 57.0534 159.055 57.7147 158.347 58.1225L151.426 62.1114C150.718 62.5193 149.571 62.5193 148.864 62.1114L146.827 60.9382C146.12 60.5303 146.12 59.8691 146.827 59.4612Z" stroke="#1A1A1A" stroke-width="1.5"/>
<path opacity="0.4" d="M157.473 55.2726L159.191 56.2628C159.391 55.9797 159.277 55.655 158.902 55.4389C158.527 55.2227 157.964 55.1572 157.473 55.2726Z" fill="#1A1A1A"/>
<path d="M147.295 60.669C146.846 60.4098 146.846 59.9896 147.295 59.7304L154.216 55.7416C154.666 55.4824 155.395 55.4824 155.845 55.7416L157.88 56.9148C158.33 57.174 158.33 57.5942 157.88 57.8533L150.959 61.8422C150.509 62.1013 149.781 62.1013 149.331 61.8422L147.295 60.669Z" fill="#1A1A1A"/>
<path fill-rule="evenodd" clip-rule="evenodd" d="M140.002 64.6793C141.006 64.1005 142.366 63.7709 143.8 63.7585C143.909 63.7584 143.996 63.7075 143.995 63.6444L143.979 63.0315C143.978 62.9995 143.955 62.9689 143.916 62.9461C143.875 62.9235 143.822 62.9107 143.766 62.9106C139.988 62.9346 136.974 64.6714 136.933 66.8492C136.933 66.8812 136.955 66.912 136.994 66.935C137.034 66.9579 137.087 66.9711 137.142 66.9716L138.206 66.9806C138.316 66.9815 138.404 66.9313 138.404 66.8683C138.426 66.0417 138.997 65.2581 140.002 64.6793ZM141.68 65.6295C142.231 65.3115 142.972 65.1255 143.76 65.1077C143.869 65.1067 143.955 65.0559 143.953 64.993L143.937 64.3804C143.936 64.3482 143.913 64.3172 143.873 64.2945C143.833 64.2717 143.778 64.259 143.723 64.2592C141.294 64.2955 139.366 65.407 139.303 66.8063C139.303 66.8386 139.325 66.8698 139.364 66.893C139.404 66.9162 139.458 66.9295 139.513 66.9298L140.576 66.9394C140.685 66.9401 140.773 66.8905 140.775 66.8277C140.806 66.3744 141.128 65.9474 141.68 65.6295ZM143.831 65.6419C143.871 65.6645 143.894 65.6956 143.895 65.7279L143.922 66.7869C143.922 66.818 143.902 66.8477 143.864 66.8695C143.826 66.8913 143.775 66.9032 143.721 66.9027L141.883 66.8871C141.827 66.887 141.773 66.8737 141.734 66.8501C141.695 66.8266 141.674 66.795 141.676 66.7628C141.755 66.142 142.601 65.654 143.679 65.6085C143.735 65.6072 143.789 65.6193 143.831 65.6419Z" fill="#1A1A1A"/>
<path d="M130.196 70.5235C129.972 70.3939 129.972 70.1838 130.196 70.0542L130.603 69.8196C130.828 69.69 131.193 69.69 131.418 69.8196L134.675 71.6967C134.899 71.8263 134.899 72.0364 134.675 72.166L134.268 72.4006C134.043 72.5302 133.678 72.5302 133.453 72.4006L130.196 70.5235Z" fill="#1A1A1A"/>
<path d="M131.418 68.881C131.193 68.7515 131.193 68.5413 131.418 68.4118L131.825 68.1772C132.049 68.0475 132.414 68.0475 132.639 68.1772L136.71 70.5235C136.935 70.6531 136.935 70.8632 136.71 70.9928L136.303 71.2274C136.078 71.357 135.714 71.357 135.489 71.2274L131.418 68.881Z" fill="#1A1A1A"/>
<path d="M129.586 72.5179C129.361 72.3884 129.361 72.1782 129.586 72.0486L129.992 71.814C130.217 71.6844 130.582 71.6844 130.807 71.814L132.639 72.8699C132.864 72.9995 132.864 73.2096 132.639 73.3392L132.232 73.5738C132.007 73.7034 131.643 73.7034 131.418 73.5738L129.586 72.5179Z" fill="#1A1A1A"/>
<path d="M128.568 74.2777C128.343 74.1481 128.343 73.938 128.568 73.8084L128.975 73.5738C129.2 73.4442 129.564 73.4442 129.789 73.5738L130.603 74.0431C130.828 74.1727 130.828 74.3828 130.603 74.5124L130.196 74.747C129.972 74.8765 129.607 74.8765 129.382 74.747L128.568 74.2777Z" fill="#1A1A1A"/>
<path d="M100.715 84.0534L78.8382 96.6618C76.195 98.1852 76.195 100.655 78.8382 102.178C81.4813 103.702 85.7667 103.702 88.4098 102.178L110.287 89.5698C112.93 88.0465 112.93 85.5767 110.287 84.0534C107.644 82.5301 103.358 82.5301 100.715 84.0534Z" fill="#1A1A1A"/>
<path d="M85.9056 100.268C87.163 99.5429 87.163 98.3679 85.9056 97.6432C84.6481 96.9185 82.6093 96.9185 81.3519 97.6432C80.0944 98.3679 80.0944 99.5429 81.3519 100.268C82.6093 100.992 84.6481 100.992 85.9056 100.268Z" fill="white"/>
<path opacity="0.4" d="M235.387 92.7659L126.807 155.344C123.486 157.258 123.486 160.362 126.807 162.276L183.57 194.991C186.892 196.905 192.277 196.905 195.598 194.991L304.178 132.413C307.5 130.498 307.5 127.395 304.178 125.48L247.415 92.7659C244.093 90.8517 238.708 90.8517 235.387 92.7659Z" fill="#1A1A1A"/>
<path d="M237.462 77.1962L121.087 144.267C117.765 146.182 117.765 149.285 121.087 151.2L182.971 186.866C186.292 188.78 191.678 188.78 194.999 186.866L311.375 119.794C314.696 117.88 314.696 114.777 311.375 112.862L249.49 77.1962C246.169 75.282 240.784 75.282 237.462 77.1962Z" fill="#F5C635" stroke="#1A1A1A" stroke-width="1.5"/>
<path d="M134.98 147.119L131.916 145.354L133.142 144.647C133.36 144.521 133.581 144.445 133.804 144.418C134.025 144.39 134.233 144.396 134.427 144.436C134.621 144.476 134.786 144.535 134.921 144.613C135.093 144.712 135.196 144.817 135.232 144.927C135.268 145.036 135.239 145.141 135.142 145.241L135.035 145.179C135.267 145.092 135.499 145.06 135.732 145.085C135.966 145.109 136.168 145.17 136.338 145.268C136.521 145.373 136.648 145.486 136.719 145.605C136.791 145.723 136.798 145.846 136.74 145.97C136.681 146.095 136.547 146.217 136.338 146.337L134.98 147.119ZM135.023 146.467L135.734 146.057C135.812 146.013 135.865 145.963 135.893 145.909C135.92 145.855 135.921 145.8 135.895 145.746C135.87 145.69 135.816 145.639 135.734 145.592C135.661 145.55 135.582 145.521 135.496 145.506C135.409 145.49 135.319 145.49 135.225 145.507C135.132 145.522 135.04 145.555 134.951 145.606L134.24 146.016L135.023 146.467ZM133.699 145.704L134.329 145.341C134.395 145.304 134.441 145.264 134.47 145.221C134.498 145.179 134.504 145.136 134.487 145.091C134.468 145.046 134.421 145.002 134.346 144.958C134.253 144.905 134.145 144.876 134.023 144.873C133.901 144.869 133.784 144.9 133.674 144.964L133.044 145.327L133.699 145.704ZM135.116 144.025L134.605 143.73L135.183 143.397L135.694 143.691L135.116 144.025ZM137.733 145.534L135.435 144.209L136.013 143.875L138.312 145.2L137.733 145.534ZM140.329 144.037C140.2 144.146 140.056 144.244 139.899 144.329C139.744 144.415 139.582 144.478 139.412 144.519C139.241 144.558 139.069 144.564 138.894 144.535C138.732 144.508 138.597 144.463 138.486 144.403C138.374 144.341 138.249 144.271 138.111 144.192L136.149 143.061L136.728 142.728L138.656 143.839C138.745 143.89 138.827 143.936 138.901 143.977C138.974 144.016 139.046 144.04 139.116 144.049C139.248 144.067 139.373 144.045 139.492 143.984C139.612 143.924 139.73 143.849 139.848 143.76L140.329 144.037ZM136.843 143.912L136.396 143.655L138.03 142.713L138.478 142.97L136.843 143.912ZM141.793 143.267C141.555 143.404 141.297 143.491 141.021 143.528C140.744 143.565 140.469 143.557 140.195 143.504C139.921 143.45 139.669 143.358 139.439 143.225C139.206 143.091 139.046 142.945 138.956 142.785C138.868 142.625 138.857 142.465 138.924 142.306C138.991 142.146 139.141 141.999 139.375 141.864C139.646 141.708 139.942 141.616 140.263 141.59C140.584 141.562 140.888 141.602 141.176 141.709L140.75 142.131C140.597 142.082 140.445 142.063 140.293 142.074C140.142 142.084 140.014 142.119 139.908 142.18C139.786 142.251 139.715 142.325 139.697 142.405C139.677 142.483 139.7 142.563 139.765 142.643C139.829 142.722 139.925 142.798 140.052 142.872C140.252 142.987 140.459 143.056 140.672 143.077C140.884 143.097 141.078 143.056 141.253 142.955C141.383 142.88 141.453 142.806 141.461 142.732C141.47 142.659 141.435 142.58 141.359 142.497L142.074 142.227C142.252 142.405 142.317 142.585 142.267 142.765C142.218 142.946 142.06 143.113 141.793 143.267ZM144.233 141.861C144.002 141.994 143.747 142.081 143.469 142.122C143.191 142.163 142.912 142.159 142.633 142.111C142.353 142.061 142.095 141.968 141.858 141.831C141.619 141.693 141.457 141.543 141.376 141.381C141.292 141.218 141.286 141.057 141.358 140.898C141.431 140.738 141.58 140.593 141.807 140.462C142.039 140.329 142.293 140.242 142.571 140.201C142.85 140.159 143.131 140.163 143.412 140.212C143.691 140.26 143.95 140.353 144.186 140.489C144.425 140.627 144.586 140.777 144.67 140.939C144.753 141.101 144.759 141.262 144.687 141.423C144.614 141.582 144.463 141.728 144.233 141.861ZM143.693 141.549C143.879 141.442 143.955 141.326 143.92 141.202C143.886 141.076 143.771 140.956 143.574 140.843C143.369 140.725 143.159 140.658 142.943 140.642C142.73 140.624 142.531 140.668 142.348 140.774C142.221 140.847 142.146 140.923 142.122 141.002C142.098 141.081 142.117 141.161 142.178 141.242C142.24 141.322 142.338 141.401 142.471 141.478C142.677 141.597 142.887 141.664 143.101 141.681C143.315 141.697 143.513 141.653 143.693 141.549ZM143.229 139.349L142.718 139.055L143.297 138.721L143.808 139.015L143.229 139.349ZM145.846 140.857L143.548 139.533L144.127 139.199L146.425 140.524L145.846 140.857ZM148.629 139.254L147.544 138.628C147.491 138.598 147.422 138.561 147.335 138.518C147.247 138.473 147.148 138.436 147.035 138.406C146.923 138.376 146.806 138.364 146.682 138.372C146.56 138.378 146.437 138.417 146.314 138.488C146.264 138.517 146.219 138.552 146.178 138.594C146.136 138.635 146.114 138.683 146.11 138.738C146.104 138.792 146.128 138.854 146.182 138.922C146.237 138.99 146.336 139.065 146.48 139.148L145.991 139.248C145.809 139.144 145.675 139.024 145.59 138.89C145.505 138.756 145.488 138.618 145.537 138.477C145.588 138.335 145.727 138.199 145.952 138.069C146.132 137.965 146.31 137.898 146.484 137.868C146.659 137.837 146.824 137.831 146.98 137.849C147.137 137.866 147.281 137.897 147.41 137.94C147.538 137.982 147.646 138.026 147.735 138.071C147.825 138.116 147.889 138.149 147.927 138.172L149.217 138.915L148.629 139.254ZM147.059 140.158L144.76 138.834L145.276 138.537L146.037 138.976L146.11 138.935L147.646 139.82L147.059 140.158ZM150.621 138.106L147.556 136.339L148.782 135.633C149.001 135.507 149.221 135.431 149.444 135.404C149.665 135.376 149.873 135.382 150.067 135.422C150.262 135.462 150.427 135.521 150.561 135.599C150.733 135.698 150.836 135.802 150.872 135.913C150.909 136.022 150.879 136.127 150.783 136.227L150.676 136.166C150.908 136.078 151.139 136.047 151.372 136.071C151.606 136.095 151.808 136.155 151.979 136.254C152.161 136.359 152.288 136.472 152.36 136.591C152.432 136.71 152.439 136.831 152.381 136.957C152.321 137.081 152.187 137.203 151.979 137.323L150.621 138.106ZM150.663 137.453L151.374 137.044C151.452 136.999 151.506 136.949 151.534 136.895C151.561 136.84 151.562 136.786 151.536 136.732C151.51 136.677 151.456 136.625 151.374 136.577C151.302 136.536 151.222 136.507 151.136 136.491C151.049 136.476 150.959 136.477 150.865 136.493C150.772 136.507 150.68 136.541 150.591 136.592L149.88 137.002L150.663 137.453ZM149.34 136.69L149.97 136.327C150.035 136.29 150.082 136.25 150.11 136.207C150.139 136.164 150.144 136.121 150.127 136.077C150.109 136.032 150.062 135.988 149.987 135.945C149.893 135.891 149.785 135.862 149.663 135.859C149.541 135.856 149.425 135.886 149.314 135.949L148.684 136.313L149.34 136.69ZM154.033 136.212C153.869 136.307 153.698 136.37 153.52 136.4C153.343 136.429 153.172 136.43 153.007 136.404C152.843 136.376 152.697 136.326 152.569 136.252C152.463 136.191 152.381 136.125 152.326 136.056C152.271 135.986 152.246 135.912 152.252 135.831C152.257 135.749 152.299 135.66 152.377 135.563C152.431 135.495 152.505 135.421 152.599 135.339C152.692 135.258 152.803 135.168 152.931 135.07C153.057 134.971 153.196 134.862 153.348 134.743L153.254 134.93C153.118 134.851 152.985 134.813 152.856 134.813C152.727 134.814 152.586 134.859 152.433 134.947C152.348 134.996 152.279 135.059 152.229 135.136C152.177 135.213 152.186 135.292 152.254 135.374L151.564 135.58C151.432 135.437 151.387 135.285 151.428 135.124C151.469 134.963 151.628 134.802 151.905 134.643C152.108 134.526 152.319 134.44 152.539 134.385C152.759 134.33 152.986 134.324 153.22 134.366C153.351 134.389 153.463 134.422 153.557 134.466C153.65 134.51 153.749 134.562 153.854 134.623L155.259 135.433L154.753 135.724L154.28 135.452L154.45 135.467C154.493 135.621 154.483 135.755 154.422 135.871C154.361 135.984 154.232 136.098 154.033 136.212ZM153.701 135.879C153.807 135.818 153.878 135.756 153.914 135.693C153.949 135.628 153.964 135.57 153.958 135.517C153.954 135.464 153.943 135.423 153.926 135.396C153.894 135.343 153.839 135.291 153.761 135.241C153.683 135.19 153.616 135.148 153.561 135.116L153.774 135.043C153.63 135.158 153.515 135.252 153.429 135.325C153.341 135.397 153.272 135.456 153.222 135.502C153.172 135.549 153.132 135.592 153.101 135.632C153.067 135.677 153.046 135.718 153.037 135.754C153.029 135.788 153.031 135.819 153.046 135.847C153.061 135.874 153.088 135.899 153.126 135.921C153.179 135.951 153.237 135.97 153.301 135.977C153.365 135.983 153.431 135.978 153.499 135.961C153.567 135.945 153.635 135.917 153.701 135.879ZM155.854 135.089L152.727 133.286L153.305 132.953L156.434 134.756L155.854 135.089ZM157.773 134.057C157.609 134.152 157.438 134.214 157.261 134.245C157.084 134.273 156.913 134.274 156.748 134.248C156.583 134.221 156.437 134.169 156.31 134.096C156.203 134.035 156.122 133.969 156.067 133.9C156.012 133.83 155.987 133.755 155.992 133.675C155.998 133.594 156.04 133.504 156.118 133.406C156.172 133.34 156.246 133.265 156.339 133.183C156.433 133.102 156.544 133.012 156.672 132.914C156.798 132.815 156.937 132.706 157.088 132.588L156.995 132.774C156.859 132.695 156.726 132.656 156.597 132.658C156.468 132.658 156.327 132.703 156.174 132.791C156.089 132.84 156.02 132.903 155.969 132.98C155.918 133.057 155.927 133.136 155.994 133.218L155.305 133.424C155.173 133.281 155.128 133.129 155.169 132.967C155.21 132.806 155.369 132.646 155.646 132.487C155.849 132.37 156.06 132.284 156.28 132.229C156.499 132.175 156.727 132.168 156.961 132.21C157.092 132.232 157.203 132.266 157.297 132.31C157.391 132.355 157.49 132.407 157.595 132.467L158.999 133.277L158.493 133.569L158.02 133.297L158.191 133.311C158.234 133.465 158.224 133.599 158.163 133.715C158.102 133.828 157.972 133.942 157.773 134.057ZM157.442 133.723C157.548 133.662 157.619 133.6 157.654 133.537C157.69 133.472 157.705 133.413 157.699 133.361C157.695 133.308 157.684 133.268 157.667 133.24C157.635 133.187 157.58 133.135 157.501 133.085C157.423 133.034 157.357 132.992 157.301 132.961L157.514 132.887C157.371 133.002 157.256 133.096 157.17 133.169C157.081 133.241 157.013 133.3 156.963 133.347C156.913 133.393 156.873 133.436 156.842 133.475C156.808 133.521 156.786 133.562 156.778 133.598C156.769 133.632 156.772 133.664 156.786 133.691C156.802 133.718 156.829 133.743 156.867 133.765C156.92 133.795 156.978 133.814 157.042 133.822C157.106 133.827 157.172 133.822 157.24 133.806C157.308 133.789 157.375 133.762 157.442 133.723ZM161.119 132.055L160.034 131.43C159.981 131.4 159.912 131.363 159.825 131.319C159.737 131.275 159.637 131.238 159.525 131.208C159.413 131.177 159.295 131.166 159.172 131.173C159.05 131.18 158.927 131.219 158.804 131.29C158.754 131.319 158.709 131.354 158.668 131.395C158.626 131.437 158.604 131.485 158.6 131.54C158.594 131.594 158.618 131.655 158.672 131.724C158.727 131.792 158.826 131.867 158.97 131.95L158.48 132.05C158.299 131.945 158.165 131.826 158.08 131.692C157.995 131.558 157.978 131.42 158.027 131.279C158.078 131.137 158.217 131.001 158.442 130.87C158.622 130.766 158.8 130.699 158.974 130.669C159.148 130.639 159.314 130.633 159.47 130.651C159.627 130.668 159.771 130.698 159.9 130.741C160.028 130.784 160.136 130.828 160.225 130.873C160.315 130.918 160.379 130.952 160.417 130.973L161.707 131.716L161.119 132.055ZM159.549 132.961L157.25 131.635L157.765 131.339L158.527 131.778L158.6 131.736L160.136 132.622L159.549 132.961ZM163.294 130.875C163.055 131.013 162.798 131.1 162.522 131.137C162.245 131.173 161.97 131.165 161.696 131.112C161.422 131.059 161.17 130.966 160.94 130.834C160.707 130.7 160.546 130.553 160.457 130.394C160.369 130.233 160.358 130.073 160.425 129.914C160.492 129.754 160.642 129.607 160.876 129.472C161.147 129.316 161.443 129.225 161.764 129.199C162.084 129.171 162.389 129.21 162.677 129.318L162.251 129.74C162.098 129.69 161.946 129.671 161.794 129.682C161.643 129.692 161.515 129.727 161.408 129.789C161.287 129.859 161.216 129.934 161.198 130.013C161.178 130.092 161.201 130.171 161.266 130.251C161.33 130.331 161.426 130.407 161.553 130.48C161.753 130.596 161.959 130.664 162.173 130.685C162.385 130.705 162.579 130.665 162.754 130.564C162.884 130.488 162.953 130.414 162.962 130.341C162.971 130.267 162.936 130.189 162.86 130.105L163.575 129.836C163.753 130.014 163.818 130.193 163.768 130.374C163.719 130.555 163.56 130.722 163.294 130.875ZM165.768 129.449C165.533 129.585 165.274 129.675 164.994 129.721C164.713 129.766 164.433 129.766 164.153 129.723C163.874 129.678 163.619 129.589 163.389 129.457C163.138 129.312 162.969 129.158 162.882 128.993C162.796 128.829 162.789 128.667 162.861 128.507C162.932 128.347 163.081 128.202 163.308 128.071C163.549 127.932 163.811 127.846 164.093 127.814C164.376 127.782 164.66 127.803 164.947 127.875C165.233 127.947 165.504 128.069 165.757 128.244L165.185 128.573L164.972 128.451C164.738 128.316 164.533 128.241 164.355 128.225C164.178 128.208 164.005 128.248 163.836 128.346C163.638 128.459 163.554 128.578 163.581 128.701C163.607 128.823 163.738 128.951 163.972 129.086C164.186 129.21 164.398 129.279 164.608 129.294C164.818 129.306 165.013 129.261 165.194 129.158C165.307 129.092 165.38 129.021 165.411 128.946C165.442 128.871 165.432 128.794 165.381 128.716L166.126 128.478C166.249 128.649 166.275 128.822 166.205 128.997C166.135 129.171 165.989 129.322 165.768 129.449ZM163.955 129.282L163.525 129.035L165.049 128.157L165.479 128.404L163.955 129.282Z" fill="#1A1A1A"/>
<path d="M146.791 151.893C146.236 152.213 145.635 152.426 144.986 152.531C144.338 152.638 143.689 152.638 143.041 152.531C142.392 152.426 141.79 152.213 141.236 151.893L138.988 150.598C138.433 150.278 138.064 149.931 137.88 149.557C137.696 149.184 137.696 148.81 137.88 148.436C138.064 148.063 138.433 147.716 138.988 147.396C139.543 147.076 140.145 146.863 140.793 146.757C141.442 146.651 142.091 146.651 142.739 146.757C143.388 146.863 143.989 147.076 144.544 147.396L146.791 148.691C147.346 149.011 147.715 149.357 147.899 149.731C148.083 150.105 148.083 150.479 147.899 150.853C147.715 151.227 147.346 151.573 146.791 151.893ZM145.449 151.119C145.699 150.975 145.865 150.812 145.948 150.627C146.032 150.444 146.032 150.26 145.948 150.076C145.865 149.892 145.699 149.728 145.449 149.585L142.984 148.163C142.733 148.019 142.449 147.923 142.13 147.875C141.811 147.827 141.492 147.827 141.173 147.875C140.854 147.923 140.57 148.019 140.32 148.163C140.07 148.307 139.904 148.471 139.82 148.655C139.737 148.839 139.737 149.023 139.82 149.207C139.904 149.39 140.07 149.555 140.32 149.698L142.786 151.119C143.035 151.263 143.32 151.359 143.639 151.407C143.958 151.455 144.277 151.455 144.596 151.407C144.915 151.359 145.199 151.263 145.449 151.119ZM151.097 149.231L149.682 148.416L151.097 147.601L152.511 148.416L151.097 149.231ZM153.981 147.557L152.754 146.85L153.108 143.432C153.135 143.176 153.106 142.967 153.02 142.805C152.932 142.643 152.809 142.516 152.65 142.424C152.421 142.292 152.171 142.203 151.901 142.155C151.627 142.104 151.355 142.1 151.084 142.14C150.81 142.178 150.559 142.262 150.33 142.394C150.09 142.532 149.934 142.686 149.862 142.856C149.789 143.022 149.792 143.186 149.872 143.347C149.948 143.507 150.094 143.646 150.309 143.761L148.853 144.601C148.339 144.305 148.008 143.984 147.859 143.639C147.71 143.292 147.734 142.945 147.932 142.595C148.129 142.245 148.495 141.917 149.029 141.609C149.519 141.327 150.063 141.137 150.663 141.039C151.263 140.937 151.865 140.932 152.468 141.024C153.071 141.116 153.624 141.307 154.127 141.597C154.498 141.811 154.755 142.019 154.897 142.22C155.036 142.42 155.107 142.639 155.111 142.877C155.111 143.113 155.091 143.392 155.053 143.713L154.803 145.908L154.377 145.794L157.894 143.767L159.225 144.535L153.981 147.557ZM160.261 143.938L159.033 143.231L159.387 139.813C159.415 139.557 159.385 139.348 159.298 139.186C159.212 139.024 159.089 138.897 158.929 138.806C158.7 138.674 158.45 138.584 158.18 138.536C157.906 138.485 157.633 138.481 157.363 138.521C157.089 138.559 156.838 138.643 156.609 138.776C156.37 138.913 156.214 139.067 156.14 139.237C156.068 139.403 156.071 139.567 156.151 139.729C156.227 139.889 156.373 140.027 156.588 140.142L155.131 140.982C154.618 140.687 154.287 140.365 154.138 140.02C153.989 139.674 154.013 139.326 154.211 138.976C154.408 138.627 154.774 138.298 155.308 137.99C155.797 137.708 156.342 137.518 156.942 137.42C157.542 137.318 158.143 137.313 158.747 137.405C159.35 137.498 159.904 137.688 160.406 137.978C160.777 138.192 161.034 138.4 161.176 138.602C161.315 138.801 161.386 139.021 161.389 139.258C161.389 139.494 161.371 139.773 161.332 140.095L161.082 142.289L160.656 142.175L164.172 140.149L165.504 140.916L160.261 143.938ZM168.058 139.456L162.107 136.026L161.567 137.333L160.006 136.434L160.568 135.139L162.014 134.305L169.505 138.623L168.058 139.456ZM171.857 137.267L168.216 132.266L165.011 134.113L163.68 133.345L168.403 130.623L169.734 131.391L173.386 136.385L171.857 137.267ZM179.773 132.704L178.608 132.033L175.351 133.91L174.03 133.148L171.388 128.903L173.011 127.967L175.653 132.213L177.286 131.271L175.414 130.192L176.85 129.364L178.722 130.444L179.388 130.06L180.71 130.821L180.044 131.205L181.209 131.877L179.773 132.704ZM185.893 129.357C185.397 129.643 184.835 129.833 184.208 129.927C183.583 130.019 182.951 130.012 182.309 129.906C181.664 129.798 181.069 129.587 180.525 129.273L178.35 128.02C177.761 127.68 177.367 127.321 177.169 126.944C176.968 126.564 176.962 126.188 177.149 125.816C177.332 125.443 177.705 125.094 178.267 124.77C178.631 124.56 179.032 124.392 179.469 124.264C179.906 124.136 180.39 124.067 180.92 124.057V125.22C180.67 125.22 180.429 125.247 180.197 125.301C179.965 125.354 179.762 125.432 179.589 125.532C179.318 125.687 179.146 125.86 179.073 126.05C179.001 126.236 179.011 126.42 179.104 126.602C179.198 126.78 179.359 126.935 179.589 127.066L180.702 127.708L180.202 127.696C180.199 127.446 180.28 127.208 180.447 126.98C180.613 126.748 180.847 126.545 181.149 126.371C181.62 126.099 182.141 125.922 182.709 125.837C183.282 125.751 183.852 125.757 184.421 125.852C184.993 125.946 185.515 126.129 185.987 126.401C186.458 126.673 186.766 126.988 186.908 127.345C187.046 127.701 187.031 128.058 186.861 128.416C186.688 128.771 186.365 129.085 185.893 129.357ZM184.541 128.578C184.756 128.454 184.899 128.311 184.972 128.149C185.049 127.985 185.05 127.822 184.977 127.66C184.908 127.496 184.766 127.352 184.551 127.229C184.336 127.105 184.088 127.022 183.807 126.98C183.523 126.936 183.24 126.935 182.959 126.977C182.675 127.017 182.425 127.098 182.21 127.223C181.995 127.346 181.851 127.492 181.779 127.657C181.705 127.819 181.705 127.983 181.779 128.149C181.851 128.311 181.995 128.454 182.21 128.578C182.418 128.698 182.662 128.779 182.944 128.82C183.225 128.863 183.507 128.864 183.792 128.824C184.076 128.784 184.326 128.701 184.541 128.578Z" fill="#1A1A1A"/>
<path d="M164.756 149.126L152.945 155.934C151.008 157.05 151.008 158.859 152.945 159.975C154.881 161.091 158.02 161.091 159.957 159.975L171.768 153.168C173.705 152.052 173.705 150.242 171.768 149.126C169.832 148.01 166.693 148.01 164.756 149.126Z" fill="#1A1A1A"/>
<path d="M160.297 157.034L158.509 156.004L158.347 156.396L157.878 156.126L158.047 155.737L158.482 155.487L160.731 156.784L160.297 157.034ZM161.26 156.475L160.891 156.263L160.998 155.236C161.006 155.159 160.997 155.097 160.971 155.048C160.945 154.999 160.908 154.961 160.86 154.934C160.791 154.894 160.716 154.867 160.635 154.852C160.552 154.837 160.471 154.836 160.389 154.848C160.307 154.859 160.232 154.885 160.163 154.924C160.091 154.966 160.044 155.012 160.022 155.063C160 155.113 160.001 155.162 160.025 155.211C160.048 155.259 160.092 155.301 160.157 155.335L159.719 155.588C159.565 155.498 159.465 155.402 159.421 155.298C159.376 155.194 159.383 155.09 159.443 154.985C159.502 154.88 159.612 154.781 159.772 154.689C159.919 154.604 160.083 154.547 160.263 154.517C160.443 154.487 160.624 154.485 160.805 154.513C160.986 154.54 161.152 154.598 161.304 154.685C161.415 154.749 161.492 154.812 161.535 154.872C161.577 154.932 161.598 154.998 161.599 155.07C161.599 155.14 161.593 155.224 161.582 155.321L161.507 155.98L161.379 155.945L162.435 155.337L162.835 155.567L161.26 156.475ZM163.28 155.314L162.855 155.07L163.28 154.825L163.705 155.07L163.28 155.314ZM164.909 154.422C164.797 154.487 164.667 154.536 164.52 154.569C164.372 154.602 164.219 154.616 164.061 154.612C163.904 154.608 163.753 154.583 163.609 154.538L163.913 154.237C164.016 154.271 164.123 154.284 164.233 154.274C164.342 154.262 164.434 154.235 164.509 154.192C164.574 154.155 164.617 154.111 164.639 154.063C164.662 154.014 164.662 153.965 164.641 153.916C164.62 153.867 164.577 153.824 164.512 153.787C164.416 153.731 164.3 153.702 164.164 153.701C164.029 153.699 163.909 153.727 163.806 153.787C163.775 153.805 163.75 153.824 163.729 153.847C163.709 153.869 163.692 153.892 163.681 153.916L163.156 153.834L163.278 153.079L163.4 153.113L162.356 153.715L161.956 153.484L163.362 152.674L163.762 152.904L163.744 153.534L163.622 153.468C163.771 153.405 163.925 153.368 164.084 153.358C164.243 153.346 164.398 153.357 164.547 153.39C164.696 153.422 164.828 153.471 164.944 153.538C165.085 153.62 165.177 153.714 165.219 153.821C165.259 153.927 165.253 154.034 165.202 154.14C165.148 154.247 165.051 154.341 164.909 154.422ZM166.974 153.185L166.624 152.984L165.646 153.548L165.249 153.319L164.456 152.044L164.943 151.763L165.737 153.038L166.228 152.755L165.665 152.431L166.096 152.182L166.659 152.506L166.859 152.391L167.255 152.62L167.055 152.735L167.405 152.937L166.974 153.185ZM168.325 152.407H167.762V150.138L168.328 150.139L168.325 152.407ZM169.872 151.57C169.769 151.629 169.649 151.669 169.514 151.689C169.378 151.708 169.243 151.708 169.108 151.689C168.971 151.669 168.851 151.629 168.747 151.57C168.645 151.511 168.577 151.442 168.544 151.363C168.511 151.283 168.511 151.204 168.545 151.126C168.58 151.047 168.647 150.978 168.747 150.921C168.85 150.862 168.97 150.822 169.106 150.802C169.242 150.782 169.377 150.782 169.513 150.802C169.648 150.822 169.768 150.861 169.872 150.921C169.976 150.981 170.045 151.05 170.08 151.129C170.114 151.207 170.114 151.285 170.08 151.363C170.044 151.442 169.975 151.51 169.872 151.57ZM169.513 151.363C169.549 151.341 169.573 151.317 169.584 151.288C169.597 151.26 169.598 151.231 169.586 151.203C169.574 151.174 169.549 151.149 169.513 151.128C169.476 151.107 169.434 151.093 169.384 151.087C169.335 151.08 169.284 151.08 169.234 151.087C169.186 151.093 169.143 151.107 169.106 151.128C169.07 151.149 169.046 151.174 169.033 151.203C169.021 151.231 169.022 151.26 169.034 151.288C169.046 151.317 169.07 151.341 169.106 151.363C169.143 151.383 169.186 151.397 169.236 151.405C169.285 151.411 169.334 151.411 169.383 151.405C169.433 151.397 169.476 151.383 169.513 151.363ZM167.341 151.623C167.238 151.683 167.119 151.723 166.983 151.743C166.846 151.763 166.71 151.763 166.575 151.744C166.44 151.724 166.32 151.684 166.216 151.623C166.114 151.565 166.046 151.495 166.012 151.416C165.979 151.337 165.98 151.258 166.014 151.18C166.049 151.101 166.115 151.033 166.216 150.975C166.319 150.916 166.438 150.877 166.573 150.857C166.709 150.837 166.845 150.837 166.981 150.856C167.117 150.876 167.237 150.915 167.341 150.975C167.445 151.035 167.514 151.104 167.549 151.183C167.582 151.261 167.581 151.34 167.547 151.418C167.512 151.495 167.444 151.564 167.341 151.623ZM166.981 151.416C167.018 151.395 167.042 151.371 167.053 151.342C167.066 151.313 167.066 151.285 167.055 151.257C167.042 151.228 167.018 151.203 166.981 151.182C166.945 151.161 166.902 151.148 166.853 151.141C166.803 151.134 166.753 151.134 166.703 151.141C166.654 151.148 166.611 151.161 166.575 151.182C166.539 151.203 166.514 151.228 166.502 151.257C166.49 151.285 166.491 151.313 166.503 151.342C166.515 151.371 166.539 151.395 166.575 151.416C166.611 151.437 166.655 151.452 166.705 151.459C166.754 151.466 166.803 151.466 166.852 151.459C166.902 151.452 166.945 151.437 166.981 151.416Z" fill="white"/>
<mask id="mask2_1_2724" style="mask-type:luminance" maskUnits="userSpaceOnUse" x="154" y="156" width="6" height="4">
<path d="M156.633 156.502L154.244 157.879L156.633 159.256L159.023 157.879L156.633 156.502Z" fill="white"/>
</mask>
<g mask="url(#mask2_1_2724)">
<path d="M156.633 158.797L156.628 157.141" stroke="white" stroke-width="0.84403" stroke-linecap="square"/>
<path d="M158.135 157.826L156.634 156.961L155.131 157.826" stroke="white" stroke-width="0.84403" stroke-linecap="square"/>
</g>
<path d="M74.3938 144.692C76.5795 143.432 76.5795 141.39 74.3938 140.131C72.2087 138.871 68.6651 138.871 66.4794 140.131C64.2937 141.39 64.2937 143.432 66.4794 144.692C68.6651 145.951 72.2087 145.951 74.3938 144.692Z" stroke="#1A1A1A" stroke-width="1.5" stroke-linecap="round" stroke-linejoin="round"/>
<path d="M76.0333 142.411H80.0467" stroke="#1A1A1A" stroke-width="1.5" stroke-linecap="square" stroke-linejoin="round"/>
<path d="M105.764 122.593L99.1 118.752L101.914 117.13C101.979 117.093 102.068 117.045 102.182 116.986C102.297 116.924 102.405 116.872 102.506 116.831C102.966 116.637 103.423 116.525 103.876 116.495C104.333 116.463 104.774 116.501 105.2 116.607C105.622 116.712 106.02 116.872 106.394 117.088C106.767 117.303 107.045 117.534 107.227 117.781C107.409 118.024 107.472 118.278 107.417 118.541C107.364 118.803 107.172 119.065 106.838 119.328C106.764 119.385 106.675 119.447 106.57 119.515C106.465 119.582 106.382 119.634 106.32 119.669L104.765 120.566L107.024 121.867L105.764 122.593ZM103.589 119.888L105.089 119.024C105.154 118.987 105.222 118.944 105.293 118.896C105.364 118.848 105.422 118.8 105.468 118.752C105.592 118.627 105.646 118.507 105.63 118.392C105.612 118.274 105.553 118.168 105.455 118.072C105.356 117.972 105.246 117.888 105.126 117.818C105.006 117.749 104.86 117.687 104.691 117.632C104.521 117.573 104.336 117.539 104.136 117.53C103.932 117.52 103.722 117.55 103.506 117.621C103.423 117.648 103.339 117.681 103.256 117.722C103.173 117.763 103.099 117.802 103.034 117.84L101.535 118.704L103.589 119.888ZM114.082 117.959C113.579 118.249 113.025 118.438 112.421 118.527C111.816 118.616 111.21 118.608 110.602 118.503C109.994 118.395 109.433 118.192 108.917 117.895C108.396 117.594 108.046 117.268 107.867 116.916C107.685 116.562 107.672 116.212 107.83 115.865C107.987 115.518 108.312 115.203 108.806 114.918C109.309 114.628 109.863 114.439 110.468 114.35C111.075 114.259 111.685 114.267 112.296 114.374C112.903 114.479 113.465 114.68 113.98 114.977C114.499 115.275 114.849 115.602 115.031 115.956C115.213 116.306 115.225 116.657 115.068 117.006C114.911 117.353 114.582 117.671 114.082 117.959ZM112.907 117.281C113.311 117.049 113.476 116.797 113.402 116.526C113.328 116.253 113.077 115.992 112.647 115.745C112.203 115.489 111.746 115.343 111.278 115.307C110.812 115.27 110.38 115.366 109.982 115.595C109.707 115.754 109.544 115.919 109.491 116.092C109.439 116.264 109.479 116.438 109.612 116.614C109.747 116.789 109.96 116.96 110.25 117.126C110.697 117.385 111.154 117.532 111.62 117.569C112.086 117.603 112.515 117.507 112.907 117.281ZM117.497 115.831L112.499 112.95L113.61 112.31L114.832 113.014L114.554 112.993C114.446 112.856 114.375 112.715 114.341 112.571C114.307 112.427 114.322 112.283 114.387 112.139C114.433 112.027 114.508 111.919 114.609 111.814C114.708 111.707 114.828 111.607 114.971 111.515C115.109 111.421 115.263 111.335 115.433 111.259L116.608 111.937C116.427 111.991 116.251 112.077 116.081 112.193C115.912 112.305 115.788 112.424 115.711 112.55C115.63 112.674 115.597 112.799 115.609 112.923C115.618 113.046 115.674 113.167 115.776 113.286C115.874 113.404 116.02 113.517 116.211 113.628L118.765 115.1L117.497 115.831ZM124.311 111.904C124.03 112.14 123.718 112.352 123.376 112.539C123.039 112.725 122.686 112.863 122.316 112.952C121.946 113.038 121.571 113.049 121.191 112.987C120.84 112.927 120.544 112.831 120.303 112.699C120.059 112.565 119.788 112.412 119.488 112.24L115.221 109.781L116.48 109.055L120.673 111.472C120.868 111.584 121.045 111.684 121.205 111.773C121.366 111.859 121.522 111.911 121.673 111.931C121.96 111.968 122.233 111.921 122.492 111.789C122.751 111.658 123.009 111.495 123.265 111.301L124.311 111.904ZM116.73 111.632L115.758 111.072L119.312 109.023L120.285 109.583L116.73 111.632ZM125.841 111.022L120.861 108.152C120.735 108.079 120.594 107.995 120.44 107.899C120.286 107.803 120.149 107.695 120.028 107.576C119.911 107.455 119.846 107.322 119.834 107.176C119.815 106.987 119.865 106.824 119.982 106.685C120.099 106.543 120.241 106.422 120.408 106.322C120.572 106.221 120.713 106.136 120.833 106.066L121.454 105.709L122.472 106.296L121.898 106.626C121.701 106.74 121.605 106.854 121.611 106.968C121.614 107.08 121.685 107.176 121.824 107.256L127.1 110.297L125.841 111.022ZM121.028 109.155L120.056 108.595L123.258 106.749L124.231 107.309L121.028 109.155ZM131.202 108.092C130.699 108.382 130.145 108.571 129.541 108.66C128.936 108.749 128.33 108.741 127.722 108.636C127.114 108.528 126.552 108.325 126.037 108.028C125.516 107.728 125.166 107.401 124.987 107.049C124.805 106.695 124.792 106.345 124.95 105.998C125.107 105.651 125.432 105.336 125.926 105.051C126.429 104.762 126.983 104.572 127.588 104.483C128.196 104.392 128.805 104.4 129.416 104.507C130.023 104.612 130.585 104.813 131.1 105.11C131.619 105.409 131.969 105.735 132.151 106.089C132.333 106.439 132.345 106.79 132.188 107.14C132.031 107.486 131.702 107.804 131.202 108.092ZM130.027 107.414C130.431 107.182 130.596 106.93 130.522 106.66C130.448 106.386 130.197 106.126 129.767 105.878C129.323 105.622 128.866 105.476 128.398 105.441C127.932 105.403 127.5 105.499 127.102 105.729C126.827 105.887 126.664 106.052 126.611 106.225C126.559 106.398 126.599 106.572 126.731 106.748C126.867 106.922 127.08 107.093 127.37 107.26C127.817 107.518 128.274 107.665 128.74 107.702C129.206 107.737 129.635 107.641 130.027 107.414ZM134.71 105.911L127.907 101.99L129.166 101.264L135.969 105.185L134.71 105.911ZM131.756 101.051L130.645 100.411L131.904 99.6857L133.015 100.326L131.756 101.051ZM137.449 104.332L132.451 101.451L133.709 100.726L138.707 103.607L137.449 104.332ZM142.483 101.591C141.98 101.88 141.426 102.07 140.821 102.159C140.217 102.248 139.61 102.24 139.003 102.135C138.395 102.027 137.834 101.824 137.318 101.527C136.797 101.226 136.446 100.9 136.268 100.548C136.086 100.194 136.073 99.8436 136.23 99.4969C136.388 99.1501 136.713 98.8343 137.207 98.55C137.71 98.2603 138.264 98.0709 138.869 97.9819C139.476 97.8912 140.086 97.8992 140.696 98.0059C141.304 98.111 141.866 98.3115 142.381 98.6087C142.9 98.9074 143.25 99.2339 143.432 99.5876C143.614 99.938 143.626 100.288 143.469 100.638C143.311 100.985 142.983 101.303 142.483 101.591ZM141.308 100.913C141.712 100.68 141.877 100.429 141.803 100.158C141.729 99.8847 141.477 99.6238 141.049 99.3768C140.604 99.1208 140.148 98.9752 139.678 98.9394C139.212 98.9021 138.781 98.9981 138.382 99.2275C138.108 99.3859 137.944 99.5513 137.892 99.7236C137.839 99.8959 137.88 100.07 138.012 100.246C138.148 100.421 138.361 100.592 138.651 100.758C139.098 101.016 139.555 101.164 140.021 101.201C140.487 101.235 140.915 101.139 141.308 100.913Z" fill="#1A1A1A"/>
<path d="M162.654 78.904L174.338 72.1699" stroke="#1A1A1A" stroke-width="1.5"/>
<path d="M166.731 81.2535L178.416 74.5193" stroke="#1A1A1A" stroke-width="1.5"/>
<path d="M175.778 80.7387L182.491 76.8696" stroke="#1A1A1A" stroke-width="1.5"/>
<path d="M288.406 162.357L218.551 202.617C214.79 204.784 214.79 208.299 218.551 210.466C222.312 212.634 228.41 212.634 232.171 210.466L302.026 170.206C305.787 168.039 305.787 164.524 302.026 162.357C298.265 160.189 292.167 160.189 288.406 162.357Z" fill="white" stroke="#1A1A1A" stroke-width="1.5"/>
<path d="M290.501 164.218L222.449 203.439C220.307 204.674 220.307 206.676 222.449 207.911L222.449 207.911C224.592 209.146 228.066 209.146 230.209 207.911L298.26 168.69C300.403 167.456 300.403 165.453 298.26 164.218C296.118 162.983 292.643 162.983 290.501 164.218Z" fill="#1A1A1A" stroke="#1A1A1A" stroke-width="1.5"/>
<mask id="mask3_1_2724" style="mask-type:alpha" maskUnits="userSpaceOnUse" x="225" y="91" width="70" height="119">
<path d="M294.298 91.4857L225.863 130.927L225.863 209.811L294.298 170.369L294.298 91.4857Z" fill="#D9D9D9"/>
</mask>
<g mask="url(#mask3_1_2724)">
<path fill-rule="evenodd" clip-rule="evenodd" d="M234.87 205.979C230.541 202.529 227.933 196.363 227.933 187.993C227.933 169.098 241.223 146.12 257.616 136.672C266.245 131.699 274.015 131.466 279.438 135.117L279.44 135.114L279.553 135.195C279.688 135.288 279.823 135.384 279.955 135.482L285.193 139.219L284.347 140.588C286.238 144 287.298 148.442 287.298 153.78C287.298 172.675 274.009 195.653 257.616 205.101C251.924 208.381 246.606 209.599 242.089 209.001L241.169 210.491L234.854 206.004L234.87 205.979Z" fill="#1A1A1A"/>
<mask id="mask4_1_2724" style="mask-type:alpha" maskUnits="userSpaceOnUse" x="227" y="132" width="61" height="79">
<path fill-rule="evenodd" clip-rule="evenodd" d="M234.87 205.978C230.541 202.528 227.933 196.362 227.933 187.992C227.933 169.097 241.223 146.119 257.616 136.671C266.245 131.698 274.015 131.465 279.438 135.116L279.44 135.113L279.553 135.194C279.688 135.287 279.823 135.383 279.955 135.481L285.193 139.218L284.347 140.587C286.238 143.999 287.298 148.441 287.298 153.779C287.298 172.674 274.009 195.652 257.616 205.1C251.924 208.38 246.606 209.598 242.089 209L241.169 210.49L234.854 206.004L234.87 205.978Z" fill="#B0F127"/>
</mask>
<g mask="url(#mask4_1_2724)">
<path d="M192.48 169.111L255.271 205.299L255.271 236.42L192.48 200.231L192.48 169.111Z" fill="#1A1A1A"/>
</g>
<path d="M234.87 205.979L235.12 205.666L235.4 205.889L235.21 206.192L234.87 205.979ZM279.438 135.117L279.778 135.33L279.558 135.68L279.214 135.449L279.438 135.117ZM279.44 135.114L279.101 134.902L279.327 134.542L279.673 134.789L279.44 135.114ZM279.553 135.195L279.326 135.525L279.32 135.521L279.553 135.195ZM279.955 135.482L279.722 135.808L279.716 135.803L279.955 135.482ZM285.193 139.219L285.426 138.893L285.73 139.111L285.534 139.429L285.193 139.219ZM284.347 140.588L283.996 140.782L283.882 140.578L284.005 140.378L284.347 140.588ZM242.089 209.001L241.748 208.791L241.884 208.57L242.142 208.604L242.089 209.001ZM241.169 210.491L241.51 210.701L241.285 211.065L240.936 210.817L241.169 210.491ZM234.854 206.004L234.622 206.33L234.314 206.112L234.515 205.792L234.854 206.004ZM228.334 187.993C228.334 196.288 230.917 202.317 235.12 205.666L234.62 206.292C230.164 202.741 227.533 196.439 227.533 187.993H228.334ZM257.816 137.019C249.695 141.7 242.32 149.747 236.974 158.99C231.629 168.233 228.334 178.632 228.334 187.993H227.533C227.533 178.459 230.883 167.922 236.28 158.59C241.677 149.258 249.143 141.093 257.415 136.326L257.816 137.019ZM279.214 135.449C273.964 131.914 266.369 132.09 257.816 137.019L257.415 136.326C266.122 131.308 274.066 131.018 279.662 134.785L279.214 135.449ZM279.099 134.904L279.101 134.902L279.779 135.327L279.778 135.33L279.099 134.904ZM279.673 134.789L279.786 134.87L279.32 135.521L279.207 135.44L279.673 134.789ZM279.716 135.803C279.587 135.708 279.458 135.615 279.326 135.525L279.78 134.865C279.92 134.961 280.058 135.06 280.193 135.16L279.716 135.803ZM280.188 135.156L285.426 138.893L284.96 139.544L279.722 135.808L280.188 135.156ZM285.534 139.429L284.688 140.799L284.005 140.378L284.851 139.009L285.534 139.429ZM286.897 153.78C286.897 148.493 285.847 144.121 283.996 140.782L284.697 140.395C286.629 143.879 287.699 148.391 287.699 153.78H286.897ZM257.415 204.754C265.537 200.073 272.912 192.026 278.257 182.783C283.603 173.54 286.897 163.141 286.897 153.78H287.699C287.699 163.314 284.349 173.851 278.952 183.183C273.554 192.515 266.088 200.68 257.816 205.447L257.415 204.754ZM242.142 208.604C246.548 209.187 251.776 208.004 257.415 204.754L257.816 205.447C252.071 208.758 246.665 210.011 242.037 209.397L242.142 208.604ZM242.43 209.21L241.51 210.701L240.827 210.281L241.748 208.791L242.43 209.21ZM240.936 210.817L234.622 206.33L235.087 205.678L241.401 210.165L240.936 210.817ZM234.515 205.792L234.531 205.766L235.21 206.192L235.194 206.217L234.515 205.792Z" fill="#1A1A1A"/>
<path d="M263.079 208.986C246.686 218.434 233.397 210.775 233.397 191.879C233.397 172.983 246.686 150.006 263.079 140.558C279.473 131.11 292.762 138.769 292.762 157.665C292.762 176.561 279.473 199.538 263.079 208.986Z" fill="white"/>
<mask id="mask5_1_2724" style="mask-type:alpha" maskUnits="userSpaceOnUse" x="233" y="136" width="60" height="78">
<path d="M263.079 208.986C246.686 218.434 233.397 210.775 233.397 191.879C233.397 172.983 246.686 150.006 263.079 140.558C279.473 131.11 292.762 138.769 292.762 157.665C292.762 176.561 279.473 199.538 263.079 208.986Z" fill="white"/>
</mask>
<g mask="url(#mask5_1_2724)">
<path d="M231.797 193.961L294.588 157.772L294.588 118.96L231.797 155.148L231.797 193.961Z" fill="white"/>
<path d="M272.716 165.388C273.101 162.201 271.142 161.736 268.465 162.216L269.333 157.699L267.212 158.313L266.367 162.711C265.809 162.872 265.236 163.051 264.667 163.229L265.519 158.802L263.4 159.414L262.53 163.93C262.068 164.075 261.616 164.216 261.176 164.344L261.178 164.33L258.253 165.174L257.689 168.11C257.689 168.11 259.263 167.619 259.23 167.663C260.088 167.416 260.244 167.981 260.218 168.516L259.228 173.662C259.287 173.645 259.364 173.626 259.449 173.616C259.378 173.636 259.302 173.658 259.225 173.681L257.838 180.89C257.733 181.251 257.466 181.856 256.866 182.03C256.887 182.054 255.324 182.475 255.324 182.475L254.272 185.881L257.031 185.083C257.545 184.936 258.048 184.801 258.544 184.661L257.665 189.229L259.784 188.618L260.653 184.098C261.232 183.945 261.794 183.789 262.344 183.629L261.477 188.129L263.598 187.515L264.476 182.955C268.093 181.66 270.812 179.774 271.957 175.344C272.879 171.777 271.911 170.583 270.008 170.538C271.394 169.371 272.437 167.719 272.716 165.388ZM267.87 176.014C267.215 179.427 262.78 180.341 261.343 180.759L262.507 174.706C263.945 174.291 268.555 172.453 267.87 176.014ZM268.526 167.759C267.928 170.865 264.237 171.589 263.04 171.935L264.096 166.446C265.293 166.1 269.149 164.52 268.526 167.759Z" fill="#1A1A1A"/>
</g>
<path d="M263.079 208.986C246.686 218.434 233.397 210.775 233.397 191.879C233.397 172.983 246.686 150.006 263.079 140.558C279.473 131.11 292.762 138.769 292.762 157.665C292.762 176.561 279.473 199.538 263.079 208.986Z" stroke="#1A1A1A" stroke-width="1.5"/>
</g>
<g clip-path="url(#clip0_1_2724)">
<path fill-rule="evenodd" clip-rule="evenodd" d="M321.437 71.0779C323.819 69.1762 325.253 65.7789 325.253 61.1663C325.253 50.7529 317.942 38.0902 308.924 32.8835C304.177 30.1428 299.903 30.0143 296.919 32.0262L296.918 32.0247L296.854 32.0707C296.781 32.1212 296.708 32.173 296.636 32.2261L293.753 34.2866L294.219 35.0413C293.178 36.9218 292.595 39.3694 292.595 42.3111C292.595 52.7245 299.906 65.387 308.924 70.5938C312.055 72.4017 314.981 73.073 317.466 72.743L317.972 73.5646L321.446 71.0921L321.437 71.0779Z" fill="#F5C635"/>
<path d="M321.437 71.0779L321.253 70.848L321.048 71.0116L321.188 71.2341L321.437 71.0779ZM296.919 32.0262L296.67 32.1826L296.832 32.4401L297.084 32.2701L296.919 32.0262ZM296.918 32.0247L297.167 31.8682L297.001 31.6036L296.747 31.7853L296.918 32.0247ZM296.854 32.0707L297.021 32.3131L297.025 32.3101L296.854 32.0707ZM296.636 32.2261L296.808 32.4656L296.812 32.4625L296.636 32.2261ZM293.754 34.2866L293.582 34.0473L293.359 34.2071L293.503 34.4411L293.754 34.2866ZM294.219 35.0413L294.476 35.1838L294.56 35.0333L294.469 34.8869L294.219 35.0413ZM317.466 72.743L317.716 72.5889L317.616 72.4264L317.427 72.4515L317.466 72.743ZM317.972 73.5646L317.722 73.7188L317.887 73.9864L318.143 73.8043L317.972 73.5646ZM321.446 71.0921L321.616 71.3318L321.843 71.1705L321.695 70.9355L321.446 71.0921ZM324.959 61.1663C324.959 65.7232 323.542 69.0205 321.253 70.848L321.621 71.3079C324.095 69.332 325.547 65.8343 325.547 61.1663H324.959ZM308.777 33.1383C313.231 35.7098 317.28 40.1342 320.216 45.2195C323.152 50.3048 324.959 56.0234 324.959 61.1663H325.547C325.547 55.8958 323.699 50.0763 320.725 44.9253C317.751 39.7742 313.635 35.264 309.071 32.6287L308.777 33.1383ZM297.084 32.2701C299.94 30.3439 304.086 30.4302 308.777 33.1383L309.071 32.6287C304.268 29.8554 299.865 29.6847 296.755 31.7822L297.084 32.2701ZM297.168 31.8697L297.167 31.8682L296.669 32.1811L296.67 32.1826L297.168 31.8697ZM296.747 31.7853L296.683 31.8313L297.025 32.3101L297.089 32.2641L296.747 31.7853ZM296.812 32.4625C296.881 32.4115 296.95 32.3616 297.021 32.3131L296.687 31.8284C296.611 31.8808 296.536 31.9346 296.461 31.9897L296.812 32.4625ZM296.465 31.9867L293.582 34.0473L293.925 34.526L296.808 32.4656L296.465 31.9867ZM293.503 34.4411L293.968 35.1958L294.469 34.8869L294.004 34.1322L293.503 34.4411ZM292.889 42.3111C292.889 39.4066 293.465 37.0108 294.476 35.1838L293.961 34.8989C292.891 36.8327 292.301 39.3321 292.301 42.3111H292.889ZM309.071 70.3392C304.617 67.7677 300.568 63.3432 297.632 58.2579C294.696 53.1726 292.889 47.454 292.889 42.3111H292.301C292.301 47.5816 294.149 53.4011 297.123 58.5522C300.097 63.7032 304.212 68.2134 308.777 70.8488L309.071 70.3392ZM317.427 72.4515C315.024 72.7705 312.164 72.1247 309.071 70.3392L308.777 70.8488C311.947 72.6791 314.938 73.3755 317.505 73.035L317.427 72.4515ZM317.215 72.8976L317.722 73.7188L318.223 73.41L317.716 72.5889L317.215 72.8976ZM318.143 73.8043L321.616 71.3318L321.275 70.8523L317.802 73.3249L318.143 73.8043ZM321.695 70.9355L321.686 70.9214L321.188 71.2341L321.197 71.2482L321.695 70.9355Z" fill="#1A1A1A"/>
<mask id="mask6_1_2724" style="mask-type:alpha" maskUnits="userSpaceOnUse" x="292" y="30" width="34" height="44">
<path fill-rule="evenodd" clip-rule="evenodd" d="M321.437 71.0747C323.819 69.1731 325.253 65.7757 325.253 61.1632C325.253 50.7498 317.942 38.0871 308.924 32.8804C304.177 30.1396 299.903 30.0111 296.919 32.0231L296.918 32.0216L296.854 32.0676C296.78 32.1181 296.708 32.1699 296.636 32.223L293.753 34.2835L294.219 35.0382C293.178 36.9186 292.595 39.3662 292.595 42.308C292.595 52.7214 299.906 65.3842 308.924 70.5906C312.055 72.3985 314.981 73.0698 317.466 72.7399L317.972 73.5614L321.446 71.0889L321.437 71.0747Z" fill="#B0F127"/>
<path d="M321.437 71.0748L321.253 70.8449L321.048 71.0089L321.188 71.2313L321.437 71.0748ZM296.919 32.0231L296.67 32.1795L296.832 32.4371L297.084 32.2671L296.919 32.0231ZM296.918 32.0216L297.167 31.8651L297.001 31.6005L296.747 31.7822L296.918 32.0216ZM296.854 32.0676L297.021 32.31L297.025 32.307L296.854 32.0676ZM296.636 32.223L296.808 32.4625L296.812 32.4595L296.636 32.223ZM293.754 34.2835L293.582 34.0442L293.359 34.204L293.503 34.438L293.754 34.2835ZM294.219 35.0383L294.476 35.1807L294.56 35.0302L294.469 34.8838L294.219 35.0383ZM317.466 72.7399L317.716 72.5857L317.616 72.4233L317.427 72.4484L317.466 72.7399ZM317.972 73.5615L317.722 73.7157L317.887 73.9832L318.143 73.8012L317.972 73.5615ZM321.446 71.0889L321.616 71.3286L321.843 71.1674L321.695 70.9324L321.446 71.0889ZM324.959 61.1632C324.959 65.7201 323.542 69.0173 321.253 70.8449L321.621 71.3047C324.095 69.3292 325.547 65.8311 325.547 61.1632H324.959ZM308.777 33.1353C313.231 35.7067 317.28 40.1312 320.216 45.2164C323.152 50.3017 324.959 56.0203 324.959 61.1632H325.547C325.547 55.8927 323.699 50.0732 320.725 44.9222C317.751 39.7711 313.635 35.2609 309.071 32.6256L308.777 33.1353ZM297.084 32.2671C299.94 30.3408 304.086 30.4271 308.777 33.1353L309.071 32.6256C304.268 29.8523 299.865 29.6816 296.755 31.7791L297.084 32.2671ZM297.168 31.8666L297.167 31.8651L296.669 32.178L296.67 32.1795L297.168 31.8666ZM296.747 31.7822L296.683 31.8283L297.025 32.307L297.089 32.261L296.747 31.7822ZM296.812 32.4595C296.881 32.4084 296.95 32.3585 297.021 32.31L296.687 31.8254C296.611 31.8777 296.536 31.9315 296.461 31.9866L296.812 32.4595ZM296.465 31.9836L293.582 34.0442L293.925 34.523L296.808 32.4625L296.465 31.9836ZM293.503 34.438L293.968 35.1927L294.469 34.8838L294.004 34.1291L293.503 34.438ZM292.889 42.308C292.889 39.4036 293.465 37.0077 294.476 35.1807L293.961 34.8958C292.891 36.8296 292.301 39.329 292.301 42.308H292.889ZM309.071 70.336C304.617 67.7646 300.568 63.3401 297.632 58.2548C294.696 53.1695 292.889 47.451 292.889 42.308H292.301C292.301 47.5786 294.149 53.398 297.123 58.5491C300.097 63.7001 304.212 68.2103 308.777 70.8457L309.071 70.336ZM317.427 72.4484C315.024 72.7674 312.164 72.1216 309.071 70.336L308.777 70.8457C311.947 72.6759 314.938 73.3723 317.505 73.0318L317.427 72.4484ZM317.215 72.8945L317.722 73.7157L318.223 73.4069L317.716 72.5857L317.215 72.8945ZM318.143 73.8012L321.616 71.3286L321.275 70.8492L317.802 73.3217L318.143 73.8012ZM321.695 70.9324L321.686 70.9182L321.188 71.2313L321.197 71.2455L321.695 70.9324Z" fill="#060606"/>
</mask>
<g mask="url(#mask6_1_2724)">
<path d="M344.756 50.758L310.213 70.7012L310.213 87.8517L344.756 67.9085L344.756 50.758Z" fill="#F5C635"/>
</g>
<path d="M321.437 71.0779L321.253 70.848L321.048 71.0116L321.188 71.2341L321.437 71.0779ZM296.919 32.0262L296.67 32.1826L296.832 32.4401L297.084 32.2701L296.919 32.0262ZM296.918 32.0247L297.167 31.8682L297.001 31.6036L296.747 31.7853L296.918 32.0247ZM296.854 32.0707L297.021 32.3131L297.025 32.3101L296.854 32.0707ZM296.636 32.2261L296.808 32.4656L296.812 32.4625L296.636 32.2261ZM293.754 34.2866L293.582 34.0473L293.359 34.2071L293.503 34.4411L293.754 34.2866ZM294.219 35.0413L294.476 35.1838L294.56 35.0333L294.469 34.8869L294.219 35.0413ZM317.466 72.743L317.716 72.5889L317.616 72.4264L317.427 72.4515L317.466 72.743ZM317.972 73.5646L317.722 73.7188L317.887 73.9864L318.143 73.8043L317.972 73.5646ZM321.446 71.0921L321.616 71.3318L321.843 71.1705L321.695 70.9355L321.446 71.0921ZM324.959 61.1663C324.959 65.7232 323.542 69.0205 321.253 70.848L321.621 71.3079C324.095 69.332 325.547 65.8343 325.547 61.1663H324.959ZM308.777 33.1383C313.231 35.7098 317.28 40.1342 320.216 45.2195C323.152 50.3048 324.959 56.0234 324.959 61.1663H325.547C325.547 55.8958 323.699 50.0763 320.725 44.9253C317.751 39.7742 313.635 35.264 309.071 32.6287L308.777 33.1383ZM297.084 32.2701C299.94 30.3439 304.086 30.4302 308.777 33.1383L309.071 32.6287C304.268 29.8554 299.865 29.6847 296.755 31.7822L297.084 32.2701ZM297.168 31.8697L297.167 31.8682L296.669 32.1811L296.67 32.1826L297.168 31.8697ZM296.747 31.7853L296.683 31.8313L297.025 32.3101L297.089 32.2641L296.747 31.7853ZM296.812 32.4625C296.881 32.4115 296.95 32.3616 297.021 32.3131L296.687 31.8284C296.611 31.8808 296.536 31.9346 296.461 31.9897L296.812 32.4625ZM296.465 31.9867L293.582 34.0473L293.925 34.526L296.808 32.4656L296.465 31.9867ZM293.503 34.4411L293.968 35.1958L294.469 34.8869L294.004 34.1322L293.503 34.4411ZM292.889 42.3111C292.889 39.4066 293.465 37.0108 294.476 35.1838L293.961 34.8989C292.891 36.8327 292.301 39.3321 292.301 42.3111H292.889ZM309.071 70.3392C304.617 67.7677 300.568 63.3432 297.632 58.2579C294.696 53.1726 292.889 47.454 292.889 42.3111H292.301C292.301 47.5816 294.149 53.4011 297.123 58.5522C300.097 63.7032 304.212 68.2134 308.777 70.8488L309.071 70.3392ZM317.427 72.4515C315.024 72.7705 312.164 72.1247 309.071 70.3392L308.777 70.8488C311.947 72.6791 314.938 73.3755 317.505 73.035L317.427 72.4515ZM317.215 72.8976L317.722 73.7188L318.223 73.41L317.716 72.5889L317.215 72.8976ZM318.143 73.8043L321.616 71.3318L321.275 70.8523L317.802 73.3249L318.143 73.8043ZM321.695 70.9355L321.686 70.9214L321.188 71.2341L321.197 71.2482L321.695 70.9355Z" fill="#1A1A1A"/>
<path d="M305.919 72.7341C314.937 77.9408 322.248 73.72 322.248 63.3065C322.248 52.8931 314.937 40.2304 305.919 35.0237C296.901 29.817 289.59 34.0379 289.59 44.4513C289.59 54.8648 296.901 67.5274 305.919 72.7341Z" fill="white"/>
<mask id="mask7_1_2724" style="mask-type:alpha" maskUnits="userSpaceOnUse" x="289" y="32" width="34" height="43">
<path d="M305.919 72.7341C314.937 77.9408 322.248 73.72 322.248 63.3065C322.248 52.8931 314.937 40.2304 305.919 35.0237C296.901 29.817 289.59 34.0379 289.59 44.4513C289.59 54.8648 296.901 67.5274 305.919 72.7341Z" fill="#B0F127"/>
</mask>
<g mask="url(#mask7_1_2724)">
<path d="M310.234 61.0595L304.882 57.9695L305.883 54.6511L307.419 55.0273L307.744 53.9256L306.209 53.5763L307.837 48.1218V48.0412C307.837 47.8531 307.721 47.6516 307.558 47.5575L305.487 46.3618C305.324 46.2678 305.185 46.3215 305.138 46.4828L303.23 52.9314L301.694 52.5821L301.345 53.6435L302.881 53.9928L301.508 58.6009L309.676 63.3165C309.839 63.4106 309.978 63.3568 310.025 63.2225L310.49 61.6372V61.5566C310.513 61.3551 310.397 61.1535 310.234 61.0595Z" fill="#1A1A1A"/>
</g>
<path d="M305.919 72.7341C314.937 77.9408 322.248 73.72 322.248 63.3065C322.248 52.8931 314.937 40.2304 305.919 35.0237C296.901 29.817 289.59 34.0379 289.59 44.4513C289.59 54.8648 296.901 67.5274 305.919 72.7341Z" stroke="#1A1A1A" stroke-width="0.610345"/>
</g>
<g clip-path="url(#clip1_1_2724)">
<path fill-rule="evenodd" clip-rule="evenodd" d="M375.581 137.924C379.273 134.951 381.497 129.639 381.497 122.426C381.497 106.144 370.164 86.3438 356.183 78.2025C348.824 73.9169 342.199 73.716 337.574 76.862L337.572 76.8592L337.444 76.9511C337.35 77.0173 337.256 77.085 337.163 77.1541L332.666 80.3961L333.388 81.5767C331.775 84.517 330.87 88.344 330.87 92.9437C330.87 109.226 342.203 129.026 356.183 137.168C361.038 139.994 365.573 141.044 369.425 140.528L370.21 141.812L375.594 137.946L375.581 137.924Z" fill="#F5C635"/>
<mask id="mask8_1_2724" style="mask-type:alpha" maskUnits="userSpaceOnUse" x="330" y="74" width="52" height="68">
<path fill-rule="evenodd" clip-rule="evenodd" d="M375.581 137.923C379.274 134.95 381.497 129.638 381.497 122.425C381.497 106.143 370.164 86.343 356.184 78.2016C348.825 73.916 342.199 73.7151 337.574 76.8611L337.572 76.8583L337.445 76.9502C337.35 77.0164 337.256 77.0841 337.163 77.1531L332.666 80.3952L333.388 81.5758C331.775 84.516 330.871 88.3431 330.871 92.9428C330.871 109.226 342.204 129.025 356.184 137.167C361.038 139.994 365.573 141.043 369.425 140.527L370.21 141.811L375.595 137.945L375.581 137.923Z" fill="#B0F127"/>
</mask>
<g mask="url(#mask8_1_2724)">
<path d="M411.731 106.154L358.183 137.337L358.183 164.154L411.731 132.971L411.731 106.154Z" fill="#F5C635"/>
</g>
<path d="M351.524 140.516C365.505 148.658 376.838 142.058 376.838 125.775C376.838 109.492 365.505 89.6928 351.524 81.5514C337.544 73.4101 326.211 80.0099 326.211 96.2927C326.211 112.575 337.544 132.375 351.524 140.516Z" fill="white"/>
<mask id="mask9_1_2724" style="mask-type:alpha" maskUnits="userSpaceOnUse" x="326" y="78" width="51" height="67">
<path d="M351.525 140.516C365.505 148.658 376.839 142.058 376.839 125.775C376.839 109.492 365.505 89.6928 351.525 81.5514C337.545 73.4101 326.212 80.0099 326.212 96.2927C326.212 112.575 337.545 132.375 351.525 140.516Z" fill="#B0F127"/>
</mask>
<g mask="url(#mask9_1_2724)">
<path d="M351.523 96.0681L351.35 96.6497V116.438L351.523 116.739L359.409 115.902L351.523 96.0681Z" fill="#1A1A1A"/>
<path d="M351.523 96.0684L343.637 106.717L351.523 116.739V107.134L351.523 96.0684Z" fill="#1A1A1A"/>
<path d="M351.523 118.479L351.426 118.561V125.61L351.523 125.997L359.414 117.648L351.523 118.479Z" fill="#1A1A1A"/>
<path d="M351.523 125.994L351.523 118.477L343.637 108.458L351.523 125.994Z" fill="#1A1A1A"/>
<path d="M351.523 116.74L359.41 115.903L351.523 107.136V116.74Z" fill="#1A1A1A"/>
<path d="M343.637 106.717L351.523 116.739V107.135L343.637 106.717Z" fill="#1A1A1A"/>
</g>
<path d="M351.524 140.516C365.505 148.658 376.838 142.058 376.838 125.775C376.838 109.492 365.505 89.6928 351.524 81.5514C337.544 73.4101 326.211 80.0099 326.211 96.2927C326.211 112.575 337.544 132.375 351.524 140.516Z" stroke="#1A1A1A" stroke-width="1.5"/>
</g>
<g clip-path="url(#clip2_1_2724)">
<path fill-rule="evenodd" clip-rule="evenodd" d="M379.716 65.1598C383.117 62.445 385.164 57.5944 385.164 51.0092C385.164 36.1425 374.727 18.0646 361.852 10.6311C355.075 6.7182 348.973 6.53478 344.713 9.40718L344.712 9.40465L344.594 9.48855C344.507 9.54903 344.42 9.61079 344.335 9.67384L340.193 12.634L340.858 13.7119C339.372 16.3965 338.54 19.8908 338.54 24.0905C338.54 38.9574 348.977 57.0353 361.852 64.4687C366.322 67.0497 370.499 68.008 374.047 67.5369L374.77 68.7095L379.729 65.1793L379.716 65.1598Z" fill="#F5C635"/>
<path d="M379.716 65.1598L379.522 64.9164L379.305 65.0896L379.452 65.3256L379.716 65.1598ZM344.713 9.4072L344.449 9.57284L344.621 9.84541L344.887 9.66547L344.713 9.4072ZM344.712 9.40466L344.975 9.23902L344.8 8.9589L344.53 9.15121L344.712 9.40466ZM344.594 9.48857L344.772 9.7446L344.775 9.74198L344.594 9.48857ZM344.335 9.67386L344.516 9.92736L344.52 9.9247L344.335 9.67386ZM340.193 12.634L340.012 12.3805L339.776 12.5498L339.928 12.7975L340.193 12.634ZM340.858 13.7119L341.131 13.8628L341.219 13.7034L341.123 13.5484L340.858 13.7119ZM374.047 67.537L374.312 67.3737L374.206 67.2018L374.006 67.2283L374.047 67.537ZM374.77 68.7095L374.504 68.8728L374.679 69.156L374.95 68.9633L374.77 68.7095ZM379.729 65.1794L379.909 65.4331L380.149 65.2628L379.992 65.0136L379.729 65.1794ZM384.853 51.0092C384.853 57.5358 382.824 62.2801 379.522 64.9164L379.911 65.4032C383.409 62.6099 385.476 57.653 385.476 51.0092H384.853ZM361.696 10.9009C368.075 14.5839 373.868 20.9162 378.066 28.1885C382.265 35.4607 384.853 43.6436 384.853 51.0092H385.476C385.476 43.5082 382.845 35.2188 378.606 27.8769C374.367 20.5351 368.504 14.1118 362.008 10.3613L361.696 10.9009ZM344.887 9.66547C349.013 6.88374 354.979 7.02247 361.696 10.9009L362.008 10.3613C355.171 6.41397 348.933 6.18585 344.539 9.14893L344.887 9.66547ZM344.977 9.24155L344.975 9.23902L344.448 9.57031L344.449 9.57284L344.977 9.24155ZM344.53 9.15121L344.413 9.23511L344.775 9.74198L344.893 9.65808L344.53 9.15121ZM344.52 9.9247C344.603 9.86339 344.687 9.80337 344.772 9.7446L344.417 9.23254C344.327 9.29472 344.238 9.35823 344.15 9.42306L344.52 9.9247ZM344.154 9.42045L340.012 12.3805L340.375 12.8874L344.516 9.92736L344.154 9.42045ZM339.928 12.7975L340.593 13.8754L341.123 13.5484L340.459 12.4705L339.928 12.7975ZM338.851 24.0905C338.851 19.9303 339.676 16.4908 341.131 13.8628L340.586 13.5611C339.069 16.3023 338.228 19.8513 338.228 24.0905H338.851ZM362.008 64.1991C355.629 60.5161 349.836 54.1834 345.638 46.9113C341.439 39.6392 338.851 31.4564 338.851 24.0905H338.228C338.228 31.5915 340.859 39.8811 345.098 47.2228C349.337 54.5648 355.2 60.9879 361.696 64.7387L362.008 64.1991ZM374.006 67.2283C370.545 67.6877 366.437 66.7561 362.008 64.1991L361.696 64.7387C366.208 67.3434 370.454 68.3282 374.088 67.846L374.006 67.2283ZM373.782 67.7006L374.504 68.8728L375.035 68.5459L374.312 67.3737L373.782 67.7006ZM374.95 68.9633L379.909 65.4331L379.548 64.9256L374.589 68.4557L374.95 68.9633ZM379.992 65.0136L379.98 64.9941L379.452 65.3256L379.465 65.3451L379.992 65.0136Z" fill="#1A1A1A"/>
<mask id="mask10_1_2724" style="mask-type:alpha" maskUnits="userSpaceOnUse" x="338" y="7" width="48" height="63">
<path fill-rule="evenodd" clip-rule="evenodd" d="M379.717 65.159C383.117 62.4442 385.165 57.5936 385.165 51.0084C385.165 36.1417 374.728 18.0637 361.852 10.6303C355.075 6.71738 348.973 6.53396 344.714 9.40636L344.712 9.40383L344.595 9.48773C344.507 9.54821 344.421 9.60997 344.335 9.67307L340.194 12.6332L340.858 13.7111C339.373 16.3957 338.54 19.89 338.54 24.0897C338.54 38.9566 348.977 57.0345 361.852 64.4678C366.323 67.0489 370.499 68.0071 374.047 67.5361L374.77 68.7087L379.729 65.1785L379.717 65.159Z" fill="#B0F127"/>
<path d="M379.717 65.159L379.522 64.9156L379.305 65.0888L379.453 65.3247L379.717 65.159ZM344.714 9.40639L344.45 9.57207L344.621 9.84464L344.888 9.6647L344.714 9.40639ZM344.712 9.40385L344.976 9.23821L344.8 8.95809L344.531 9.15044L344.712 9.40385ZM344.595 9.48776L344.772 9.74379L344.776 9.74121L344.595 9.48776ZM344.335 9.67309L344.516 9.92655L344.52 9.92393L344.335 9.67309ZM340.194 12.6332L340.013 12.3797L339.776 12.549L339.929 12.7967L340.194 12.6332ZM340.858 13.7111L341.131 13.8619L341.219 13.7026L341.124 13.5476L340.858 13.7111ZM374.047 67.5361L374.312 67.3729L374.206 67.2009L374.006 67.2275L374.047 67.5361ZM374.77 68.7087L374.505 68.8719L374.679 69.1552L374.951 68.9625L374.77 68.7087ZM379.729 65.1785L379.91 65.4323L380.149 65.262L379.993 65.0128L379.729 65.1785ZM384.853 51.0084C384.853 57.535 382.824 62.2793 379.522 64.9156L379.911 65.4024C383.41 62.6091 385.476 57.6526 385.476 51.0084H384.853ZM361.697 10.9001C368.076 14.5831 373.868 20.9155 378.067 28.1877C382.266 35.4599 384.853 43.6428 384.853 51.0084H385.476C385.476 43.5074 382.846 35.218 378.606 27.8762C374.368 20.5343 368.504 14.111 362.008 10.3606L361.697 10.9001ZM344.888 9.6647C349.013 6.88293 354.979 7.02166 361.697 10.9001L362.008 10.3606C355.171 6.4132 348.933 6.18504 344.539 9.14811L344.888 9.6647ZM344.977 9.24074L344.976 9.23821L344.448 9.5695L344.45 9.57207L344.977 9.24074ZM344.531 9.15044L344.413 9.2343L344.776 9.74121L344.893 9.65731L344.531 9.15044ZM344.52 9.92393C344.603 9.86262 344.687 9.8026 344.772 9.74379L344.417 9.23177C344.327 9.29391 344.239 9.35742 344.151 9.42225L344.52 9.92393ZM344.154 9.41964L340.013 12.3797L340.375 12.8866L344.516 9.92655L344.154 9.41964ZM339.929 12.7967L340.593 13.8746L341.124 13.5476L340.459 12.4697L339.929 12.7967ZM338.852 24.0898C338.852 19.9294 339.677 16.49 341.131 13.8619L340.586 13.5603C339.069 16.3015 338.229 19.8505 338.229 24.0898H338.852ZM362.008 64.1983C355.629 60.5153 349.836 54.1826 345.638 46.9105C341.439 39.6384 338.852 31.4556 338.852 24.0898H338.229C338.229 31.5907 340.859 39.8803 345.098 47.222C349.337 54.5639 355.201 60.9871 361.697 64.7378L362.008 64.1983ZM374.006 67.2275C370.545 67.6869 366.437 66.7553 362.008 64.1983L361.697 64.7378C366.208 67.3426 370.454 68.3274 374.088 67.8452L374.006 67.2275ZM373.782 67.6998L374.505 68.8719L375.035 68.5451L374.312 67.3729L373.782 67.6998ZM374.951 68.9625L379.91 65.4323L379.548 64.9248L374.589 68.4549L374.951 68.9625ZM379.993 65.0128L379.98 64.9933L379.453 65.3247L379.465 65.3443L379.993 65.0128Z" fill="#060606"/>
</mask>
<g mask="url(#mask10_1_2724)">
<path d="M413.009 36.1515L363.694 64.6236L363.694 89.1086L413.009 60.6365L413.009 36.1515Z" fill="#F5C635"/>
</g>
<path d="M379.716 65.1598L379.522 64.9164L379.305 65.0896L379.452 65.3256L379.716 65.1598ZM344.713 9.4072L344.449 9.57284L344.621 9.84541L344.887 9.66547L344.713 9.4072ZM344.712 9.40466L344.975 9.23902L344.8 8.9589L344.53 9.15121L344.712 9.40466ZM344.594 9.48857L344.772 9.7446L344.775 9.74198L344.594 9.48857ZM344.335 9.67386L344.516 9.92736L344.52 9.9247L344.335 9.67386ZM340.193 12.634L340.012 12.3805L339.776 12.5498L339.928 12.7975L340.193 12.634ZM340.858 13.7119L341.131 13.8628L341.219 13.7034L341.123 13.5484L340.858 13.7119ZM374.047 67.537L374.312 67.3737L374.206 67.2018L374.006 67.2283L374.047 67.537ZM374.77 68.7095L374.504 68.8728L374.679 69.156L374.95 68.9633L374.77 68.7095ZM379.729 65.1794L379.909 65.4331L380.149 65.2628L379.992 65.0136L379.729 65.1794ZM384.853 51.0092C384.853 57.5358 382.824 62.2801 379.522 64.9164L379.911 65.4032C383.409 62.6099 385.476 57.653 385.476 51.0092H384.853ZM361.696 10.9009C368.075 14.5839 373.868 20.9162 378.066 28.1885C382.265 35.4607 384.853 43.6436 384.853 51.0092H385.476C385.476 43.5082 382.845 35.2188 378.606 27.8769C374.367 20.5351 368.504 14.1118 362.008 10.3613L361.696 10.9009ZM344.887 9.66547C349.013 6.88374 354.979 7.02247 361.696 10.9009L362.008 10.3613C355.171 6.41397 348.933 6.18585 344.539 9.14893L344.887 9.66547ZM344.977 9.24155L344.975 9.23902L344.448 9.57031L344.449 9.57284L344.977 9.24155ZM344.53 9.15121L344.413 9.23511L344.775 9.74198L344.893 9.65808L344.53 9.15121ZM344.52 9.9247C344.603 9.86339 344.687 9.80337 344.772 9.7446L344.417 9.23254C344.327 9.29472 344.238 9.35823 344.15 9.42306L344.52 9.9247ZM344.154 9.42045L340.012 12.3805L340.375 12.8874L344.516 9.92736L344.154 9.42045ZM339.928 12.7975L340.593 13.8754L341.123 13.5484L340.459 12.4705L339.928 12.7975ZM338.851 24.0905C338.851 19.9303 339.676 16.4908 341.131 13.8628L340.586 13.5611C339.069 16.3023 338.228 19.8513 338.228 24.0905H338.851ZM362.008 64.1991C355.629 60.5161 349.836 54.1834 345.638 46.9113C341.439 39.6392 338.851 31.4564 338.851 24.0905H338.228C338.228 31.5915 340.859 39.8811 345.098 47.2228C349.337 54.5648 355.2 60.9879 361.696 64.7387L362.008 64.1991ZM374.006 67.2283C370.545 67.6877 366.437 66.7561 362.008 64.1991L361.696 64.7387C366.208 67.3434 370.454 68.3282 374.088 67.846L374.006 67.2283ZM373.782 67.7006L374.504 68.8728L375.035 68.5459L374.312 67.3737L373.782 67.7006ZM374.95 68.9633L379.909 65.4331L379.548 64.9256L374.589 68.4557L374.95 68.9633ZM379.992 65.0136L379.98 64.9941L379.452 65.3256L379.465 65.3451L379.992 65.0136Z" fill="#1A1A1A"/>
<path d="M357.561 67.5265C370.436 74.9599 380.874 68.9339 380.874 54.0671C380.874 39.2002 370.436 21.1223 357.561 13.6889C344.686 6.25545 334.249 12.2814 334.249 27.1483C334.249 42.0151 344.686 60.0931 357.561 67.5265Z" fill="white" stroke="#1A1A1A" stroke-width="0.646154"/>
<mask id="mask11_1_2724" style="mask-type:alpha" maskUnits="userSpaceOnUse" x="333" y="10" width="49" height="62">
<path d="M357.562 67.5265C370.437 74.9599 380.875 68.9339 380.875 54.0671C380.875 39.2002 370.437 21.1223 357.562 13.6889C344.687 6.25545 334.25 12.2814 334.25 27.1483C334.25 42.0151 344.687 60.0931 357.562 67.5265Z" fill="#B0F127" stroke="#060606" stroke-width="0.646154"/>
</mask>
<g mask="url(#mask11_1_2724)">
<path d="M357.562 67.5265C370.437 74.9599 380.875 68.9339 380.875 54.0671C380.875 39.2002 370.437 21.1223 357.562 13.6889C344.687 6.25545 334.25 12.2814 334.25 27.1483C334.25 42.0151 344.687 60.0931 357.562 67.5265Z" stroke="#1A1A1A" stroke-width="0.646154"/>
</g>
<path d="M350.925 41.3474C351.037 41.2844 351.19 41.2988 351.353 41.3929L366.136 49.9277C366.406 50.0839 366.542 50.5337 366.351 50.6413L363.43 52.2861C363.319 52.3488 363.165 52.3347 363.002 52.2404L348.219 43.7055C347.949 43.5498 347.814 43.0999 348.005 42.9924L350.925 41.3474Z" fill="#1A1A1A"/>
<path d="M350.925 28.929C351.041 28.8687 351.195 28.8831 351.353 28.9745L366.136 37.5094C366.406 37.6654 366.542 38.1152 366.351 38.2228L363.43 39.8676C363.319 39.9306 363.165 39.9162 363.002 39.8221L348.219 31.2872C347.949 31.1313 347.814 30.6814 348.005 30.5739L350.925 28.929Z" fill="#1A1A1A"/>
<path d="M363.43 42.3277C363.319 42.1354 363.165 41.9721 363.002 41.8783L348.219 33.3434C347.949 33.1874 347.814 33.4813 348.005 33.8093L350.925 38.8262C351.037 39.0182 351.19 39.1813 351.353 39.2754L366.136 47.8105C366.406 47.9663 366.542 47.6726 366.351 47.3445L363.43 42.3277Z" fill="#1A1A1A"/>
</g>
<g clip-path="url(#clip3_1_2724)">
<path d="M258.453 83.8418C258.453 105.74 243.047 132.368 224.043 143.316C205.039 154.265 189.633 145.389 189.633 123.492C189.633 101.593 205.039 74.9658 224.043 64.0169C243.047 53.0679 258.453 61.9438 258.453 83.8418ZM198.236 118.535C198.236 134.959 209.79 141.616 224.043 133.404C238.296 125.192 249.85 105.222 249.85 88.7978C249.85 72.3745 238.296 65.7176 224.043 73.9293C209.79 82.141 198.236 102.112 198.236 118.535Z" fill="#1A1A1A"/>
<mask id="mask12_1_2724" style="mask-type:luminance" maskUnits="userSpaceOnUse" x="193" y="62" width="70" height="89">
<path d="M262.211 86.6528C262.211 108.551 246.806 135.178 227.802 146.128C208.798 157.077 193.392 148.201 193.392 126.302C193.392 104.405 208.798 77.777 227.802 66.828C246.806 55.879 262.211 64.7549 262.211 86.6528ZM201.994 121.347C201.994 137.77 213.549 144.427 227.802 136.215C242.055 128.003 253.609 108.033 253.609 91.6091C253.609 75.1856 242.055 68.5287 227.802 76.7404C213.549 84.952 201.994 104.923 201.994 121.347Z" fill="white"/>
</mask>
<g mask="url(#mask12_1_2724)">
<path d="M262.211 86.6528C262.211 108.551 246.806 135.178 227.802 146.128C208.798 157.077 193.392 148.201 193.392 126.302C193.392 104.405 208.798 77.777 227.802 66.828C246.806 55.879 262.211 64.7549 262.211 86.6528ZM201.994 121.347C201.994 137.77 213.549 144.427 227.802 136.215C242.055 128.003 253.609 108.033 253.609 91.6091C253.609 75.1856 242.055 68.5287 227.802 76.7404C213.549 84.952 201.994 104.923 201.994 121.347Z" fill="#1A1A1A" stroke="#1A1A1A" stroke-width="3"/>
</g>
<path d="M260.888 98.3059C262.86 89.2158 262.623 80.8866 260.212 74.4849C257.8 68.083 253.334 63.9291 247.439 62.6048C241.544 61.2805 234.515 62.8522 227.337 67.0997C220.158 71.3472 213.19 78.0579 207.408 86.2918C201.626 94.5259 197.319 103.871 195.091 113.018C192.863 122.165 192.825 130.657 194.983 137.303C197.141 143.95 201.386 148.418 207.124 150.083C212.862 151.748 219.806 150.526 226.983 146.588L227.188 136.561C221.805 139.514 216.597 140.43 212.293 139.182C207.99 137.933 204.806 134.582 203.188 129.597C201.569 124.612 201.598 118.244 203.269 111.383C204.94 104.523 208.17 97.5139 212.506 91.3383C216.843 85.1628 222.069 80.1298 227.453 76.9442C232.836 73.7585 238.108 72.5798 242.529 73.573C246.951 74.5662 250.3 77.6817 252.109 82.4831C253.918 87.2846 254.095 93.5313 252.617 100.349L260.888 98.3059Z" fill="white" stroke="#1A1A1A" stroke-width="1.5"/>
<path d="M199.006 101.362C195.076 110.549 193.123 119.839 193.421 127.932C193.72 136.025 196.254 142.516 200.669 146.495C205.084 150.474 211.159 151.742 218.043 150.122C224.927 148.502 232.276 144.074 239.06 137.459C245.844 130.844 251.723 122.373 255.874 113.233C260.026 104.093 262.242 94.74 262.211 86.4856C262.181 78.231 259.906 71.4877 255.705 67.2C251.505 62.9122 245.588 61.2948 238.785 62.5742L236.039 73.5501C241.142 72.5905 245.579 73.8036 248.729 77.0194C251.88 80.2352 253.586 85.2926 253.609 91.4837C253.632 97.6745 251.97 104.689 248.856 111.544C245.743 118.4 241.333 124.753 236.245 129.714C231.157 134.675 225.646 137.996 220.483 139.211C215.32 140.426 210.763 139.475 207.452 136.491C204.141 133.506 202.24 128.638 202.016 122.569C201.793 116.499 203.257 109.531 206.205 102.641L199.006 101.362Z" fill="#AF7F10"/>
<path d="M199.006 101.362C195.114 110.461 193.16 119.663 193.414 127.705C193.667 135.746 196.116 142.232 200.423 146.269C204.73 150.306 210.683 151.697 217.465 150.251C224.247 148.805 231.524 144.593 238.295 138.193L235.672 130.264C230.593 135.064 225.136 138.224 220.049 139.308C214.963 140.393 210.498 139.349 207.268 136.321C204.037 133.293 202.201 128.429 202.011 122.398C201.82 116.367 203.286 109.465 206.205 102.641L199.006 101.362Z" fill="#F5C635"/>
<path d="M262.211 86.6528C262.211 108.551 246.806 135.178 227.802 146.128C208.798 157.077 193.392 148.201 193.392 126.302C193.392 104.405 208.798 77.777 227.802 66.828C246.806 55.879 262.211 64.7549 262.211 86.6528ZM201.994 121.347C201.994 137.77 213.549 144.427 227.802 136.215C242.055 128.003 253.609 108.033 253.609 91.6091C253.609 75.1856 242.055 68.5287 227.802 76.7404C213.549 84.952 201.994 104.923 201.994 121.347Z" stroke="#1A1A1A" stroke-width="1.5"/>
</g>
<defs>
<clipPath id="clip0_1_2724">
<rect width="36.488" height="56.8899" fill="white" transform="translate(289.271 25.2996)"/>
</clipPath>
<clipPath id="clip1_1_2724">
<rect width="55.9257" height="88.7097" fill="white" transform="translate(325.912 66.7617)"/>
</clipPath>
<clipPath id="clip2_1_2724">
<rect width="51.9204" height="80.9958" fill="white" transform="translate(333.626 0.229469)"/>
</clipPath>
<clipPath id="clip3_1_2724">
<rect width="72.8534" height="122.137" fill="white" transform="translate(189.633 44.1558)"/>
</clipPath>
</defs>
</svg>
