<svg width="542" height="529" viewBox="0 0 542 529" fill="none" xmlns="http://www.w3.org/2000/svg">
<rect width="542" height="529" rx="22" fill="url(#paint0_linear_1246_1710)" fill-opacity="0.1"/>
<rect x="0.5" y="0.5" width="541" height="528" rx="21.5" stroke="white" stroke-opacity="0.15"/>
<path d="M329.238 417.01L318.383 410.642V362.736L310.567 347.973V313.672H312.015V347.539L319.83 362.446V409.773L329.238 415.273L377.288 385.748L378.157 387.051L329.238 417.01Z" fill="url(#paint1_linear_1246_1710)"/>
<path d="M381.92 387.051C380.328 387.919 377.723 387.919 375.986 387.051C374.394 386.038 374.394 384.591 375.986 383.578C377.578 382.564 380.183 382.709 381.92 383.578C383.512 384.591 383.512 386.038 381.92 387.051Z" fill="#FFA98C"/>
<path d="M319.107 444.509L308.252 438.141V390.235L300.437 375.472V341.171H301.884V375.038L309.699 389.945V437.272L319.107 442.772L367.157 413.247L368.026 414.55L319.107 444.509Z" fill="url(#paint2_linear_1246_1710)"/>
<path d="M371.789 414.55C370.197 415.418 367.592 415.418 365.855 414.55C364.263 413.537 364.263 412.089 365.855 411.076C367.447 410.063 370.052 410.208 371.789 411.076C373.381 412.089 373.381 413.537 371.789 414.55Z" fill="#FFA98C"/>
<path d="M221.848 417.444L221.413 417.155L175.1 388.498L175.823 387.34L221.848 415.707L242.834 403.116V373.301L258.754 347.684V313.672H260.201V348.118L244.281 373.735V403.984L221.848 417.444Z" fill="url(#paint3_linear_1246_1710)"/>
<path d="M176.258 389.222C174.666 390.09 172.061 390.09 170.324 389.222C168.732 388.209 168.732 386.761 170.324 385.748C171.916 384.88 174.521 384.88 176.258 385.748C177.85 386.761 177.85 388.353 176.258 389.222Z" fill="#FFA98C"/>
<path d="M221.992 444.509L221.703 444.364L175.244 415.708L175.968 414.405L221.992 442.917L242.978 430.326V400.511L258.898 374.749V340.882H260.346V375.183L244.425 400.945V431.049L221.992 444.509Z" fill="url(#paint4_linear_1246_1710)"/>
<path d="M176.402 416.432C174.81 417.3 172.205 417.3 170.468 416.432C168.876 415.418 168.876 413.971 170.468 412.958C172.06 412.09 174.666 412.09 176.402 412.958C177.994 413.971 177.994 415.418 176.402 416.432Z" fill="#FFA98C"/>
<path d="M275.978 469.836V482.718L358.908 434.377V421.496L275.978 469.836Z" fill="url(#paint5_linear_1246_1710)"/>
<path d="M276.122 469.836V482.718L193.047 434.233V421.496L276.122 469.836Z" fill="url(#paint6_linear_1246_1710)"/>
<path d="M193.047 421.497L276.122 469.837L358.908 421.497L275.688 373.157L193.047 421.497Z" fill="url(#paint7_linear_1246_1710)"/>
<path d="M275.978 453.193V466.798L352.974 421.787V408.327L275.978 453.193Z" fill="url(#paint8_linear_1246_1710)"/>
<path d="M276.122 453.193V466.798L198.836 421.786V408.182L276.122 453.193Z" fill="url(#paint9_linear_1246_1710)"/>
<path d="M275.978 443.206V463.469L358.908 415.129V394.866L275.978 443.206Z" fill="url(#paint10_linear_1246_1710)"/>
<path d="M276.122 443.206V463.469L193.047 414.984V394.721L276.122 443.206Z" fill="url(#paint11_linear_1246_1710)"/>
<path d="M193.047 394.722L276.122 443.206L358.908 394.866L275.688 346.382L193.047 394.722Z" fill="url(#paint12_linear_1246_1710)"/>
<path d="M275.978 426.562V440.167L352.974 395.3V381.696L275.978 426.562Z" fill="url(#paint13_linear_1246_1710)"/>
<path d="M276.122 426.562V440.167L198.836 395.156V381.551L276.122 426.562Z" fill="url(#paint14_linear_1246_1710)"/>
<path d="M275.978 409.05V436.838L358.908 388.498V360.71L275.978 409.05Z" fill="url(#paint15_linear_1246_1710)"/>
<path d="M276.122 409.05V436.838L193.047 388.353V360.71L276.122 409.05Z" fill="url(#paint16_linear_1246_1710)"/>
<path d="M193.047 360.71L276.122 409.05L358.908 360.71L275.688 312.37L193.047 360.71Z" fill="url(#paint17_linear_1246_1710)"/>
<path d="M275.978 392.117V405.577L352.974 360.71V347.25L275.978 392.117Z" fill="url(#paint18_linear_1246_1710)"/>
<path d="M276.122 392.116V405.576L198.836 360.565V347.105L276.122 392.116Z" fill="url(#paint19_linear_1246_1710)"/>
<path d="M275.978 365.197V401.814L358.908 353.618V316.857L275.978 365.197Z" fill="url(#paint20_linear_1246_1710)"/>
<path d="M276.122 365.197V401.813L193.047 353.473V316.712L276.122 365.197Z" fill="url(#paint21_linear_1246_1710)"/>
<path d="M193.047 316.712L276.122 365.197L358.908 316.857L275.688 268.372L193.047 316.712Z" fill="url(#paint22_linear_1246_1710)"/>
<path d="M218.953 348.552C218.953 350.434 217.651 351.158 216.059 350.289C214.467 349.276 213.164 347.105 213.164 345.224C213.164 343.342 214.467 342.618 216.059 343.487C217.651 344.355 218.953 346.671 218.953 348.552Z" fill="#2AF6FF"/>
<path d="M312.594 361.723C312.594 363.604 311.291 365.92 309.699 366.788C308.107 367.801 306.805 366.933 306.805 365.052C306.805 363.17 308.107 360.854 309.699 359.986C311.291 359.118 312.594 359.841 312.594 361.723Z" fill="#2AF6FF"/>
<path d="M339.514 414.26C339.514 416.142 338.211 418.458 336.619 419.326C335.027 420.339 333.725 419.471 333.725 417.589C333.725 415.708 335.027 413.392 336.619 412.524C338.211 411.655 339.514 412.379 339.514 414.26Z" fill="#2AF6FF"/>
<path d="M315.489 495.744L285.096 477.508L285.24 446.825L308.976 397.327V363.46H310.424V397.761L310.279 397.906L286.543 447.259V476.784L316.213 494.441L315.489 495.744Z" fill="url(#paint23_linear_1246_1710)"/>
<path d="M329.672 389.511C329.672 391.393 328.369 393.708 326.777 394.577C325.185 395.59 323.883 394.722 323.883 392.84C323.883 390.959 325.185 388.643 326.777 387.775C328.369 386.906 329.672 387.63 329.672 389.511Z" fill="#2AF6FF"/>
<path d="M360.355 495.599L306.805 464.192V455.219L306.949 455.074L326.054 425.115V391.248H327.501V425.549L327.356 425.839L308.252 455.653V463.324L360.355 493.862L370.052 488.073L370.776 489.375L360.355 495.599Z" fill="url(#paint24_linear_1246_1710)"/>
<path d="M178.718 451.891L178.428 451.746L131.97 423.089L132.838 421.787L178.862 450.299L199.704 437.707V407.748L215.624 382.13V348.263H217.071V382.565L201.151 408.182V438.431L178.718 451.891Z" fill="url(#paint25_linear_1246_1710)"/>
<path d="M133.128 423.812C131.536 424.681 128.931 424.681 127.194 423.812C125.602 422.799 125.602 421.352 127.194 420.339C128.786 419.47 131.391 419.47 133.128 420.339C134.865 421.352 134.865 422.799 133.128 423.812Z" fill="#FFA98C"/>
<path d="M238.926 404.274C238.926 406.155 237.623 406.879 236.031 406.011C234.439 404.997 233.137 402.826 233.137 400.945C233.137 399.063 234.439 398.34 236.031 399.208C237.623 400.077 238.926 402.392 238.926 404.274Z" fill="#2AF6FF"/>
<path d="M188.56 478.521L170.469 469.693L171.048 468.39L188.415 476.929L227.203 453.917V434.523L235.598 421.931V403.985H237.045V422.366L228.65 434.957V454.785L228.361 454.93L188.56 478.521Z" fill="url(#paint26_linear_1246_1710)"/>
<path d="M171.192 470.85C169.6 471.718 166.995 471.718 165.258 470.85C163.666 469.837 163.666 468.389 165.258 467.376C166.851 466.508 169.456 466.508 171.192 467.376C172.784 468.389 172.784 469.837 171.192 470.85Z" fill="#FFA98C"/>
<path d="M256.583 380.393C256.583 382.275 255.281 382.998 253.689 382.13C252.097 381.117 250.794 378.946 250.794 377.064C250.794 375.183 252.097 374.459 253.689 375.328C255.281 376.196 256.583 378.512 256.583 380.393Z" fill="#2AF6FF"/>
<path d="M249.057 435.391C249.057 437.272 247.754 437.996 246.162 437.128C244.57 436.115 243.268 433.944 243.268 432.062C243.268 430.181 244.57 429.457 246.162 430.325C247.754 431.194 249.057 433.509 249.057 435.391Z" fill="#2AF6FF"/>
<path d="M251.518 486.481L250.649 485.323L265.267 476.784V447.259L252.965 414.984V380.828H254.412V414.84L266.715 447.114V477.508L251.518 486.481Z" fill="url(#paint27_linear_1246_1710)"/>
<path d="M253.689 487.928C252.097 488.797 249.491 488.797 247.755 487.928C246.163 486.915 246.163 485.468 247.755 484.455C249.347 483.586 251.952 483.586 253.689 484.455C255.281 485.468 255.281 487.06 253.689 487.928Z" fill="#FFA98C"/>
<path d="M196.521 495.165L195.797 493.862L246.018 465.206V435.536H247.466V465.929L247.176 466.219L196.521 495.165Z" fill="url(#paint28_linear_1246_1710)"/>
<path d="M198.691 496.612C197.099 497.481 194.494 497.481 192.758 496.612C191.165 495.599 191.165 494.152 192.758 493.139C194.35 492.27 196.955 492.27 198.691 493.139C200.428 494.152 200.428 495.599 198.691 496.612Z" fill="#FFA98C"/>
<path d="M320.699 498.349C319.107 499.217 316.502 499.217 314.765 498.349C313.173 497.335 313.173 495.888 314.765 494.875C316.357 494.007 318.963 494.007 320.699 494.875C322.291 495.888 322.291 497.48 320.699 498.349Z" fill="#FFA98C"/>
<path d="M392.341 453.917C390.749 454.785 388.144 454.785 386.407 453.917C384.815 452.904 384.815 451.457 386.407 450.443C387.999 449.575 390.604 449.575 392.341 450.443C394.078 451.457 394.078 452.904 392.341 453.917Z" fill="#FFA98C"/>
<path d="M374.684 489.376C373.092 490.244 370.486 490.244 368.75 489.376C367.158 488.363 367.158 486.915 368.75 485.902C370.342 485.034 372.947 485.034 374.684 485.902C376.276 486.915 376.276 488.363 374.684 489.376Z" fill="#FFA98C"/>
<path d="M346.896 340.013C346.896 341.895 345.593 344.21 344.001 345.079C342.409 346.092 341.106 345.223 341.106 343.342C341.106 341.46 342.409 339.145 344.001 338.276C345.593 337.408 346.896 338.132 346.896 340.013Z" fill="#2AF6FF"/>
<path d="M361.948 445.088L350.948 438.72V390.814L343.277 376.052V341.751H344.725V375.618L352.395 390.525V437.852L361.803 443.352L409.998 413.826L410.722 414.984L361.948 445.088Z" fill="url(#paint29_linear_1246_1710)"/>
<path d="M414.629 414.984C413.037 415.852 410.432 415.852 408.695 414.984C407.103 413.971 407.103 412.523 408.695 411.51C410.287 410.497 412.892 410.642 414.629 411.51C416.221 412.523 416.221 414.115 414.629 414.984Z" fill="#FFA98C"/>
<path d="M389.012 453.193L388.288 451.89L366.579 464.337L337.054 447.114V417.589H335.606V447.983L366.289 465.785H367.013L389.012 453.193Z" fill="url(#paint30_linear_1246_1710)"/>
<path d="M295.805 328.724H294.358V319.751L275.398 309.041V159.389L252.097 124.22L252.241 90.353H253.689L253.544 123.786L276.846 158.955V308.173L295.805 318.883V328.724Z" fill="url(#paint31_linear_1246_1710)"/>
<path d="M317.081 312.804H315.633V305.567L298.266 295.436L279.885 306.291V176.323L280.029 176.033L319.686 122.483L320.844 123.351L281.332 176.757V303.83L298.266 293.699L317.081 304.699V312.804Z" fill="url(#paint32_linear_1246_1710)"/>
<path d="M237.478 300.212H236.031V273.727L265.99 290.805V227.702L248.912 191.809L199.848 169.376L199.704 169.231L172.35 137.535L173.363 136.667L200.717 168.218L249.925 190.651L267.438 227.558V293.265L237.478 276.187V300.212Z" fill="url(#paint33_linear_1246_1710)"/>
<path d="M254.122 231.175L243.412 208.018L182.336 180.085L182.915 178.783L244.425 206.861L255.425 230.596L254.122 231.175Z" fill="url(#paint34_linear_1246_1710)"/>
<path d="M258.755 319.751H257.307V308.317L270.767 301.08V201.071L259.478 177.77L235.742 168.652L217.217 147.232L218.375 146.218L236.611 167.494L260.491 176.612L272.214 200.782V301.949L258.755 309.185V319.751Z" fill="url(#paint35_linear_1246_1710)"/>
<path d="M267.438 171.257L254.268 144.772L246.308 141.443L215.914 105.839L216.927 104.826L247.176 140.285L255.426 143.614L268.741 170.679L267.438 171.257Z" fill="url(#paint36_linear_1246_1710)"/>
<path d="M276.846 126.246C278.764 126.246 280.319 124.691 280.319 122.773C280.319 120.854 278.764 119.299 276.846 119.299C274.927 119.299 273.372 120.854 273.372 122.773C273.372 124.691 274.927 126.246 276.846 126.246Z" fill="#2AF6FF"/>
<path d="M345.593 238.991C337.053 238.991 330.106 232.044 330.106 223.65C330.106 215.111 337.053 208.308 345.593 208.308C354.132 208.308 360.934 215.256 360.934 223.65C361.079 232.044 354.132 238.991 345.593 238.991ZM345.593 209.611C337.922 209.611 331.554 215.834 331.554 223.505C331.554 231.176 337.777 237.399 345.593 237.399C353.263 237.399 359.487 231.176 359.487 223.505C359.631 215.834 353.263 209.611 345.593 209.611Z" fill="#ECAC1A"/>
<path d="M206.651 230.597C198.112 230.597 191.165 223.65 191.165 215.255C191.165 206.716 198.112 199.914 206.651 199.914C215.19 199.914 221.993 206.861 221.993 215.255C222.137 223.65 215.19 230.597 206.651 230.597ZM206.651 201.216C198.981 201.216 192.612 207.44 192.612 215.11C192.612 222.781 198.836 229.005 206.651 229.005C214.322 229.005 220.545 222.781 220.545 215.11C220.69 207.44 214.322 201.216 206.651 201.216Z" fill="#ECAC1A"/>
<path d="M164.245 141.732C155.706 141.732 148.759 134.785 148.759 126.391C148.759 117.996 155.706 111.049 164.245 111.049C172.784 111.049 179.586 117.996 179.586 126.391C179.586 134.785 172.784 141.732 164.245 141.732ZM164.245 112.352C156.574 112.352 150.206 118.575 150.206 126.246C150.206 133.917 156.429 140.14 164.245 140.14C171.916 140.14 178.139 133.917 178.139 126.246C178.139 118.575 171.916 112.352 164.245 112.352Z" fill="#ECAC1A"/>
<path d="M210.125 149.837C201.586 149.837 194.783 142.89 194.783 134.351C194.783 125.812 201.73 119.009 210.125 119.009C218.664 119.009 225.611 125.956 225.611 134.351C225.611 142.89 218.664 149.837 210.125 149.837ZM210.125 120.457C202.454 120.457 196.231 126.68 196.231 134.351C196.231 142.022 202.454 148.39 210.125 148.39C217.795 148.39 224.164 142.166 224.164 134.351C224.164 126.68 217.795 120.457 210.125 120.457Z" fill="#ECAC1A"/>
<path d="M168.153 189.638C159.614 189.638 152.812 182.691 152.812 174.297C152.812 165.902 159.759 158.955 168.153 158.955C176.692 158.955 183.494 165.902 183.494 174.297C183.494 182.691 176.692 189.638 168.153 189.638ZM168.153 160.258C160.482 160.258 154.259 166.481 154.259 174.152C154.259 181.823 160.482 188.046 168.153 188.046C175.824 188.046 182.047 181.823 182.047 174.152C182.047 166.481 175.824 160.258 168.153 160.258Z" fill="#ECAC1A"/>
<path d="M206.941 108.589C198.402 108.589 191.6 101.642 191.6 93.2475C191.6 84.8531 198.547 77.906 206.941 77.906C215.48 77.906 222.282 84.8531 222.282 93.2475C222.282 101.642 215.48 108.589 206.941 108.589ZM206.941 79.2086C199.27 79.2086 193.047 85.432 193.047 93.1027C193.047 100.773 199.27 106.997 206.941 106.997C214.612 106.997 220.835 100.773 220.835 93.1027C220.835 85.432 214.612 79.2086 206.941 79.2086Z" fill="#ECAC1A"/>
<path d="M252.82 90.2077C244.281 90.2077 237.479 83.2606 237.479 74.7215C237.479 66.1824 244.426 59.3801 252.82 59.3801C261.359 59.3801 268.306 66.3271 268.306 74.7215C268.306 83.2606 261.359 90.2077 252.82 90.2077ZM252.82 60.8274C245.149 60.8274 238.926 67.0508 238.926 74.7215C238.926 82.3923 245.149 88.7604 252.82 88.7604C260.491 88.7604 266.859 82.537 266.859 74.7215C266.859 67.0508 260.491 60.8274 252.82 60.8274Z" fill="#ECAC1A"/>
<path d="M276.845 60.6829C268.306 60.6829 261.504 53.7358 261.504 45.3414C261.504 36.9471 268.451 30 276.845 30C285.384 30 292.187 36.9471 292.187 45.3414C292.187 53.7358 285.24 60.6829 276.845 60.6829ZM276.845 31.3026C269.175 31.3026 262.951 37.526 262.951 45.1967C262.951 52.8674 269.175 59.0909 276.845 59.0909C284.516 59.0909 290.74 52.8674 290.74 45.1967C290.74 37.526 284.516 31.3026 276.845 31.3026Z" fill="#ECAC1A"/>
<path d="M315.054 80.2214C306.515 80.2214 299.713 73.2744 299.713 64.88C299.713 56.3409 306.66 49.3938 315.054 49.3938C323.449 49.3938 330.396 56.3409 330.396 64.88C330.54 73.4191 323.593 80.2214 315.054 80.2214ZM315.054 50.8411C307.384 50.8411 301.16 57.0645 301.16 64.88C301.16 72.5507 307.384 78.7741 315.054 78.7741C322.725 78.7741 328.949 72.5507 328.949 64.88C329.093 57.2093 322.87 50.8411 315.054 50.8411Z" fill="#ECAC1A"/>
<path d="M327.356 124.654C318.817 124.654 312.015 117.707 312.015 109.313C312.015 100.773 318.962 93.8264 327.356 93.8264C335.895 93.8264 342.698 100.773 342.698 109.313C342.842 117.707 335.895 124.654 327.356 124.654ZM327.356 95.2737C319.685 95.2737 313.462 101.497 313.462 109.313C313.462 116.983 319.685 123.207 327.356 123.207C335.027 123.207 341.25 116.983 341.25 109.313C341.395 101.497 335.027 95.2737 327.356 95.2737Z" fill="#ECAC1A"/>
<path d="M361.802 91.8C353.263 91.8 346.461 84.8529 346.461 76.4585C346.461 67.9194 353.408 61.1171 361.802 61.1171C370.341 61.1171 377.289 68.0641 377.289 76.4585C377.289 84.8529 370.341 91.8 361.802 91.8ZM361.802 62.4196C354.132 62.4196 347.908 68.6431 347.908 76.3138C347.908 83.9845 354.132 90.2079 361.802 90.2079C369.473 90.2079 375.841 83.9845 375.841 76.3138C375.841 68.6431 369.618 62.4196 361.802 62.4196Z" fill="#ECAC1A"/>
<path d="M379.171 131.312C370.631 131.312 363.829 124.365 363.829 115.826C363.829 107.286 370.776 100.484 379.171 100.484C387.71 100.484 394.657 107.431 394.657 115.826C394.657 124.365 387.71 131.312 379.171 131.312ZM379.171 101.931C371.5 101.931 365.276 108.155 365.276 115.826C365.276 123.496 371.5 129.864 379.171 129.864C386.841 129.864 393.209 123.641 393.209 115.826C393.209 108.155 386.986 101.931 379.171 101.931Z" fill="#ECAC1A"/>
<path d="M386.841 185.73C378.301 185.73 371.354 178.783 371.354 170.244C371.354 161.705 378.301 154.902 386.841 154.902C395.38 154.902 402.182 161.849 402.182 170.244C402.182 178.783 395.235 185.73 386.841 185.73ZM386.841 156.35C379.17 156.35 372.802 162.573 372.802 170.244C372.802 177.914 379.025 184.283 386.841 184.283C394.511 184.283 400.735 178.059 400.735 170.244C400.735 162.573 394.511 156.35 386.841 156.35Z" fill="#ECAC1A"/>
<path d="M297.977 330.171C296.385 331.04 293.779 331.04 292.043 330.171C290.451 329.158 290.451 327.711 292.043 326.698C293.635 325.829 296.24 325.829 297.977 326.698C299.569 327.711 299.569 329.303 297.977 330.171Z" fill="#2AF6FF"/>
<path d="M319.397 314.974C317.805 315.843 315.199 315.843 313.463 314.974C311.871 313.961 311.871 312.514 313.463 311.501C315.055 310.633 317.66 310.633 319.397 311.501C320.989 312.514 320.989 313.961 319.397 314.974Z" fill="#2AF6FF"/>
<path d="M284.371 290.371V222.926L284.516 222.637L322.725 172.126L322.869 171.981L370.631 148.39L375.551 130.009L376.854 130.443L371.788 149.258L323.593 173.283L285.818 223.36V287.91L301.884 278.213V289.068H300.436V280.674L284.371 290.371Z" fill="url(#paint37_linear_1246_1710)"/>
<path d="M295.082 249.556L294.503 248.254L331.843 229.728L332.422 231.031L295.082 249.556Z" fill="url(#paint38_linear_1246_1710)"/>
<path d="M303.91 290.805C302.318 291.673 299.713 291.673 297.976 290.805C296.384 289.792 296.384 288.344 297.976 287.331C299.568 286.463 302.173 286.463 303.91 287.331C305.647 288.344 305.647 289.936 303.91 290.805Z" fill="#2AF6FF"/>
<path d="M239.795 302.094C238.203 302.962 235.598 302.962 233.861 302.094C232.269 301.08 232.269 299.633 233.861 298.62C235.453 297.752 238.058 297.752 239.795 298.62C241.387 299.633 241.387 301.225 239.795 302.094Z" fill="#2AF6FF"/>
<path d="M261.07 321.922C259.478 322.79 256.873 322.79 255.136 321.922C253.544 320.909 253.544 319.462 255.136 318.448C256.728 317.58 259.334 317.58 261.07 318.448C262.662 319.462 262.662 321.054 261.07 321.922Z" fill="#2AF6FF"/>
<path d="M257.886 337.842H256.438V330.75L271.201 322.211V311.935H272.648V323.079L257.886 331.618V337.842Z" fill="#2AF6FF"/>
<path d="M260.201 340.013C258.609 340.882 256.004 340.882 254.267 340.013C252.675 339 252.675 337.553 254.267 336.54C255.859 335.672 258.464 335.672 260.201 336.54C261.793 337.553 261.793 339.145 260.201 340.013Z" fill="#2AF6FF"/>
<path d="M274.82 316.567C274.82 318.448 273.517 319.172 271.925 318.303C270.333 317.29 269.03 315.119 269.03 313.238C269.03 311.356 270.333 310.633 271.925 311.501C273.517 312.369 274.82 314.685 274.82 316.567Z" fill="#2AF6FF"/>
<path d="M319.397 332.197H317.949V325.974L295.082 312.948V301.804H296.529V312.08L319.397 325.25V332.197Z" fill="#2AF6FF"/>
<path d="M315.633 334.369C317.226 335.237 319.831 335.237 321.567 334.369C323.159 333.356 323.159 331.908 321.567 330.895C319.975 330.027 317.37 330.027 315.633 330.895C314.041 331.908 314.041 333.501 315.633 334.369Z" fill="#2AF6FF"/>
<path d="M292.911 306.436C292.911 308.317 294.214 309.041 295.806 308.172C297.398 307.159 298.7 304.988 298.7 303.107C298.7 301.225 297.398 300.502 295.806 301.37C294.214 302.238 292.911 304.554 292.911 306.436Z" fill="#2AF6FF"/>
<path d="M229.519 330.606H228.071V319.462L254.412 304.265V296.305H255.86V304.989L229.519 320.33V330.606Z" fill="#2AF6FF"/>
<path d="M231.69 332.777C230.097 333.645 227.492 333.645 225.756 332.777C224.164 331.764 224.164 330.316 225.756 329.303C227.348 328.435 229.953 328.435 231.69 329.303C233.282 330.316 233.426 331.908 231.69 332.777Z" fill="#2AF6FF"/>
<path d="M258.03 296.16C258.03 298.041 256.728 298.765 255.136 297.896C253.544 296.883 252.241 294.712 252.241 292.831C252.241 290.949 253.544 290.226 255.136 291.094C256.728 292.107 258.03 294.278 258.03 296.16Z" fill="#2AF6FF"/>
<path d="M258.03 274.74C258.03 276.621 256.728 277.345 255.136 276.476C253.544 275.463 252.241 273.292 252.241 271.411C252.241 269.529 253.544 268.806 255.136 269.674C256.728 270.687 258.03 272.858 258.03 274.74Z" fill="#2AF6FF"/>
<path d="M258.03 233.202C258.03 235.083 256.728 235.807 255.136 234.938C253.544 233.925 252.241 231.754 252.241 229.873C252.241 227.991 253.544 227.268 255.136 228.136C256.728 229.004 258.03 231.32 258.03 233.202Z" fill="#2AF6FF"/>
<path d="M270.188 170.967C270.188 172.849 268.885 173.573 267.293 172.704C265.701 171.691 264.398 169.52 264.398 167.639C264.398 165.757 265.701 165.033 267.293 165.902C268.885 166.915 270.188 169.086 270.188 170.967Z" fill="#2AF6FF"/>
<path d="M296.963 233.636C296.963 235.518 295.66 237.833 294.068 238.702C292.476 239.715 291.174 238.846 291.174 236.965C291.174 235.083 292.476 232.768 294.068 231.899C295.516 231.031 296.963 231.755 296.963 233.636Z" fill="#2AF6FF"/>
<path d="M296.529 248.399C296.529 250.28 295.227 252.596 293.635 253.464C292.043 254.478 290.74 253.609 290.74 251.728C290.74 249.846 292.043 247.531 293.635 246.662C295.227 245.794 296.529 246.662 296.529 248.399Z" fill="#2AF6FF"/>
<path d="M296.427 184.924C297.597 182.923 297.594 180.745 296.421 180.059C295.248 179.373 293.349 180.439 292.179 182.44C291.009 184.442 291.012 186.62 292.185 187.306C293.358 187.992 295.257 186.925 296.427 184.924Z" fill="#2AF6FF"/>
<path d="M283.792 138.548C283.792 140.429 282.49 142.745 280.898 143.613C279.306 144.626 278.003 143.758 278.003 141.876C278.003 139.995 279.306 137.679 280.898 136.811C282.345 135.942 283.792 136.666 283.792 138.548Z" fill="#2AF6FF"/>
<path d="M294.358 184.717L293.2 183.849L314.041 155.771L314.331 155.626L344.435 140.285L358.04 90.7869L359.487 91.2211L345.593 141.298L345.303 141.443L315.055 156.929L294.358 184.717Z" fill="url(#paint39_linear_1246_1710)"/>
<path d="M280.319 141.587L279.161 140.719L301.16 112.207L309.555 78.195L311.002 78.4845L302.463 112.786L302.318 112.93L280.319 141.587Z" fill="url(#paint40_linear_1246_1710)"/>
<path d="M293.055 237.544L291.897 236.675L315.489 205.269L315.633 205.124L373.526 176.178L374.249 177.48L316.502 206.426L293.055 237.544Z" fill="url(#paint41_linear_1246_1710)"/>
<path d="M256.149 272.134H254.702V249.99L247.031 234.07L220.256 222.057L220.835 220.755L248.044 233.057L256.149 249.556V272.134Z" fill="url(#paint42_linear_1246_1710)"/>
<path d="M277.569 59.9595H276.122V120.312H277.569V59.9595Z" fill="url(#paint43_linear_1246_1710)"/>
<path d="M347.33 217.715C346.027 217.715 345.014 218.005 344.29 218.584C343.856 218.873 343.277 219.452 342.988 220.031C342.553 220.755 342.264 221.334 342.264 221.913H349.79L349.5 223.36H342.119C342.119 223.505 342.119 223.649 342.119 223.794C342.119 224.373 342.119 224.662 342.119 224.807H349.211L348.922 226.254H342.409C342.698 227.991 343.422 229.149 344.58 229.873C345.448 230.307 346.316 230.596 347.33 230.596C348.632 230.596 349.79 230.307 350.514 229.583V231.899C349.645 232.333 348.632 232.478 347.474 232.478C344.145 232.478 341.974 231.031 340.817 228.281C340.527 227.702 340.382 226.978 340.238 226.254H338.501L338.79 224.807H339.948C339.948 224.518 339.948 224.228 339.948 223.794C339.948 223.649 339.948 223.505 339.948 223.36H338.501L338.79 221.913H340.093C340.527 219.452 341.685 217.86 343.711 216.702C344.869 216.123 346.172 215.689 347.619 215.689C348.922 215.689 350.079 215.979 351.093 216.557L350.658 218.584C349.5 218.005 348.487 217.715 347.33 217.715Z" fill="#ECAC1A"/>
<path d="M385.539 160.113V162.284H387.71V160.113H389.446V162.428C389.881 162.573 390.315 162.573 390.749 162.863C391.473 163.152 392.051 163.731 392.486 164.31C392.92 165.034 393.065 165.757 393.065 166.481C393.065 167.204 392.92 167.783 392.486 168.362C392.051 168.941 391.617 169.52 390.749 169.81C391.762 170.099 392.486 170.533 393.065 171.257C393.644 171.981 393.788 172.704 393.788 173.717C393.788 174.441 393.643 175.165 393.354 175.888C393.065 176.467 392.63 177.046 392.196 177.336C391.762 177.625 391.183 177.915 390.459 178.204C390.17 178.349 389.881 178.349 389.446 178.349V180.664H387.71V178.493H385.539V180.664H383.802V178.493H381.631V162.428H383.802V160.257H385.539V160.113ZM383.802 169.086H387.275C388.289 169.086 388.867 169.086 389.302 168.941C389.88 168.796 390.315 168.507 390.459 168.073C390.749 167.639 390.894 167.204 390.894 166.626C390.894 166.047 390.749 165.612 390.459 165.178C390.17 164.744 389.88 164.455 389.302 164.31C388.867 164.165 387.999 164.02 386.841 164.02H383.657V169.086H383.802ZM383.802 176.467H387.854C388.578 176.467 389.012 176.467 389.302 176.323C389.736 176.178 390.17 176.033 390.604 175.888C390.894 175.744 391.183 175.454 391.473 175.02C391.617 174.586 391.762 174.152 391.762 173.717C391.762 173.138 391.617 172.56 391.328 172.125C391.038 171.691 390.604 171.402 390.025 171.257C389.446 171.112 388.723 170.967 387.71 170.967H383.947V176.467H383.802Z" fill="#ECAC1A"/>
<path d="M377.868 114.233H381.341V115.825H378.157C378.302 116.115 378.302 116.404 378.302 116.838C378.302 117.417 378.157 118.141 377.868 118.865C377.578 119.588 377 120.312 376.421 121.036C377 120.891 377.578 120.746 378.013 120.746C378.592 120.746 379.315 120.891 380.039 121.036C381.341 121.325 382.21 121.47 382.644 121.47C383.223 121.47 383.947 121.325 384.815 120.891L385.394 122.772C384.67 123.062 384.236 123.207 383.802 123.351C383.368 123.496 383.078 123.496 382.644 123.496C382.355 123.496 382.065 123.496 381.776 123.351C381.631 123.351 381.052 123.207 380.328 122.917C379.605 122.628 379.026 122.483 378.881 122.483C378.592 122.483 378.157 122.338 377.868 122.338C377.289 122.338 376.71 122.483 376.131 122.628C375.552 122.772 374.973 123.062 374.539 123.351L373.815 121.47C374.539 121.036 375.118 120.457 375.552 119.733C375.986 119.009 376.276 118.141 376.276 117.128C376.276 116.694 376.276 116.259 376.131 115.825H373.96V114.233H375.697C375.408 113.365 375.263 112.786 375.263 112.496C375.263 112.062 375.118 111.773 375.118 111.339C375.118 109.747 375.697 108.589 376.855 107.72C377.723 106.997 378.881 106.707 380.184 106.707C381.486 106.707 382.644 107.141 383.512 107.865C384.381 108.589 384.96 109.602 385.104 110.904L383.078 111.194C382.933 110.325 382.644 109.602 382.065 109.168C381.486 108.733 380.907 108.444 380.039 108.444C379.171 108.444 378.592 108.733 378.013 109.168C377.434 109.602 377.144 110.325 377.144 111.049C377.289 111.773 377.434 112.931 377.868 114.233Z" fill="#ECAC1A"/>
<path d="M326.778 119.443V117.417C325.765 117.272 325.041 117.127 324.318 116.693C323.739 116.404 323.16 115.825 322.726 115.101C322.291 114.378 322.002 113.509 322.002 112.496L324.028 112.062C324.173 113.075 324.462 113.943 324.897 114.378C325.475 115.101 326.054 115.535 326.923 115.535V109.167C326.054 109.022 325.331 108.733 324.462 108.154C323.883 107.865 323.305 107.286 323.015 106.707C322.726 106.128 322.436 105.404 322.436 104.536C322.436 103.089 322.87 101.931 323.883 101.062C324.607 100.483 325.476 100.049 326.923 100.049V99.0361H328.081V100.049C329.239 100.194 330.107 100.483 330.831 101.062C331.699 101.786 332.278 102.799 332.423 103.957L330.396 104.246C330.252 103.523 330.107 102.944 329.673 102.51C329.238 102.075 328.804 101.786 328.081 101.641V107.286C329.094 107.575 329.673 107.72 330.107 107.865C330.686 108.154 331.265 108.444 331.554 108.878C331.988 109.312 332.278 109.746 332.423 110.325C332.567 110.904 332.712 111.483 332.712 112.062C332.712 113.364 332.278 114.522 331.409 115.535C330.541 116.404 329.383 116.983 328.081 116.983V119.009H326.778V119.443ZM326.778 102.075C326.054 102.22 325.331 102.51 324.897 102.944C324.462 103.378 324.173 104.102 324.173 104.681C324.173 105.404 324.318 105.983 324.752 106.417C325.186 106.852 325.765 107.286 326.633 107.575V102.075H326.778ZM327.936 115.825C328.66 115.68 329.383 115.391 329.817 114.812C330.252 114.233 330.541 113.509 330.541 112.641C330.541 111.917 330.396 111.338 329.962 110.904C329.673 110.47 328.949 110.036 327.791 109.746V115.825H327.936Z" fill="#ECAC1A"/>
<path d="M313.173 72.8401V69.2218H308.542V67.6298H313.173V66.0377H308.542V64.4457H312.305L307.818 56.6302H309.989L313.173 62.2747C313.463 62.8537 313.752 63.4326 314.042 64.0115C314.186 63.5773 314.476 62.9984 314.91 62.2747L317.95 56.6302H320.265L315.779 64.4457H319.542V66.0377H315.055V67.6298H319.542V69.2218H315.055V72.8401H313.173Z" fill="#ECAC1A"/>
<path d="M165.403 120.167C164.101 120.167 163.088 120.456 162.364 121.035C161.93 121.325 161.351 121.904 161.061 122.483C160.627 123.206 160.338 123.785 160.338 124.364H167.864L167.574 125.811H160.193C160.193 125.956 160.193 126.101 160.193 126.246C160.193 126.825 160.193 127.114 160.193 127.259H167.285L166.995 128.706H160.193C160.482 130.443 161.206 131.601 162.364 132.324C163.232 132.759 164.101 133.048 165.114 133.048C166.416 133.048 167.574 132.759 168.298 132.035V134.351C167.429 134.785 166.416 134.929 165.258 134.929C161.93 134.929 159.759 133.482 158.601 130.732C158.311 130.153 158.167 129.43 158.022 128.706H156.285L156.575 127.259H157.732C157.732 126.969 157.732 126.68 157.732 126.246C157.732 126.101 157.732 125.956 157.732 125.811H156.285L156.575 124.364H157.877C158.311 121.904 159.469 120.312 161.495 119.154C162.653 118.575 163.956 118.141 165.403 118.141C166.706 118.141 167.864 118.43 168.877 119.009L168.443 121.035C167.429 120.601 166.416 120.167 165.403 120.167Z" fill="#ECAC1A"/>
<path d="M275.833 34.7758V36.9467H278.003V34.7758H279.74V37.0915C280.174 37.2362 280.609 37.2362 281.043 37.5256C281.766 37.8151 282.345 38.394 282.78 38.9729C283.214 39.6966 283.359 40.4203 283.359 41.1439C283.359 41.8676 283.214 42.4465 282.78 43.0254C282.345 43.6043 281.911 44.1833 281.043 44.4727C282.056 44.7622 282.78 45.1964 283.359 45.92C283.937 46.6437 284.082 47.3673 284.082 48.3804C284.082 49.1041 283.937 49.8277 283.648 50.5514C283.358 51.1303 282.924 51.7092 282.49 51.9987C282.056 52.2882 281.477 52.5776 280.753 52.8671C280.464 53.0118 280.174 53.0118 279.74 53.0118V55.3275H278.003V53.1566H275.833V55.3275H274.096V53.1566H271.925V36.9467H274.096V34.7758H275.833ZM274.096 43.7491H277.569C278.582 43.7491 279.161 43.7491 279.596 43.6043C280.174 43.4596 280.609 43.1701 280.753 42.7359C281.043 42.3018 281.188 41.8676 281.188 41.2886C281.188 40.7097 281.043 40.2755 280.753 39.8413C280.464 39.4071 280.174 39.1177 279.596 38.9729C279.161 38.8282 278.293 38.6835 277.135 38.6835H273.951V43.7491H274.096ZM274.096 51.1303H278.148C278.872 51.1303 279.306 51.1303 279.596 50.9856C280.03 50.8409 280.464 50.6961 280.898 50.5514C281.188 50.4067 281.477 50.1172 281.766 49.683C281.911 49.2488 282.056 48.8146 282.056 48.3804C282.056 47.8015 281.911 47.2226 281.622 46.7884C281.332 46.3542 280.898 46.0648 280.319 45.92C279.74 45.7753 279.017 45.6306 278.003 45.6306H274.24V51.1303H274.096Z" fill="#ECAC1A"/>
<path d="M205.783 92.2338H209.256V93.8259H206.072C206.217 94.1153 206.217 94.4048 206.217 94.839C206.217 95.4179 206.072 96.1416 205.783 96.8652C205.493 97.5889 204.915 98.3125 204.336 99.0362C204.915 98.8914 205.493 98.7467 205.928 98.7467C206.507 98.7467 207.23 98.8914 207.954 99.0362C209.256 99.3256 210.125 99.4703 210.559 99.4703C211.138 99.4703 211.862 99.3256 212.73 98.8914L213.309 100.773C212.585 101.062 212.151 101.207 211.717 101.352C211.283 101.497 210.993 101.497 210.559 101.497C210.27 101.497 209.98 101.497 209.691 101.352C209.546 101.352 208.967 101.207 208.243 100.918C207.52 100.628 206.941 100.483 206.796 100.483C206.507 100.483 206.072 100.339 205.783 100.339C205.204 100.339 204.625 100.483 204.046 100.628C203.467 100.773 202.888 101.062 202.454 101.352L201.73 99.4703C202.454 99.0362 203.033 98.4572 203.467 97.7336C203.901 97.0099 204.191 96.1415 204.191 95.1284C204.191 94.6942 204.191 94.2601 204.046 93.8259H201.875V92.2338H203.612C203.322 91.3654 203.178 90.7865 203.178 90.4971C203.178 90.0629 203.033 89.7734 203.033 89.3392C203.033 87.7472 203.612 86.5893 204.77 85.7209C205.638 84.9973 206.796 84.7078 208.099 84.7078C209.401 84.7078 210.559 85.142 211.427 85.8657C212.296 86.5893 212.875 87.6024 213.019 88.905L210.993 89.1945C210.848 88.3261 210.559 87.6024 209.98 87.1683C209.401 86.7341 208.822 86.4446 207.954 86.4446C207.085 86.4446 206.507 86.7341 205.928 87.1683C205.349 87.7472 205.059 88.3261 205.059 89.0497C205.204 89.9181 205.349 90.9312 205.783 92.2338Z" fill="#ECAC1A"/>
<path d="M167.719 184.862V182.835C166.706 182.691 165.983 182.546 165.259 182.112C164.68 181.822 164.101 181.243 163.667 180.52C163.233 179.796 162.943 178.928 162.943 177.915L164.97 177.48C165.114 178.493 165.404 179.362 165.838 179.796C166.417 180.52 166.996 180.954 167.864 180.954V174.586C166.996 174.441 166.272 174.152 165.404 173.573C164.825 173.283 164.246 172.704 163.956 172.125C163.667 171.546 163.378 170.823 163.378 169.954C163.378 168.507 163.812 167.349 164.825 166.481C165.549 165.902 166.417 165.468 167.864 165.468V164.455H169.022V165.468C170.18 165.612 171.048 165.902 171.772 166.481C172.64 167.204 173.219 168.218 173.364 169.375L171.338 169.665C171.193 168.941 171.048 168.362 170.614 167.928C170.18 167.494 169.746 167.204 169.022 167.06V172.704C170.035 172.994 170.614 173.138 171.048 173.283C171.627 173.573 172.206 173.862 172.496 174.296C172.93 174.73 173.219 175.165 173.364 175.744C173.509 176.323 173.653 176.901 173.653 177.48C173.653 178.783 173.219 179.941 172.351 180.954C171.482 181.822 170.325 182.401 169.022 182.401V184.427H167.719V184.862ZM167.719 167.494C166.996 167.639 166.272 167.928 165.838 168.362C165.404 168.797 165.114 169.52 165.114 170.099C165.114 170.823 165.259 171.402 165.693 171.836C166.127 172.27 166.706 172.704 167.575 172.994V167.494H167.719ZM168.877 181.243C169.601 181.099 170.325 180.809 170.759 180.23C171.193 179.651 171.482 178.928 171.482 178.059C171.482 177.336 171.338 176.757 170.904 176.323C170.614 175.888 169.89 175.454 168.733 175.165V181.243H168.877Z" fill="#ECAC1A"/>
<path d="M353.698 83.8399V82.2479L361.079 73.7088C360.211 73.7088 359.487 73.7088 358.909 73.7088H354.132V72.1168H363.685V73.4193L357.317 80.8006L356.159 82.1032C357.027 82.1032 357.895 81.9585 358.619 81.9585H363.974V83.6952H353.698V83.8399Z" fill="#ECAC1A"/>
<path d="M366 77.4717L364.553 78.6295V76.8928L366 75.7349V67.63H368.026V73.9982L369.474 72.6956V74.4323L368.026 75.7349V83.6951H366V77.4717Z" fill="#ECAC1A"/>
<path d="M251.374 75.8795V77.4716H257.887V78.9189H251.374V82.9714H249.203V78.9189H248.045V77.4716H249.203V75.8795H248.045V73.9981H249.203V66.9062H254.268C255.716 66.9062 256.873 67.051 257.597 67.3404C258.321 67.6299 258.9 68.2088 259.334 68.9325C259.768 69.6561 260.058 70.5245 260.058 71.3929C260.058 72.2613 259.913 72.9849 259.623 73.5639C259.334 74.1428 258.9 74.577 258.321 75.0112C257.742 75.3006 257.163 75.5901 256.439 75.7348C255.716 75.8795 254.992 75.8795 254.268 75.8795H251.374ZM254.124 73.9981C254.558 73.9981 255.137 73.998 255.571 73.8533C256.005 73.7086 256.439 73.5639 256.729 73.4191C257.018 73.2744 257.308 72.9849 257.597 72.5507C257.742 72.2613 257.887 71.6824 257.887 71.2482C257.887 70.814 257.742 70.3798 257.597 70.0903C257.452 69.8009 257.163 69.5114 256.873 69.2219C256.584 69.0772 256.15 68.9325 255.716 68.7877C255.281 68.643 254.847 68.643 254.413 68.643H251.374V73.9981H254.124Z" fill="#ECAC1A"/>
<path d="M216.493 137.824H207.085C207.085 138.114 206.941 138.403 206.941 138.693C206.941 139.561 207.23 140.285 207.664 140.864C208.243 141.587 209.111 141.877 210.125 141.877C211.138 141.877 212.006 141.587 212.585 140.864C213.019 140.285 213.453 139.706 213.453 138.837L215.48 139.272C215.335 140.574 214.756 141.587 213.888 142.456C212.874 143.179 211.717 143.614 210.125 143.614C209.401 143.614 208.677 143.469 207.809 143.179C207.085 142.89 206.506 142.6 206.072 142.022C205.204 141.153 204.77 139.995 204.77 138.548C204.77 138.258 204.77 138.114 204.77 137.824H204.046V135.943H205.493C205.927 135.364 206.651 134.785 207.519 134.351C207.664 134.206 208.388 134.061 209.835 133.627H204.191V131.746H213.019C213.164 131.456 213.164 131.022 213.164 130.588C213.164 129.864 212.874 129.285 212.44 128.851C211.861 128.272 211.138 127.983 210.125 127.983C209.111 127.983 208.388 128.272 207.954 128.706C207.519 129.14 207.375 129.719 207.23 130.443L205.204 130.154C205.349 128.851 205.927 127.983 206.796 127.259C207.664 126.535 208.677 126.246 209.98 126.246C211.572 126.246 212.874 126.535 213.743 127.259C214.756 128.127 215.19 129.285 215.19 130.733C215.19 131.022 215.19 131.311 215.045 131.746H216.348V133.627H214.177C213.888 133.917 213.598 134.206 213.164 134.351C212.585 134.64 211.427 135.074 209.546 135.509C209.401 135.509 209.112 135.653 208.967 135.653H216.493V137.824Z" fill="#ECAC1A"/>
<path d="M199.704 223.36V207.295H201.73V216.558L206.362 211.782H208.967L204.48 216.124L209.401 223.505H206.941L203.033 217.571L201.586 218.873V223.505H199.704V223.36Z" fill="#ECAC1A"/>
<path d="M210.993 223.36V211.637H212.73V213.373C213.164 212.505 213.598 211.926 214.033 211.781C214.467 211.492 214.901 211.347 215.335 211.347C216.059 211.347 216.638 211.492 217.361 211.926L216.638 213.808C216.203 213.518 215.625 213.373 215.19 213.373C214.756 213.373 214.322 213.518 214.033 213.808C213.743 214.097 213.454 214.387 213.309 214.821C213.019 215.544 213.019 216.268 213.019 217.136V223.215H210.993V223.36Z" fill="#ECAC1A"/>
<defs>
<linearGradient id="paint0_linear_1246_1710" x1="271" y1="0" x2="271" y2="529" gradientUnits="userSpaceOnUse">
<stop stop-color="#ECAC1A"/>
<stop offset="1" stop-color="#FFE864"/>
</linearGradient>
<linearGradient id="paint1_linear_1246_1710" x1="366.669" y1="353.262" x2="300.334" y2="370.389" gradientUnits="userSpaceOnUse">
<stop stop-color="#00F981"/>
<stop offset="1" stop-color="#0056FB"/>
</linearGradient>
<linearGradient id="paint2_linear_1246_1710" x1="356.538" y1="380.761" x2="290.203" y2="397.888" gradientUnits="userSpaceOnUse">
<stop stop-color="#00F981"/>
<stop offset="1" stop-color="#0056FB"/>
</linearGradient>
<linearGradient id="paint3_linear_1246_1710" x1="208.128" y1="344.721" x2="245.758" y2="370.049" gradientUnits="userSpaceOnUse">
<stop offset="0.0151515" stop-color="#FFA98C"/>
<stop offset="0.0748261" stop-color="#C46AA7"/>
<stop offset="0.1334" stop-color="#9033C0"/>
<stop offset="0.1616" stop-color="#7C1DC9"/>
<stop offset="0.3203" stop-color="#6E41D2"/>
<stop offset="0.67" stop-color="#4C9BE8"/>
<stop offset="1" stop-color="#2AF6FF"/>
</linearGradient>
<linearGradient id="paint4_linear_1246_1710" x1="208.309" y1="371.858" x2="245.939" y2="397.186" gradientUnits="userSpaceOnUse">
<stop offset="0.0151515" stop-color="#FFA98C"/>
<stop offset="0.0748261" stop-color="#C46AA7"/>
<stop offset="0.1334" stop-color="#9033C0"/>
<stop offset="0.1616" stop-color="#7C1DC9"/>
<stop offset="0.3203" stop-color="#6E41D2"/>
<stop offset="0.67" stop-color="#4C9BE8"/>
<stop offset="1" stop-color="#2AF6FF"/>
</linearGradient>
<linearGradient id="paint5_linear_1246_1710" x1="303.918" y1="456.181" x2="481.996" y2="402.858" gradientUnits="userSpaceOnUse">
<stop stop-color="#25054D"/>
<stop offset="1" stop-color="#45108A"/>
</linearGradient>
<linearGradient id="paint6_linear_1246_1710" x1="119.999" y1="477.764" x2="354.198" y2="425.265" gradientUnits="userSpaceOnUse">
<stop stop-color="#25054D"/>
<stop offset="1" stop-color="#45108A"/>
</linearGradient>
<linearGradient id="paint7_linear_1246_1710" x1="349.409" y1="281.494" x2="256.529" y2="458.503" gradientUnits="userSpaceOnUse">
<stop offset="0.7374" stop-color="#45108A"/>
<stop offset="1" stop-color="#3746A3"/>
</linearGradient>
<linearGradient id="paint8_linear_1246_1710" x1="262.359" y1="453.138" x2="428.68" y2="403.336" gradientUnits="userSpaceOnUse">
<stop offset="0.030303" stop-color="#7C1DC9"/>
<stop offset="0.2138" stop-color="#6E41D2"/>
<stop offset="0.6184" stop-color="#4C9BE8"/>
<stop offset="1" stop-color="#2AF6FF"/>
</linearGradient>
<linearGradient id="paint9_linear_1246_1710" x1="130.489" y1="461.467" x2="349.234" y2="412.431" gradientUnits="userSpaceOnUse">
<stop offset="0.0353535" stop-color="#138BBD"/>
<stop offset="0.2257" stop-color="#169AC7"/>
<stop offset="0.5946" stop-color="#1FC3DF"/>
<stop offset="1" stop-color="#2AF6FF"/>
</linearGradient>
<linearGradient id="paint10_linear_1246_1710" x1="303.619" y1="433.288" x2="485.632" y2="378.787" gradientUnits="userSpaceOnUse">
<stop stop-color="#25054D"/>
<stop offset="1" stop-color="#45108A"/>
</linearGradient>
<linearGradient id="paint11_linear_1246_1710" x1="117.448" y1="455.353" x2="356.863" y2="401.684" gradientUnits="userSpaceOnUse">
<stop stop-color="#25054D"/>
<stop offset="1" stop-color="#45108A"/>
</linearGradient>
<linearGradient id="paint12_linear_1246_1710" x1="349.409" y1="254.78" x2="256.529" y2="431.789" gradientUnits="userSpaceOnUse">
<stop offset="0.7374" stop-color="#45108A"/>
<stop offset="1" stop-color="#3746A3"/>
</linearGradient>
<linearGradient id="paint13_linear_1246_1710" x1="262.359" y1="426.523" x2="428.68" y2="376.721" gradientUnits="userSpaceOnUse">
<stop offset="0.030303" stop-color="#7C1DC9"/>
<stop offset="0.2138" stop-color="#6E41D2"/>
<stop offset="0.6184" stop-color="#4C9BE8"/>
<stop offset="1" stop-color="#2AF6FF"/>
</linearGradient>
<linearGradient id="paint14_linear_1246_1710" x1="130.489" y1="434.851" x2="349.234" y2="385.816" gradientUnits="userSpaceOnUse">
<stop offset="0.0353535" stop-color="#138BBD"/>
<stop offset="0.2257" stop-color="#169AC7"/>
<stop offset="0.5946" stop-color="#1FC3DF"/>
<stop offset="1" stop-color="#2AF6FF"/>
</linearGradient>
<linearGradient id="paint15_linear_1246_1710" x1="303.32" y1="403.031" x2="489.268" y2="347.352" gradientUnits="userSpaceOnUse">
<stop stop-color="#25054D"/>
<stop offset="1" stop-color="#45108A"/>
</linearGradient>
<linearGradient id="paint16_linear_1246_1710" x1="114.896" y1="425.58" x2="359.528" y2="370.741" gradientUnits="userSpaceOnUse">
<stop stop-color="#25054D"/>
<stop offset="1" stop-color="#45108A"/>
</linearGradient>
<linearGradient id="paint17_linear_1246_1710" x1="349.409" y1="220.703" x2="256.529" y2="397.712" gradientUnits="userSpaceOnUse">
<stop offset="0.7374" stop-color="#45108A"/>
<stop offset="1" stop-color="#3746A3"/>
</linearGradient>
<linearGradient id="paint18_linear_1246_1710" x1="262.359" y1="392.049" x2="428.68" y2="342.247" gradientUnits="userSpaceOnUse">
<stop offset="0.030303" stop-color="#7C1DC9"/>
<stop offset="0.2138" stop-color="#6E41D2"/>
<stop offset="0.6184" stop-color="#4C9BE8"/>
<stop offset="1" stop-color="#2AF6FF"/>
</linearGradient>
<linearGradient id="paint19_linear_1246_1710" x1="130.489" y1="400.377" x2="349.234" y2="351.341" gradientUnits="userSpaceOnUse">
<stop offset="0.0353535" stop-color="#138BBD"/>
<stop offset="0.2257" stop-color="#169AC7"/>
<stop offset="0.5946" stop-color="#1FC3DF"/>
<stop offset="1" stop-color="#2AF6FF"/>
</linearGradient>
<linearGradient id="paint20_linear_1246_1710" x1="302.961" y1="363.696" x2="493.631" y2="306.603" gradientUnits="userSpaceOnUse">
<stop stop-color="#25054D"/>
<stop offset="1" stop-color="#45108A"/>
</linearGradient>
<linearGradient id="paint21_linear_1246_1710" x1="111.834" y1="386.823" x2="362.725" y2="330.582" gradientUnits="userSpaceOnUse">
<stop stop-color="#25054D"/>
<stop offset="1" stop-color="#45108A"/>
</linearGradient>
<linearGradient id="paint22_linear_1246_1710" x1="312.709" y1="246.725" x2="240.561" y2="384.223" gradientUnits="userSpaceOnUse">
<stop offset="0.1364" stop-color="#45108A"/>
<stop offset="1" stop-color="#3746A3"/>
</linearGradient>
<linearGradient id="paint23_linear_1246_1710" x1="302.772" y1="497.596" x2="294.088" y2="363.721" gradientUnits="userSpaceOnUse">
<stop offset="0.0151515" stop-color="#FFA98C"/>
<stop offset="0.0748261" stop-color="#C46AA7"/>
<stop offset="0.1334" stop-color="#9033C0"/>
<stop offset="0.1616" stop-color="#7C1DC9"/>
<stop offset="0.3203" stop-color="#6E41D2"/>
<stop offset="0.67" stop-color="#4C9BE8"/>
<stop offset="1" stop-color="#2AF6FF"/>
</linearGradient>
<linearGradient id="paint24_linear_1246_1710" x1="347.384" y1="496.952" x2="306.32" y2="399.89" gradientUnits="userSpaceOnUse">
<stop offset="0.0151515" stop-color="#FFA98C"/>
<stop offset="0.0748261" stop-color="#C46AA7"/>
<stop offset="0.1334" stop-color="#9033C0"/>
<stop offset="0.1616" stop-color="#7C1DC9"/>
<stop offset="0.3203" stop-color="#6E41D2"/>
<stop offset="0.67" stop-color="#4C9BE8"/>
<stop offset="1" stop-color="#2AF6FF"/>
</linearGradient>
<linearGradient id="paint25_linear_1246_1710" x1="150.329" y1="443.307" x2="231.137" y2="373.837" gradientUnits="userSpaceOnUse">
<stop offset="0.0151515" stop-color="#FFA98C"/>
<stop offset="0.0748261" stop-color="#C46AA7"/>
<stop offset="0.1334" stop-color="#9033C0"/>
<stop offset="0.1616" stop-color="#7C1DC9"/>
<stop offset="0.3203" stop-color="#6E41D2"/>
<stop offset="0.67" stop-color="#4C9BE8"/>
<stop offset="1" stop-color="#2AF6FF"/>
</linearGradient>
<linearGradient id="paint26_linear_1246_1710" x1="178.995" y1="476.446" x2="243.727" y2="419.083" gradientUnits="userSpaceOnUse">
<stop offset="0.0151515" stop-color="#FFA98C"/>
<stop offset="0.0748261" stop-color="#C46AA7"/>
<stop offset="0.1334" stop-color="#9033C0"/>
<stop offset="0.1616" stop-color="#7C1DC9"/>
<stop offset="0.3203" stop-color="#6E41D2"/>
<stop offset="0.67" stop-color="#4C9BE8"/>
<stop offset="1" stop-color="#2AF6FF"/>
</linearGradient>
<linearGradient id="paint27_linear_1246_1710" x1="255.748" y1="486.842" x2="263.137" y2="382.701" gradientUnits="userSpaceOnUse">
<stop offset="0.0151515" stop-color="#FFA98C"/>
<stop offset="0.0748261" stop-color="#C46AA7"/>
<stop offset="0.1334" stop-color="#9033C0"/>
<stop offset="0.1616" stop-color="#7C1DC9"/>
<stop offset="0.3203" stop-color="#6E41D2"/>
<stop offset="0.67" stop-color="#4C9BE8"/>
<stop offset="1" stop-color="#2AF6FF"/>
</linearGradient>
<linearGradient id="paint28_linear_1246_1710" x1="205.285" y1="499.891" x2="253.769" y2="440.793" gradientUnits="userSpaceOnUse">
<stop offset="0.0151515" stop-color="#FFA98C"/>
<stop offset="0.0748261" stop-color="#C46AA7"/>
<stop offset="0.1334" stop-color="#9033C0"/>
<stop offset="0.1616" stop-color="#7C1DC9"/>
<stop offset="0.3203" stop-color="#6E41D2"/>
<stop offset="0.67" stop-color="#4C9BE8"/>
<stop offset="1" stop-color="#2AF6FF"/>
</linearGradient>
<linearGradient id="paint29_linear_1246_1710" x1="391.503" y1="433.355" x2="323.962" y2="366.538" gradientUnits="userSpaceOnUse">
<stop offset="0.0151515" stop-color="#FFA98C"/>
<stop offset="0.0748261" stop-color="#C46AA7"/>
<stop offset="0.1334" stop-color="#9033C0"/>
<stop offset="0.1616" stop-color="#7C1DC9"/>
<stop offset="0.3203" stop-color="#6E41D2"/>
<stop offset="0.67" stop-color="#4C9BE8"/>
<stop offset="1" stop-color="#2AF6FF"/>
</linearGradient>
<linearGradient id="paint30_linear_1246_1710" x1="374.728" y1="464.226" x2="333.481" y2="418.085" gradientUnits="userSpaceOnUse">
<stop offset="0.0151515" stop-color="#FFA98C"/>
<stop offset="0.0748261" stop-color="#C46AA7"/>
<stop offset="0.1334" stop-color="#9033C0"/>
<stop offset="0.1616" stop-color="#7C1DC9"/>
<stop offset="0.3203" stop-color="#6E41D2"/>
<stop offset="0.67" stop-color="#4C9BE8"/>
<stop offset="1" stop-color="#2AF6FF"/>
</linearGradient>
<linearGradient id="paint31_linear_1246_1710" x1="250.491" y1="91.0465" x2="292.825" y2="327.319" gradientUnits="userSpaceOnUse">
<stop offset="0.0151515" stop-color="#FFA98C"/>
<stop offset="0.0748261" stop-color="#C46AA7"/>
<stop offset="0.1334" stop-color="#9033C0"/>
<stop offset="0.1616" stop-color="#7C1DC9"/>
<stop offset="0.3203" stop-color="#6E41D2"/>
<stop offset="0.67" stop-color="#4C9BE8"/>
<stop offset="1" stop-color="#2AF6FF"/>
</linearGradient>
<linearGradient id="paint32_linear_1246_1710" x1="302.205" y1="121.524" x2="296.416" y2="312.569" gradientUnits="userSpaceOnUse">
<stop offset="0.0151515" stop-color="#FFA98C"/>
<stop offset="0.0748261" stop-color="#C46AA7"/>
<stop offset="0.1334" stop-color="#9033C0"/>
<stop offset="0.1616" stop-color="#7C1DC9"/>
<stop offset="0.3203" stop-color="#6E41D2"/>
<stop offset="0.67" stop-color="#4C9BE8"/>
<stop offset="1" stop-color="#2AF6FF"/>
</linearGradient>
<linearGradient id="paint33_linear_1246_1710" x1="199.231" y1="128.209" x2="261.466" y2="291.755" gradientUnits="userSpaceOnUse">
<stop offset="0.0151515" stop-color="#FFA98C"/>
<stop offset="0.0748261" stop-color="#C46AA7"/>
<stop offset="0.1334" stop-color="#9033C0"/>
<stop offset="0.1616" stop-color="#7C1DC9"/>
<stop offset="0.3203" stop-color="#6E41D2"/>
<stop offset="0.67" stop-color="#4C9BE8"/>
<stop offset="1" stop-color="#2AF6FF"/>
</linearGradient>
<linearGradient id="paint34_linear_1246_1710" x1="186.756" y1="174.294" x2="259.062" y2="226.355" gradientUnits="userSpaceOnUse">
<stop offset="0.0151515" stop-color="#FFA98C"/>
<stop offset="0.0748261" stop-color="#C46AA7"/>
<stop offset="0.1334" stop-color="#9033C0"/>
<stop offset="0.1616" stop-color="#7C1DC9"/>
<stop offset="0.3203" stop-color="#6E41D2"/>
<stop offset="0.67" stop-color="#4C9BE8"/>
<stop offset="1" stop-color="#2AF6FF"/>
</linearGradient>
<linearGradient id="paint35_linear_1246_1710" x1="237.529" y1="143.09" x2="277.33" y2="314.234" gradientUnits="userSpaceOnUse">
<stop offset="0.0151515" stop-color="#FFA98C"/>
<stop offset="0.0748261" stop-color="#C46AA7"/>
<stop offset="0.1334" stop-color="#9033C0"/>
<stop offset="0.1616" stop-color="#7C1DC9"/>
<stop offset="0.3203" stop-color="#6E41D2"/>
<stop offset="0.67" stop-color="#4C9BE8"/>
<stop offset="1" stop-color="#2AF6FF"/>
</linearGradient>
<linearGradient id="paint36_linear_1246_1710" x1="215.893" y1="138.077" x2="268.678" y2="138.077" gradientUnits="userSpaceOnUse">
<stop offset="0.0151515" stop-color="#FFA98C"/>
<stop offset="0.0748261" stop-color="#C46AA7"/>
<stop offset="0.1334" stop-color="#9033C0"/>
<stop offset="0.1616" stop-color="#7C1DC9"/>
<stop offset="0.3203" stop-color="#6E41D2"/>
<stop offset="0.67" stop-color="#4C9BE8"/>
<stop offset="1" stop-color="#2AF6FF"/>
</linearGradient>
<linearGradient id="paint37_linear_1246_1710" x1="358.75" y1="122.3" x2="283.49" y2="278.971" gradientUnits="userSpaceOnUse">
<stop offset="0.0151515" stop-color="#FFA98C"/>
<stop offset="0.0748261" stop-color="#C46AA7"/>
<stop offset="0.1334" stop-color="#9033C0"/>
<stop offset="0.1616" stop-color="#7C1DC9"/>
<stop offset="0.3203" stop-color="#6E41D2"/>
<stop offset="0.67" stop-color="#4C9BE8"/>
<stop offset="1" stop-color="#2AF6FF"/>
</linearGradient>
<linearGradient id="paint38_linear_1246_1710" x1="332.22" y1="230.304" x2="294.59" y2="249.119" gradientUnits="userSpaceOnUse">
<stop offset="0.0151515" stop-color="#FFA98C"/>
<stop offset="0.0748261" stop-color="#C46AA7"/>
<stop offset="0.1334" stop-color="#9033C0"/>
<stop offset="0.1616" stop-color="#7C1DC9"/>
<stop offset="0.3203" stop-color="#6E41D2"/>
<stop offset="0.67" stop-color="#4C9BE8"/>
<stop offset="1" stop-color="#2AF6FF"/>
</linearGradient>
<linearGradient id="paint39_linear_1246_1710" x1="365.193" y1="95.0631" x2="301.149" y2="189.5" gradientUnits="userSpaceOnUse">
<stop offset="0.0151515" stop-color="#FFA98C"/>
<stop offset="0.0748261" stop-color="#C46AA7"/>
<stop offset="0.1334" stop-color="#9033C0"/>
<stop offset="0.1616" stop-color="#7C1DC9"/>
<stop offset="0.3203" stop-color="#6E41D2"/>
<stop offset="0.67" stop-color="#4C9BE8"/>
<stop offset="1" stop-color="#2AF6FF"/>
</linearGradient>
<linearGradient id="paint40_linear_1246_1710" x1="313.596" y1="80.6041" x2="282.479" y2="141.753" gradientUnits="userSpaceOnUse">
<stop offset="0.0151515" stop-color="#FFA98C"/>
<stop offset="0.0748261" stop-color="#C46AA7"/>
<stop offset="0.1334" stop-color="#9033C0"/>
<stop offset="0.1616" stop-color="#7C1DC9"/>
<stop offset="0.3203" stop-color="#6E41D2"/>
<stop offset="0.67" stop-color="#4C9BE8"/>
<stop offset="1" stop-color="#2AF6FF"/>
</linearGradient>
<linearGradient id="paint41_linear_1246_1710" x1="371.135" y1="172.227" x2="289.845" y2="232.049" gradientUnits="userSpaceOnUse">
<stop stop-color="#00F981"/>
<stop offset="1" stop-color="#0056FB"/>
</linearGradient>
<linearGradient id="paint42_linear_1246_1710" x1="226.267" y1="216.293" x2="261.365" y2="266.948" gradientUnits="userSpaceOnUse">
<stop offset="0.0151515" stop-color="#FFA98C"/>
<stop offset="0.0748261" stop-color="#C46AA7"/>
<stop offset="0.1334" stop-color="#9033C0"/>
<stop offset="0.1616" stop-color="#7C1DC9"/>
<stop offset="0.3203" stop-color="#6E41D2"/>
<stop offset="0.67" stop-color="#4C9BE8"/>
<stop offset="1" stop-color="#2AF6FF"/>
</linearGradient>
<linearGradient id="paint43_linear_1246_1710" x1="276.785" y1="59.4868" x2="276.785" y2="122.932" gradientUnits="userSpaceOnUse">
<stop offset="0.0151515" stop-color="#FFA98C"/>
<stop offset="0.0748261" stop-color="#C46AA7"/>
<stop offset="0.1334" stop-color="#9033C0"/>
<stop offset="0.1616" stop-color="#7C1DC9"/>
<stop offset="0.3203" stop-color="#6E41D2"/>
<stop offset="0.67" stop-color="#4C9BE8"/>
<stop offset="1" stop-color="#2AF6FF"/>
</linearGradient>
</defs>
</svg>
