<svg width="56" height="56" viewBox="0 0 56 56" fill="none" xmlns="http://www.w3.org/2000/svg">
<g clip-path="url(#clip0_1_4108)">
<path d="M28 56C43.464 56 56 43.464 56 28C56 12.536 43.464 0 28 0C12.536 0 0 12.536 0 28C0 43.464 12.536 56 28 56Z" fill="#FF1280"/>
<g filter="url(#filter0_d_1_4108)">
<path d="M27.5188 10.6052C28.357 10.173 29.3808 11.1722 28.9363 11.9965C28.6755 12.6685 27.6938 12.847 27.1932 12.3342C26.663 11.8442 26.8363 10.8712 27.5188 10.6035V10.6052ZM18.4975 11.5607C19.0068 11.3542 19.6525 11.8127 19.6 12.3605C19.6525 12.952 18.9175 13.3895 18.3977 13.1077C17.71 12.8452 17.7887 11.7462 18.4975 11.5607ZM36.974 13.1235C36.1778 13.029 36.0518 11.797 36.8165 11.5485C37.4115 11.265 37.9575 11.7987 38.045 12.3535C37.919 12.826 37.5165 13.26 36.974 13.1235ZM20.5503 15.3372C21.4025 14.807 22.617 15.5962 22.4858 16.571C22.442 17.5527 21.1155 18.1232 20.3665 17.4582C19.642 16.9367 19.7523 15.7397 20.5503 15.3372ZM33.5528 15.9007C33.9325 14.9382 35.4725 14.9067 35.9048 15.8447C36.3335 16.5745 35.8067 17.4792 35.0455 17.7277C34.0357 17.9132 33.0785 16.8387 33.5528 15.9007ZM26.432 17.6735C26.4233 16.844 27.1898 16.228 27.9895 16.1702C28.5215 16.2752 29.099 16.4975 29.3265 17.0242C29.7517 17.7522 29.3738 18.7515 28.609 19.0857C28.259 19.2782 27.8425 19.2065 27.461 19.1837C26.8783 18.9037 26.3865 18.349 26.432 17.6735ZM13.0165 18.881C13.7953 18.4085 14.8453 19.266 14.5495 20.099C14.3885 20.8182 13.405 21.1105 12.8433 20.652C12.243 20.2215 12.3375 19.1872 13.0183 18.8792L13.0165 18.881ZM41.825 18.8775C42.4847 18.3735 43.575 18.9527 43.4945 19.7717C43.54 20.519 42.5967 21.0842 41.9422 20.6992C41.2212 20.379 41.146 19.287 41.825 18.8792V18.8775ZM30.205 20.3667C31.2935 19.9817 32.5885 20.442 33.208 21.3992C34.027 22.5665 33.593 24.3445 32.3208 25.0147C31.0048 25.8075 29.0815 25.1372 28.5933 23.6882C28.042 22.3932 28.847 20.7727 30.2033 20.3667H30.205ZM23.8123 20.4945C25.0198 19.9345 26.6455 20.4035 27.2283 21.618C27.9143 22.801 27.384 24.4477 26.1572 25.0585C24.9287 25.7462 23.1945 25.2247 22.6013 23.956C21.9345 22.7275 22.526 21.0597 23.8123 20.4945ZM17.4125 22.6452C17.5052 21.8805 18.2385 21.3817 18.9788 21.3292C19.3648 21.37 19.7256 21.5406 20.0022 21.813C20.2787 22.0854 20.4547 22.4436 20.5013 22.829C20.4488 23.6165 19.831 24.383 18.984 24.3795C18.0512 24.4582 17.234 23.5447 17.4125 22.6452ZM36.316 21.4972C37.2733 20.9495 38.6015 21.7457 38.5595 22.8272C38.6243 23.9735 37.1543 24.7802 36.2023 24.1082C35.2118 23.5482 35.2888 21.9732 36.316 21.4972ZM21.2135 25.5345C22.33 25.2317 23.611 25.7497 24.1588 26.7612C24.759 27.7797 24.514 29.1938 23.5813 29.9427C22.3825 31.0382 20.1758 30.5972 19.5388 29.1027C18.8055 27.7325 19.6963 25.895 21.2118 25.5327L21.2135 25.5345ZM33.3358 25.5292C34.4225 25.223 35.7 25.6342 36.2845 26.609C37.058 27.7237 36.6888 29.388 35.539 30.1055C34.3315 30.9402 32.466 30.5027 31.801 29.1972C30.996 27.848 31.8062 25.9405 33.3358 25.5292ZM14.0157 26.7997C14.9818 26.441 16.0528 27.4892 15.6608 28.4325C15.4228 29.29 14.1925 29.6085 13.5573 28.975C12.8135 28.38 13.0883 27.0587 14.0157 26.7997ZM40.2115 28.1682C40.1934 27.783 40.3281 27.4062 40.5863 27.1198C40.8446 26.8333 41.2055 26.6605 41.5905 26.6387C42.252 26.7437 42.896 27.2687 42.8435 27.9775C42.9048 28.9137 41.7585 29.549 40.9465 29.1098C40.5668 28.919 40.3725 28.5357 40.2115 28.1682ZM9.2645 27.2652C9.8455 27.015 10.5648 27.5102 10.4318 28.1455C10.4003 28.8647 9.3205 29.143 8.925 28.541C8.575 28.1227 8.785 27.4805 9.2645 27.2635V27.2652ZM45.9253 27.2495C46.3348 26.9642 46.9927 27.169 47.1538 27.6397C47.4285 28.1542 46.9245 28.8577 46.3365 28.772C45.5105 28.8455 45.2445 27.6082 45.9253 27.2495ZM24.3705 30.7022C25.9 30.312 27.545 31.5667 27.5555 33.1172C27.6535 34.6835 26.033 36.0712 24.4685 35.7107C23.2575 35.5182 22.3073 34.3702 22.3475 33.168C22.344 32.0165 23.226 30.9455 24.3705 30.7022ZM30.429 30.7005C31.9813 30.2735 33.6753 31.551 33.6508 33.1365C33.733 34.673 32.1632 36.0152 30.6303 35.709C29.1865 35.527 28.1225 33.9677 28.525 32.5887C28.728 31.6717 29.5085 30.9262 30.429 30.6987V30.7005ZM18.746 31.6542C19.8205 31.474 20.8285 32.6517 20.3927 33.6562C20.0743 34.7272 18.4923 35.016 17.7922 34.1427C16.9733 33.3027 17.5858 31.7697 18.746 31.6542ZM36.5155 31.7015C37.4745 31.306 38.6505 32.1215 38.577 33.1453C38.6155 34.2705 37.163 35.0475 36.2268 34.3895C35.1645 33.7997 35.3587 32.062 36.5155 31.7015ZM41.482 36.6015C41.1075 35.9137 41.7882 35.002 42.567 35.1297C42.952 35.1227 43.2233 35.422 43.47 35.674C43.5208 36.0817 43.6065 36.5683 43.2618 36.8815C42.7945 37.4643 41.7358 37.298 41.482 36.6015ZM13.013 35.3205C13.7393 34.8463 14.784 35.555 14.6195 36.388C14.532 37.1282 13.587 37.55 12.9658 37.13C12.2973 36.7502 12.3218 35.667 13.013 35.3205ZM27.3507 36.8657C28.301 36.4545 29.512 37.2682 29.421 38.2973C29.491 39.4347 27.9947 40.2222 27.0655 39.5398C26.033 38.9535 26.2062 37.228 27.3507 36.8657ZM20.7113 38.39C21.5198 37.9718 22.6048 38.6945 22.5312 39.587C22.5558 40.3185 21.8313 40.9415 21.0963 40.833C20.489 40.8208 20.0935 40.2835 19.8975 39.7743C19.908 39.2195 20.1408 38.6017 20.7113 38.3917V38.39ZM34.1618 38.404C34.9948 37.8965 36.1778 38.6245 36.099 39.5765C36.12 40.574 34.783 41.211 34.0078 40.5565C33.2588 40.0437 33.3498 38.8117 34.1618 38.404ZM36.5015 44.0915C36.1305 43.542 36.5663 42.8787 37.1665 42.7528C37.6513 42.849 38.164 43.2078 38.0608 43.7573C37.9908 44.5045 36.8813 44.732 36.5015 44.0933V44.0915ZM17.9323 43.6138C18.0793 43.1763 18.4362 42.744 18.9595 42.8577C19.7207 42.9103 19.9465 44.0408 19.2798 44.389C18.6813 44.7863 17.9847 44.242 17.9323 43.6138ZM26.8923 44.116C27.0375 43.4685 27.8862 43.1553 28.4462 43.4983C28.8172 43.6558 28.9258 44.0617 29.0203 44.4082C28.9703 44.5882 28.9236 44.7691 28.8803 44.9508C28.651 45.2168 28.3552 45.4845 27.9737 45.4757C27.265 45.558 26.6245 44.7687 26.8905 44.116H26.8923Z" fill="black"/>
</g>
<path d="M27.5188 10.6052C28.357 10.173 29.3808 11.1722 28.9363 11.9965C28.6755 12.6685 27.6938 12.847 27.1932 12.3342C26.663 11.8442 26.8363 10.8712 27.5188 10.6035V10.6052ZM18.4975 11.5607C19.0068 11.3542 19.6525 11.8127 19.6 12.3605C19.6525 12.952 18.9175 13.3895 18.3977 13.1077C17.71 12.8452 17.7887 11.7462 18.4975 11.5607ZM36.974 13.1235C36.1778 13.029 36.0518 11.797 36.8165 11.5485C37.4115 11.265 37.9575 11.7987 38.045 12.3535C37.919 12.826 37.5165 13.26 36.974 13.1235ZM20.5503 15.3372C21.4025 14.807 22.617 15.5962 22.4858 16.571C22.442 17.5527 21.1155 18.1232 20.3665 17.4582C19.642 16.9367 19.7523 15.7397 20.5503 15.3372ZM33.5528 15.9007C33.9325 14.9382 35.4725 14.9067 35.9048 15.8447C36.3335 16.5745 35.8067 17.4792 35.0455 17.7277C34.0357 17.9132 33.0785 16.8387 33.5528 15.9007ZM26.432 17.6735C26.4233 16.844 27.1898 16.228 27.9895 16.1702C28.5215 16.2752 29.099 16.4975 29.3265 17.0242C29.7517 17.7522 29.3738 18.7515 28.609 19.0857C28.259 19.2782 27.8425 19.2065 27.461 19.1837C26.8783 18.9037 26.3865 18.349 26.432 17.6735ZM13.0165 18.881C13.7953 18.4085 14.8453 19.266 14.5495 20.099C14.3885 20.8182 13.405 21.1105 12.8433 20.652C12.243 20.2215 12.3375 19.1872 13.0183 18.8792L13.0165 18.881ZM41.825 18.8775C42.4847 18.3735 43.575 18.9527 43.4945 19.7717C43.54 20.519 42.5967 21.0842 41.9422 20.6992C41.2212 20.379 41.146 19.287 41.825 18.8792V18.8775ZM30.205 20.3667C31.2935 19.9817 32.5885 20.442 33.208 21.3992C34.027 22.5665 33.593 24.3445 32.3208 25.0147C31.0048 25.8075 29.0815 25.1372 28.5933 23.6882C28.042 22.3932 28.847 20.7727 30.2033 20.3667H30.205ZM23.8123 20.4945C25.0198 19.9345 26.6455 20.4035 27.2283 21.618C27.9143 22.801 27.384 24.4477 26.1572 25.0585C24.9287 25.7462 23.1945 25.2247 22.6013 23.956C21.9345 22.7275 22.526 21.0597 23.8123 20.4945ZM17.4125 22.6452C17.5052 21.8805 18.2385 21.3817 18.9788 21.3292C19.3648 21.37 19.7256 21.5406 20.0022 21.813C20.2787 22.0854 20.4547 22.4436 20.5013 22.829C20.4488 23.6165 19.831 24.383 18.984 24.3795C18.0512 24.4582 17.234 23.5447 17.4125 22.6452ZM36.316 21.4972C37.2733 20.9495 38.6015 21.7457 38.5595 22.8272C38.6243 23.9735 37.1543 24.7802 36.2023 24.1082C35.2118 23.5482 35.2888 21.9732 36.316 21.4972ZM21.2135 25.5345C22.33 25.2317 23.611 25.7497 24.1588 26.7612C24.759 27.7797 24.514 29.1938 23.5813 29.9427C22.3825 31.0382 20.1758 30.5972 19.5388 29.1027C18.8055 27.7325 19.6963 25.895 21.2118 25.5327L21.2135 25.5345ZM33.3358 25.5292C34.4225 25.223 35.7 25.6342 36.2845 26.609C37.058 27.7237 36.6888 29.388 35.539 30.1055C34.3315 30.9402 32.466 30.5027 31.801 29.1972C30.996 27.848 31.8062 25.9405 33.3358 25.5292ZM14.0157 26.7997C14.9818 26.441 16.0528 27.4892 15.6608 28.4325C15.4228 29.29 14.1925 29.6085 13.5573 28.975C12.8135 28.38 13.0883 27.0587 14.0157 26.7997ZM40.2115 28.1682C40.1934 27.783 40.3281 27.4062 40.5863 27.1198C40.8446 26.8333 41.2055 26.6605 41.5905 26.6387C42.252 26.7437 42.896 27.2687 42.8435 27.9775C42.9048 28.9137 41.7585 29.549 40.9465 29.1098C40.5668 28.919 40.3725 28.5357 40.2115 28.1682ZM9.2645 27.2652C9.8455 27.015 10.5648 27.5102 10.4318 28.1455C10.4003 28.8647 9.3205 29.143 8.925 28.541C8.575 28.1227 8.785 27.4805 9.2645 27.2635V27.2652ZM45.9253 27.2495C46.3348 26.9642 46.9927 27.169 47.1538 27.6397C47.4285 28.1542 46.9245 28.8577 46.3365 28.772C45.5105 28.8455 45.2445 27.6082 45.9253 27.2495ZM24.3705 30.7022C25.9 30.312 27.545 31.5667 27.5555 33.1172C27.6535 34.6835 26.033 36.0712 24.4685 35.7107C23.2575 35.5182 22.3073 34.3702 22.3475 33.168C22.344 32.0165 23.226 30.9455 24.3705 30.7022ZM30.429 30.7005C31.9813 30.2735 33.6753 31.551 33.6508 33.1365C33.733 34.673 32.1632 36.0152 30.6303 35.709C29.1865 35.527 28.1225 33.9677 28.525 32.5887C28.728 31.6717 29.5085 30.9262 30.429 30.6987V30.7005ZM18.746 31.6542C19.8205 31.474 20.8285 32.6517 20.3927 33.6562C20.0743 34.7272 18.4923 35.016 17.7922 34.1427C16.9733 33.3027 17.5858 31.7697 18.746 31.6542ZM36.5155 31.7015C37.4745 31.306 38.6505 32.1215 38.577 33.1453C38.6155 34.2705 37.163 35.0475 36.2268 34.3895C35.1645 33.7997 35.3587 32.062 36.5155 31.7015ZM41.482 36.6015C41.1075 35.9137 41.7882 35.002 42.567 35.1297C42.952 35.1227 43.2233 35.422 43.47 35.674C43.5208 36.0817 43.6065 36.5683 43.2618 36.8815C42.7945 37.4643 41.7358 37.298 41.482 36.6015ZM13.013 35.3205C13.7393 34.8463 14.784 35.555 14.6195 36.388C14.532 37.1282 13.587 37.55 12.9658 37.13C12.2973 36.7502 12.3218 35.667 13.013 35.3205ZM27.3507 36.8657C28.301 36.4545 29.512 37.2682 29.421 38.2973C29.491 39.4347 27.9947 40.2222 27.0655 39.5398C26.033 38.9535 26.2062 37.228 27.3507 36.8657ZM20.7113 38.39C21.5198 37.9718 22.6048 38.6945 22.5312 39.587C22.5558 40.3185 21.8313 40.9415 21.0963 40.833C20.489 40.8208 20.0935 40.2835 19.8975 39.7743C19.908 39.2195 20.1408 38.6017 20.7113 38.3917V38.39ZM34.1618 38.404C34.9948 37.8965 36.1778 38.6245 36.099 39.5765C36.12 40.574 34.783 41.211 34.0078 40.5565C33.2588 40.0437 33.3498 38.8117 34.1618 38.404ZM36.5015 44.0915C36.1305 43.542 36.5663 42.8787 37.1665 42.7528C37.6513 42.849 38.164 43.2078 38.0608 43.7573C37.9908 44.5045 36.8813 44.732 36.5015 44.0933V44.0915ZM17.9323 43.6138C18.0793 43.1763 18.4362 42.744 18.9595 42.8577C19.7207 42.9103 19.9465 44.0408 19.2798 44.389C18.6813 44.7863 17.9847 44.242 17.9323 43.6138ZM26.8923 44.116C27.0375 43.4685 27.8862 43.1553 28.4462 43.4983C28.8172 43.6558 28.9258 44.0617 29.0203 44.4082C28.9703 44.5882 28.9236 44.7691 28.8803 44.9508C28.651 45.2168 28.3552 45.4845 27.9737 45.4757C27.265 45.558 26.6245 44.7687 26.8905 44.116H26.8923Z" fill="white"/>
</g>
<defs>
<filter id="filter0_d_1_4108" x="7.00078" y="9.62598" width="41.98" height="38.4807" filterUnits="userSpaceOnUse" color-interpolation-filters="sRGB">
<feFlood flood-opacity="0" result="BackgroundImageFix"/>
<feColorMatrix in="SourceAlpha" type="matrix" values="0 0 0 0 0 0 0 0 0 0 0 0 0 0 0 0 0 0 127 0" result="hardAlpha"/>
<feOffset dy="0.875"/>
<feGaussianBlur stdDeviation="0.875"/>
<feColorMatrix type="matrix" values="0 0 0 0 0 0 0 0 0 0 0 0 0 0 0 0 0 0 0.204257 0"/>
<feBlend mode="normal" in2="BackgroundImageFix" result="effect1_dropShadow_1_4108"/>
<feBlend mode="normal" in="SourceGraphic" in2="effect1_dropShadow_1_4108" result="shape"/>
</filter>
<clipPath id="clip0_1_4108">
<rect width="56" height="56" fill="white"/>
</clipPath>
</defs>
</svg>
