<svg width="26" height="26" viewBox="0 0 26 26" fill="none" xmlns="http://www.w3.org/2000/svg">
<g clip-path="url(#clip0_1246_2358)">
<path d="M2.64205 17.947C1.89978 16.3958 1.52344 14.7314 1.52344 13C1.52344 6.67179 6.67179 1.52344 13 1.52344C15.5144 1.52344 17.9054 2.32654 19.8799 3.81149L17.9794 4.06169C17.5623 4.11658 17.2687 4.49922 17.3236 4.91629C17.3785 5.3334 17.7611 5.62697 18.1782 5.57207L21.7532 5.10143C22.1702 5.04654 22.4638 4.6639 22.409 4.24684L21.9383 0.671938C21.8834 0.254871 21.5007 -0.0387461 21.0837 0.0161484H21.0836C20.6665 0.071043 20.3729 0.45368 20.4278 0.870746L20.6395 2.47889C18.4331 0.869273 15.7835 0 13 0C9.52758 0 6.263 1.3522 3.80758 3.80758C1.35225 6.263 0 9.52758 0 13C0 14.9609 0.426562 16.8465 1.26791 18.6046C1.4495 18.9841 1.9043 19.1445 2.28379 18.9629C2.66322 18.7813 2.82364 18.3265 2.64205 17.947Z" fill="#1A1A1A"/>
<path d="M24.7317 7.39527C24.5501 7.01578 24.0953 6.85536 23.7158 7.03695C23.3364 7.21855 23.1759 7.67334 23.3575 8.05283C24.0998 9.60405 24.4762 11.2685 24.4762 12.9999C24.4762 19.3281 19.3278 24.4765 12.9996 24.4765C10.4855 24.4765 8.09503 23.673 6.12071 22.1883L8.02013 21.9382C8.4372 21.8833 8.73081 21.5007 8.67592 21.0836C8.62103 20.6665 8.23839 20.3729 7.82132 20.4278L4.24637 20.8985C3.82931 20.9534 3.53569 21.336 3.59058 21.7531L4.06128 25.328C4.11617 25.745 4.49881 26.0386 4.91587 25.9837C5.33294 25.9288 5.62661 25.5462 5.57171 25.1291L5.35995 23.5208C7.56645 25.1305 10.216 25.9999 12.9996 25.9999C16.472 25.9999 19.7366 24.6477 22.192 22.1923C24.6473 19.7369 25.9996 16.4723 25.9996 12.9999C25.9996 11.039 25.573 9.15336 24.7317 7.39527Z" fill="#1A1A1A"/>
<path d="M20.0691 11.8504L20.4263 11.6442C20.7906 11.4339 20.9154 10.968 20.705 10.6037L18.9277 7.52522C18.7174 7.16092 18.2515 7.03605 17.8872 7.24643L17.5066 7.46616C17.0914 7.7059 16.5947 7.70326 16.1812 7.45819C15.7767 7.2184 15.5389 6.77315 15.5389 6.30297V5.89062C15.5389 5.46995 15.1978 5.12891 14.7771 5.12891H11.2225C10.8018 5.12891 10.4607 5.46995 10.4607 5.89062V6.30312C10.4607 6.77325 10.2229 7.21845 9.81846 7.45814C9.405 7.70321 8.90825 7.70585 8.49296 7.46611L8.11241 7.24638C7.74811 7.03605 7.28224 7.16087 7.0719 7.52517L5.29456 10.6036C5.08422 10.9679 5.20904 11.4338 5.57335 11.6441L5.93049 11.8504C6.33771 12.0855 6.60436 12.5141 6.60969 12.9842C6.61518 13.4648 6.36909 13.8963 5.95385 14.136L5.57335 14.3557C5.20904 14.566 5.08422 15.0319 5.29456 15.3962L7.0719 18.4747C7.28224 18.839 7.74811 18.9639 8.11241 18.7535L8.49296 18.5337C8.9082 18.294 9.40495 18.2966 9.81841 18.5417C10.2229 18.7816 10.4607 19.2268 10.4607 19.697V20.1094C10.4607 20.53 10.8018 20.8711 11.2225 20.8711H14.7771C15.1978 20.8711 15.5389 20.53 15.5389 20.1094V19.6969C15.5389 19.2267 15.7767 18.7815 16.1811 18.5419C16.5946 18.2968 17.0913 18.2941 17.5066 18.5339L17.8872 18.7536C18.2515 18.964 18.7174 18.8391 18.9277 18.4748L20.705 15.3964C20.9154 15.0321 20.7906 14.5662 20.4263 14.3559L20.0457 14.1362C19.6305 13.8964 19.3844 13.465 19.3899 12.9844C19.3952 12.5141 19.6619 12.0855 20.0691 11.8504ZM19.0137 15.2789L17.9804 17.0687C17.1577 16.7077 16.2265 16.7564 15.433 17.2145C14.6395 17.6726 14.1319 18.4547 14.0331 19.3477H11.9665C11.8677 18.4547 11.3601 17.6727 10.5666 17.2145C9.77301 16.7564 8.84193 16.7077 8.01928 17.0687L6.98593 15.2789C7.70977 14.7469 8.13328 13.9162 8.13328 13C8.13328 12.0838 7.70977 11.2531 6.98593 10.7211L8.01928 8.9313C8.84193 9.29226 9.77311 9.24361 10.5666 8.78546C11.3601 8.32736 11.8677 7.54533 11.9665 6.65234H14.0331C14.1319 7.54528 14.6395 8.32731 15.433 8.78546C16.2266 9.24361 17.1577 9.29221 17.9804 8.9313L19.0137 10.7211C18.2899 11.2531 17.8664 12.0838 17.8664 13C17.8664 13.9162 18.2899 14.7469 19.0137 15.2789Z" fill="#1A1A1A"/>
<path d="M13 9.69922C11.1799 9.69922 9.69922 11.1799 9.69922 13C9.69922 14.8201 11.1799 16.3008 13 16.3008C14.8201 16.3008 16.3008 14.8201 16.3008 13C16.3008 11.1799 14.8201 9.69922 13 9.69922ZM13 14.7773C12.02 14.7773 11.2227 13.98 11.2227 13C11.2227 12.02 12.02 11.2227 13 11.2227C13.98 11.2227 14.7773 12.02 14.7773 13C14.7773 13.98 13.98 14.7773 13 14.7773Z" fill="#1A1A1A"/>
</g>
<defs>
<clipPath id="clip0_1246_2358">
<rect width="26" height="26" fill="white"/>
</clipPath>
</defs>
</svg>
