<svg width="28" height="28" viewBox="0 0 28 28" fill="none" xmlns="http://www.w3.org/2000/svg">
<path d="M14.3803 9.85913C13.4091 9.85913 12.4776 10.2449 11.7909 10.9317C11.1041 11.6185 10.7183 12.5499 10.7183 13.5211C10.7183 14.4923 11.1041 15.4238 11.7909 16.1105C12.4776 16.7973 13.4091 17.1831 14.3803 17.1831C15.3515 17.1831 16.2829 16.7973 16.9697 16.1105C17.6565 15.4238 18.0423 14.4923 18.0423 13.5211C18.0423 12.5499 17.6565 11.6185 16.9697 10.9317C16.2829 10.2449 15.3515 9.85913 14.3803 9.85913Z" fill="url(#paint0_linear_1_2456)"/>
<path fill-rule="evenodd" clip-rule="evenodd" d="M8.48734 3.4727C12.404 3.03856 16.3566 3.03856 20.2733 3.4727C22.413 3.71157 24.138 5.39608 24.3893 7.54369C24.8538 11.5151 24.8538 15.5272 24.3893 19.4986C24.138 21.6462 22.413 23.3307 20.2744 23.5707C16.3574 24.005 12.4044 24.005 8.48734 23.5707C6.34763 23.3307 4.62255 21.6462 4.37129 19.4997C3.90676 15.5279 3.90676 11.5155 4.37129 7.54369C4.62255 5.39608 6.34763 3.71157 8.48734 3.4727ZM20.0141 6.76059C19.7153 6.76059 19.4287 6.8793 19.2174 7.09061C19.0061 7.30192 18.8873 7.58851 18.8873 7.88735C18.8873 8.18618 19.0061 8.47278 19.2174 8.68409C19.4287 8.8954 19.7153 9.01411 20.0141 9.01411C20.3129 9.01411 20.5995 8.8954 20.8108 8.68409C21.0222 8.47278 21.1409 8.18618 21.1409 7.88735C21.1409 7.58851 21.0222 7.30192 20.8108 7.09061C20.5995 6.8793 20.3129 6.76059 20.0141 6.76059ZM9.02819 13.5212C9.02819 12.1017 9.59207 10.7404 10.5958 9.73664C11.5995 8.73292 12.9608 8.16904 14.3803 8.16904C15.7998 8.16904 17.1611 8.73292 18.1648 9.73664C19.1685 10.7404 19.7324 12.1017 19.7324 13.5212C19.7324 14.9406 19.1685 16.3019 18.1648 17.3057C17.1611 18.3094 15.7998 18.8733 14.3803 18.8733C12.9608 18.8733 11.5995 18.3094 10.5958 17.3057C9.59207 16.3019 9.02819 14.9406 9.02819 13.5212Z" fill="url(#paint1_linear_1_2456)"/>
<defs>
<linearGradient id="paint0_linear_1_2456" x1="14.3803" y1="9.85913" x2="14.3803" y2="17.1831" gradientUnits="userSpaceOnUse">
<stop stop-color="#ECAC1A"/>
<stop offset="1" stop-color="white"/>
</linearGradient>
<linearGradient id="paint1_linear_1_2456" x1="14.3803" y1="3.14709" x2="14.3803" y2="23.8964" gradientUnits="userSpaceOnUse">
<stop stop-color="#ECAC1A"/>
<stop offset="1" stop-color="white"/>
</linearGradient>
</defs>
</svg>
