<svg width="26" height="26" viewBox="0 0 26 26" fill="none" xmlns="http://www.w3.org/2000/svg">
<g clip-path="url(#clip0_1246_2284)">
<path d="M10.4766 3.17251C10.8972 3.17251 11.2383 2.83146 11.2383 2.41079V0.761719C11.2383 0.341047 10.8972 0 10.4766 0C10.0559 0 9.71484 0.341047 9.71484 0.761719V2.41079C9.71484 2.83146 10.0559 3.17251 10.4766 3.17251Z" fill="black"/>
<path d="M7.10122 6.04004C7.10122 5.61937 6.76017 5.27832 6.3395 5.27832H4.69043C4.26976 5.27832 3.92871 5.61937 3.92871 6.04004C3.92871 6.46071 4.26976 6.80176 4.69043 6.80176H6.3395C6.76017 6.80176 7.10122 6.46076 7.10122 6.04004Z" fill="black"/>
<path d="M13.8516 6.04004C13.8516 6.46071 14.1926 6.80176 14.6133 6.80176H16.2624C16.683 6.80176 17.0241 6.46071 17.0241 6.04004C17.0241 5.61937 16.683 5.27832 16.2624 5.27832H14.6133C14.1926 5.27832 13.8516 5.61937 13.8516 6.04004Z" fill="black"/>
<path d="M7.18407 4.04059C7.48149 4.33806 7.96381 4.33812 8.26129 4.04059C8.55877 3.74311 8.55877 3.26084 8.26129 2.96337L7.09525 1.79733C6.79783 1.49985 6.31551 1.49985 6.01803 1.79733C5.72055 2.0948 5.72055 2.57707 6.01803 2.87455L7.18407 4.04059Z" fill="black"/>
<path d="M13.7691 4.04057L14.9352 2.87453C15.2326 2.57705 15.2326 2.09478 14.9352 1.79731C14.6378 1.49988 14.1555 1.49983 13.8579 1.79731L12.6919 2.96335C12.3944 3.26082 12.3944 3.74309 12.6919 4.04057C12.9893 4.33799 13.4716 4.33805 13.7691 4.04057Z" fill="black"/>
<path d="M22.0668 15.388C22.0667 15.3864 22.0666 15.3848 22.0664 15.3832C21.9789 14.1417 20.9506 13.1793 19.7061 13.1793C19.4006 13.1793 19.1087 13.2382 18.8404 13.3443C18.7756 12.8474 18.5511 12.3879 18.1911 12.0274C17.5146 11.3502 16.5391 11.1966 15.7323 11.5176C15.6295 11.1367 15.4285 10.7877 15.1422 10.5011C14.4902 9.84827 13.5563 9.67947 12.7627 9.96136V6.9835C12.7627 5.70274 11.7133 4.66706 10.4223 4.69616C9.19171 4.72474 8.19046 5.7648 8.19046 7.01457C8.19046 13.8902 8.19066 14.1984 8.19066 14.2066C7.95138 14.122 7.69458 14.0756 7.42777 14.0756C6.16698 14.0756 5.1416 15.0951 5.1416 16.3618C5.1416 16.3623 5.14165 16.3627 5.14165 16.3632V20.0442C5.14165 23.3283 7.81341 26.0001 11.0975 26.0001H16.1148C19.3988 26.0001 22.0706 23.3283 22.0706 20.0442C22.0706 15.0433 22.0723 15.4684 22.0668 15.388ZM16.1148 24.4765H11.0975C8.65348 24.4765 6.66509 22.4882 6.66509 20.0441V16.3617C6.66509 16.3614 6.66504 16.3612 6.66504 16.3609C6.66545 15.9348 7.01076 15.5989 7.42772 15.5989C7.84916 15.5989 8.19046 15.9391 8.19046 16.3617V19.0201C8.19046 19.4407 8.5315 19.7818 8.95218 19.7818C9.37295 19.7818 9.71405 19.4405 9.71405 19.0199C9.71405 18.7135 9.71384 8.95416 9.71384 7.01452C9.71384 6.58547 10.0475 6.22868 10.4578 6.21914C10.8865 6.20812 11.2393 6.55434 11.2393 6.98344V12.1184C11.2393 12.1198 11.2395 12.121 11.2395 12.1224V16.5369C11.2395 16.9575 11.5805 17.2986 12.0012 17.2986C12.4219 17.2986 12.7629 16.9575 12.7629 16.5369V12.1145C12.765 11.6947 13.1062 11.3538 13.5254 11.3538C13.7288 11.3538 13.9201 11.4333 14.0642 11.5776C14.2086 11.7221 14.2881 11.9142 14.2881 12.1184C14.2881 12.3739 14.2883 13.8394 14.2883 16.5369C14.2883 16.9576 14.6294 17.2986 15.05 17.2986C15.4707 17.2986 15.8118 16.9576 15.8118 16.5369C15.8118 16.5016 15.8118 13.6783 15.8117 13.6429C15.8127 13.2222 16.1543 12.8802 16.5743 12.8802C16.9951 12.8802 17.337 13.2222 17.337 13.6448C17.337 13.6561 17.3372 14.6922 17.3372 16.5369C17.3372 16.9576 17.6783 17.2986 18.0989 17.2986C18.5196 17.2986 18.8607 16.9576 18.8607 16.5369C18.8607 16.4999 18.8632 16.0036 18.8632 15.5492C18.8632 15.0824 19.2413 14.7027 19.7061 14.7027C20.1491 14.7027 20.517 15.0458 20.5472 15.4934V20.0442C20.5472 22.4882 18.5588 24.4765 16.1148 24.4765Z" fill="black"/>
</g>
<defs>
<clipPath id="clip0_1246_2284">
<rect width="26" height="26" fill="white"/>
</clipPath>
</defs>
</svg>
