<svg width="26" height="26" viewBox="0 0 26 26" fill="none" xmlns="http://www.w3.org/2000/svg">
<g clip-path="url(#clip0_1246_2255)">
<path d="M13.0002 9.14136C10.8726 9.14136 9.1416 10.8723 9.1416 12.9999C9.1416 15.1276 10.8726 16.8585 13.0002 16.8585C15.1277 16.8585 16.8587 15.1276 16.8587 12.9999C16.8587 10.8723 15.1277 9.14136 13.0002 9.14136ZM13.0002 15.335C11.7126 15.335 10.665 14.2875 10.665 12.9999C10.665 11.7123 11.7126 10.6648 13.0002 10.6648C14.2877 10.6648 15.3353 11.7123 15.3353 12.9999C15.3353 14.2875 14.2877 15.335 13.0002 15.335Z" fill="#1A1A1A"/>
<path d="M23.3316 14.6005C22.4937 14.6005 21.7451 14.9891 21.2555 15.5952L19.632 14.9226C19.8093 14.312 19.9047 13.667 19.9047 13C19.9047 12.333 19.8093 11.688 19.632 11.0775L21.2607 10.4029C21.7505 10.9998 22.4936 11.3814 23.3241 11.3814C24.7955 11.3814 25.9925 10.1844 25.9925 8.71305C25.9925 7.24171 24.7955 6.04469 23.3241 6.04469C21.8527 6.04469 20.6557 7.24171 20.6557 8.71305C20.6557 8.80938 20.6612 8.90444 20.6712 8.99818L19.0472 9.67078C18.4161 8.52902 17.4711 7.58403 16.3294 6.95292L17.0043 5.32365C17.0913 5.33228 17.1796 5.33686 17.2688 5.33686C18.7402 5.33686 19.9372 4.13984 19.9372 2.6685C19.9372 1.19717 18.7402 0 17.2688 0C15.7975 0 14.6005 1.19702 14.6005 2.66835C14.6005 3.50629 14.9891 4.25486 15.5951 4.74444L14.9226 6.36802C14.312 6.19074 13.667 6.09532 12.9999 6.09532C12.333 6.09532 11.688 6.19069 11.0774 6.36797L10.4049 4.74429C11.0109 4.25471 11.3995 3.50619 11.3995 2.6683C11.3995 1.19702 10.2025 0 8.73118 0C7.25979 0 6.06277 1.19702 6.06277 2.66835C6.06277 4.13969 7.25979 5.3367 8.73118 5.3367C8.82055 5.3367 8.90881 5.33213 8.99595 5.3235L9.67078 6.95277C8.52896 7.58388 7.58398 8.52886 6.95287 9.67063L5.32893 8.99793C5.33894 8.90424 5.34432 8.80923 5.34432 8.71295C5.34432 7.24161 4.1473 6.04459 2.67592 6.04459C1.20458 6.04459 0.00756641 7.24161 0.00756641 8.71295C0.00756641 10.1843 1.20458 11.3813 2.67592 11.3813C3.5066 11.3813 4.24963 10.9997 4.73941 10.4027L6.36807 11.0773C6.19079 11.6879 6.09538 12.333 6.09538 12.9999C6.09538 13.6669 6.19074 14.3119 6.36802 14.9225L4.74439 15.595C4.25481 14.9889 3.50629 14.6004 2.6684 14.6004C1.19702 14.6005 0 15.7975 0 17.2688C0 18.7402 1.19702 19.9372 2.6684 19.9372C4.13974 19.9372 5.33675 18.7402 5.33675 17.2688C5.33675 17.1795 5.33213 17.0912 5.32355 17.0041L6.95277 16.3293C7.58388 17.471 8.52886 18.416 9.67063 19.0471L8.99575 20.6764C8.90866 20.6678 8.82045 20.6632 8.73118 20.6632C7.25979 20.6632 6.06277 21.8602 6.06277 23.3315C6.06277 24.8029 7.25979 26 8.73118 26C10.2025 26 11.3995 24.803 11.3995 23.3316C11.3995 22.4937 11.0109 21.7451 10.4049 21.2556L11.0774 19.632C11.688 19.8093 12.333 19.9047 13.0001 19.9047C13.667 19.9047 14.312 19.8093 14.9226 19.632L15.5951 21.2557C14.9891 21.7453 14.6005 22.4938 14.6005 23.3317C14.6005 24.803 15.7975 26 17.2689 26C18.7403 26 19.9373 24.803 19.9373 23.3317C19.9373 21.8604 18.7403 20.6633 17.2689 20.6633C17.1795 20.6633 17.0912 20.6679 17.0041 20.6766L16.3293 19.0473C17.4711 18.4162 18.4161 17.4712 19.0472 16.3294L20.6764 17.0043C20.6678 17.0914 20.6632 17.1796 20.6632 17.2689C20.6632 18.7403 21.8603 19.9373 23.3316 19.9373C24.803 19.9373 26 18.7403 26 17.2689C26 15.7976 24.803 14.6005 23.3316 14.6005ZM23.3241 7.56803C23.9554 7.56803 24.469 8.08163 24.469 8.71295C24.469 9.34426 23.9554 9.85786 23.3241 9.85786C22.6928 9.85786 22.1792 9.34426 22.1792 8.71295C22.1792 8.08163 22.6928 7.56803 23.3241 7.56803ZM17.2688 1.52344C17.9002 1.52344 18.4138 2.03704 18.4138 2.66835C18.4138 3.29966 17.9002 3.81327 17.2688 3.81327C16.6375 3.81327 16.1239 3.29966 16.1239 2.66835C16.1239 2.03704 16.6376 1.52344 17.2688 1.52344ZM7.58621 2.66835C7.58621 2.03704 8.09981 1.52344 8.73118 1.52344C9.36249 1.52344 9.87609 2.03704 9.87609 2.66835C9.87609 3.29966 9.36249 3.81327 8.73118 3.81327C8.09981 3.81332 7.58621 3.29971 7.58621 2.66835ZM2.67587 9.85791C2.04455 9.85791 1.53095 9.34431 1.53095 8.713C1.53095 8.08168 2.04455 7.56808 2.67587 7.56808C3.30723 7.56808 3.82083 8.08168 3.82083 8.713C3.82083 9.34431 3.30723 9.85791 2.67587 9.85791ZM2.6684 18.4138C2.03704 18.4138 1.52344 17.9002 1.52344 17.2688C1.52344 16.6375 2.03704 16.1239 2.6684 16.1239C3.29971 16.1239 3.81332 16.6375 3.81332 17.2688C3.81332 17.9001 3.29971 18.4138 2.6684 18.4138ZM8.73118 24.4766C8.09981 24.4766 7.58621 23.963 7.58621 23.3316C7.58621 22.7003 8.09981 22.1867 8.73118 22.1867C9.36249 22.1867 9.87609 22.7003 9.87609 23.3316C9.87609 23.963 9.36244 24.4766 8.73118 24.4766ZM18.4138 23.3316C18.4138 23.963 17.9002 24.4766 17.2688 24.4766C16.6375 24.4766 16.1239 23.963 16.1239 23.3316C16.1239 22.7003 16.6375 22.1867 17.2688 22.1867C17.9002 22.1867 18.4138 22.7003 18.4138 23.3316ZM13 18.3812C10.0328 18.3812 7.61876 15.9672 7.61876 13C7.61876 10.0328 10.0328 7.61881 13 7.61881C15.9672 7.61881 18.3812 10.0328 18.3812 13C18.3812 15.9672 15.9672 18.3812 13 18.3812ZM23.3316 18.4138C22.7003 18.4138 22.1867 17.9002 22.1867 17.2689C22.1867 16.6376 22.7003 16.124 23.3316 16.124C23.963 16.124 24.4766 16.6376 24.4766 17.2689C24.4766 17.9002 23.963 18.4138 23.3316 18.4138Z" fill="#1A1A1A"/>
</g>
<defs>
<clipPath id="clip0_1246_2255">
<rect width="26" height="26" fill="white"/>
</clipPath>
</defs>
</svg>
