<svg width="26" height="26" viewBox="0 0 26 26" fill="none" xmlns="http://www.w3.org/2000/svg">
<path d="M7.06035 10.1848C6.65654 10.1848 6.3291 10.5123 6.3291 10.9161C6.3291 11.3199 6.65654 11.6473 7.06035 11.6473H14.901C15.3048 11.6473 15.6322 11.3199 15.6322 10.9161C15.6322 10.5123 15.3048 10.1848 14.901 10.1848H7.06035Z" fill="#1A1A1A"/>
<path d="M10.5858 14.3357H7.06035C6.65654 14.3357 6.3291 14.6631 6.3291 15.0669C6.3291 15.4708 6.65654 15.7982 7.06035 15.7982H10.5858C10.9896 15.7982 11.317 15.4708 11.317 15.0669C11.317 14.6631 10.9896 14.3357 10.5858 14.3357Z" fill="#1A1A1A"/>
<path d="M10.4776 23.6438H4.91198C3.71517 23.6438 2.74261 22.6672 2.74261 21.4663V6.65442C2.74261 5.45355 3.71517 4.47692 4.91198 4.47692H6.42242V4.66055C6.42242 5.72736 7.29017 6.5943 8.35698 6.5943H15.3445C16.4113 6.5943 17.279 5.72736 17.279 4.66055V4.47692H18.7822C19.9985 4.47692 20.9507 5.43324 20.9507 6.65442V10.8225C20.9507 11.2264 21.2782 11.5538 21.682 11.5538C22.0858 11.5538 22.4132 11.2264 22.4132 10.8225V6.65442C22.4132 4.64755 20.7842 3.01442 18.7814 3.01442H17.2782V2.82755C17.2782 1.76074 16.4105 0.893799 15.3437 0.893799H8.35617C7.28936 0.893799 6.42161 1.76074 6.42161 2.82755V3.01442H4.91198C2.90917 3.01442 1.2793 4.64755 1.2793 6.65442V21.4663C1.2793 23.4732 2.90917 25.1063 4.91198 25.1063H10.4776C10.8814 25.1063 11.2089 24.7789 11.2089 24.375C11.2089 23.9712 10.8814 23.6438 10.4776 23.6438ZM7.88573 2.82755C7.88573 2.56755 8.09698 2.3563 8.35698 2.3563H15.3445C15.6045 2.3563 15.8157 2.56755 15.8157 2.82755V4.65974C15.8157 4.91974 15.6045 5.13099 15.3445 5.13099H8.35698C8.09698 5.13099 7.88573 4.91974 7.88573 4.65974V2.82755Z" fill="#1A1A1A"/>
<path d="M23.9449 14.1035C22.9439 13.1017 21.1962 13.1008 20.1944 14.1035L13.7115 20.5864C13.5027 20.7952 13.3662 21.0601 13.3166 21.3518L12.9607 23.4553C12.8852 23.9063 13.0339 24.3694 13.3572 24.692C13.6246 24.9593 13.9861 25.1055 14.3574 25.1055C14.4362 25.1055 14.5142 25.099 14.5922 25.086L16.695 24.731C16.9867 24.6814 17.2516 24.5449 17.4604 24.3361L23.9433 17.8532C24.9776 16.8197 24.9776 15.1378 23.9449 14.1035ZM16.4521 23.2896L14.4037 23.6983L14.7466 21.6207L19.3933 16.974L21.076 18.6567L16.4521 23.2896ZM22.9098 16.8188L22.1087 17.6216L20.4268 15.9397L21.2287 15.1378C21.453 14.9135 21.752 14.7892 22.0689 14.7892C22.3874 14.7892 22.6856 14.9127 22.9098 15.1378C23.3737 15.6017 23.3737 16.3549 22.9098 16.8188Z" fill="#1A1A1A"/>
</svg>
