<svg width="20" height="20" viewBox="0 0 20 20" fill="none" xmlns="http://www.w3.org/2000/svg">
<path fill-rule="evenodd" clip-rule="evenodd" d="M12.5023 3.33301C13.1223 3.33301 13.7773 3.54967 14.3773 3.78884L14.8165 3.96884C15.8665 4.40884 16.4565 5.33217 16.914 6.34634C17.6565 7.99217 18.1723 10.1863 18.3507 11.8547C18.4357 12.6463 18.4565 13.443 18.304 13.9788C18.1398 14.5513 17.5815 14.9563 17.039 15.2747L16.7707 15.4272L16.4923 15.5822C16.349 15.6622 16.2015 15.7413 16.0548 15.8188L15.6198 16.0438L15.0223 16.3413L14.5415 16.578C14.4433 16.631 14.3354 16.6637 14.2243 16.6742C14.1132 16.6847 14.0011 16.6727 13.8947 16.6391C13.7883 16.6054 13.6897 16.5507 13.6049 16.4783C13.52 16.4058 13.4505 16.317 13.4006 16.2172C13.3507 16.1174 13.3214 16.0086 13.3143 15.8972C13.3073 15.7858 13.3227 15.6741 13.3596 15.5688C13.3965 15.4635 13.4542 15.3667 13.5293 15.2841C13.6043 15.2015 13.6952 15.1348 13.7965 15.088L14.4548 14.763L13.9715 14.2555C12.8132 14.7305 11.449 14.9997 9.99985 14.9997C8.55068 14.9997 7.18652 14.7313 6.02818 14.2555L5.54485 14.7622L6.20568 15.0872C6.30363 15.1361 6.39098 15.2038 6.46275 15.2865C6.53451 15.3692 6.5893 15.4652 6.62396 15.569C6.65863 15.6729 6.6725 15.7825 6.66479 15.8917C6.65708 16.0009 6.62793 16.1076 6.57902 16.2055C6.5301 16.3035 6.46237 16.3908 6.37969 16.4626C6.29702 16.5343 6.20102 16.5891 6.09717 16.6238C5.88744 16.6938 5.65849 16.6776 5.46068 16.5788L5.00735 16.3538C4.67235 16.1872 4.33652 16.0222 4.00485 15.848L3.23152 15.4272L2.96402 15.2747C2.42152 14.9563 1.86235 14.5513 1.69902 13.9788C1.54568 13.443 1.56735 12.6472 1.65152 11.8538C1.82985 10.1863 2.34568 7.99217 3.08818 6.34634C3.54568 5.33217 4.13568 4.40884 5.18568 3.96884C5.88235 3.67717 6.72652 3.33301 7.49985 3.33301C8.00235 3.33301 8.39735 3.79551 8.32485 4.28884C8.8794 4.20679 9.43926 4.16584 9.99985 4.16634C10.5757 4.16634 11.1382 4.20801 11.6782 4.28967C11.6621 4.17133 11.6714 4.05093 11.7053 3.93643C11.7393 3.82194 11.7972 3.71596 11.8752 3.62552C11.9532 3.53508 12.0495 3.46223 12.1578 3.4118C12.266 3.36138 12.3829 3.33452 12.5023 3.33301ZM7.29152 8.74967C6.90474 8.74967 6.53381 8.90332 6.26032 9.17681C5.98683 9.4503 5.83318 9.82123 5.83318 10.208C5.83318 10.5948 5.98683 10.9657 6.26032 11.2392C6.53381 11.5127 6.90474 11.6663 7.29152 11.6663C7.67829 11.6663 8.04922 11.5127 8.32271 11.2392C8.5962 10.9657 8.74985 10.5948 8.74985 10.208C8.74985 9.82123 8.5962 9.4503 8.32271 9.17681C8.04922 8.90332 7.67829 8.74967 7.29152 8.74967ZM12.7082 8.74967C12.3214 8.74967 11.9505 8.90332 11.677 9.17681C11.4035 9.4503 11.2498 9.82123 11.2498 10.208C11.2498 10.5948 11.4035 10.9657 11.677 11.2392C11.9505 11.5127 12.3214 11.6663 12.7082 11.6663C13.095 11.6663 13.4659 11.5127 13.7394 11.2392C14.0129 10.9657 14.1665 10.5948 14.1665 10.208C14.1665 9.82123 14.0129 9.4503 13.7394 9.17681C13.4659 8.90332 13.095 8.74967 12.7082 8.74967Z" fill="url(#paint0_linear_1246_3337)"/>
<defs>
<linearGradient id="paint0_linear_1246_3337" x1="10.0013" y1="3.33301" x2="10.0013" y2="16.6779" gradientUnits="userSpaceOnUse">
<stop stop-color="#F5C635"/>
<stop offset="1" stop-color="#4EE39D"/>
</linearGradient>
</defs>
</svg>
