<svg width="20" height="20" viewBox="0 0 20 20" fill="none" xmlns="http://www.w3.org/2000/svg">
<path d="M10.0003 1.7002C5.41699 1.7002 1.66699 5.44186 1.66699 10.0502C1.66699 14.2169 4.71699 17.6752 8.70033 18.3002V12.4669H6.58366V10.0502H8.70033V8.20853C8.70033 6.11686 9.94199 4.96686 11.8503 4.96686C12.7587 4.96686 13.7087 5.1252 13.7087 5.1252V7.18353H12.6587C11.6253 7.18353 11.3003 7.8252 11.3003 8.48353V10.0502H13.617L13.242 12.4669H11.3003V18.3002C13.264 17.9901 15.0522 16.9881 16.3419 15.4752C17.6317 13.9624 18.3381 12.0382 18.3337 10.0502C18.3337 5.44186 14.5837 1.7002 10.0003 1.7002Z" fill="url(#paint0_linear_1246_3345)"/>
<defs>
<linearGradient id="paint0_linear_1246_3345" x1="10.0003" y1="1.7002" x2="10.0003" y2="18.3002" gradientUnits="userSpaceOnUse">
<stop stop-color="#F5C635"/>
<stop offset="1" stop-color="#4EE39D"/>
</linearGradient>
</defs>
</svg>
