<svg width="20" height="20" viewBox="0 0 20 20" fill="none" xmlns="http://www.w3.org/2000/svg">
<path d="M10.0003 7.29199C9.28203 7.29199 8.59316 7.57733 8.08524 8.08524C7.57733 8.59316 7.29199 9.28203 7.29199 10.0003C7.29199 10.7186 7.57733 11.4075 8.08524 11.9154C8.59316 12.4233 9.28203 12.7087 10.0003 12.7087C10.7186 12.7087 11.4075 12.4233 11.9154 11.9154C12.4233 11.4075 12.7087 10.7186 12.7087 10.0003C12.7087 9.28203 12.4233 8.59316 11.9154 8.08524C11.4075 7.57733 10.7186 7.29199 10.0003 7.29199Z" fill="url(#paint0_linear_1246_3342)"/>
<path fill-rule="evenodd" clip-rule="evenodd" d="M5.64168 2.56796C8.53837 2.24688 11.4617 2.24688 14.3583 2.56796C15.9408 2.74463 17.2167 3.99046 17.4025 5.57879C17.746 8.51601 17.746 11.4832 17.4025 14.4205C17.2167 16.0088 15.9408 17.2546 14.3592 17.4321C11.4622 17.7533 8.53864 17.7533 5.64168 17.4321C4.05918 17.2546 2.78335 16.0088 2.59751 14.4213C2.25395 11.4838 2.25395 8.51628 2.59751 5.57879C2.78335 3.99046 4.05918 2.74463 5.64168 2.56796ZM14.1667 4.99963C13.9457 4.99963 13.7337 5.08742 13.5774 5.24371C13.4211 5.39999 13.3333 5.61195 13.3333 5.83296C13.3333 6.05397 13.4211 6.26594 13.5774 6.42222C13.7337 6.5785 13.9457 6.66629 14.1667 6.66629C14.3877 6.66629 14.5997 6.5785 14.7559 6.42222C14.9122 6.26594 15 6.05397 15 5.83296C15 5.61195 14.9122 5.39999 14.7559 5.24371C14.5997 5.08742 14.3877 4.99963 14.1667 4.99963ZM6.04168 9.99963C6.04168 8.94981 6.45872 7.94299 7.20105 7.20066C7.94338 6.45833 8.9502 6.04129 10 6.04129C11.0498 6.04129 12.0566 6.45833 12.799 7.20066C13.5413 7.94299 13.9583 8.94981 13.9583 9.99963C13.9583 11.0494 13.5413 12.0563 12.799 12.7986C12.0566 13.5409 11.0498 13.958 10 13.958C8.9502 13.958 7.94338 13.5409 7.20105 12.7986C6.45872 12.0563 6.04168 11.0494 6.04168 9.99963Z" fill="url(#paint1_linear_1246_3342)"/>
<defs>
<linearGradient id="paint0_linear_1246_3342" x1="10.0003" y1="7.29199" x2="10.0003" y2="12.7087" gradientUnits="userSpaceOnUse">
<stop stop-color="#F5C635"/>
<stop offset="1" stop-color="#4EE39D"/>
</linearGradient>
<linearGradient id="paint1_linear_1246_3342" x1="10" y1="2.32715" x2="10" y2="17.673" gradientUnits="userSpaceOnUse">
<stop stop-color="#F5C635"/>
<stop offset="1" stop-color="#4EE39D"/>
</linearGradient>
</defs>
</svg>
