<svg width="18" height="14" viewBox="0 0 18 14" fill="none" xmlns="http://www.w3.org/2000/svg">
<path d="M17.1745 2.18951C17.2228 2.12284 17.1512 2.03534 17.0745 2.06534C16.5251 2.27844 15.9512 2.42205 15.3662 2.49284C16.0161 2.10464 16.5198 1.51298 16.7995 0.809506C16.8278 0.73784 16.7495 0.673673 16.6828 0.711173C16.077 1.04534 15.4245 1.28617 14.7453 1.42534C14.7313 1.42815 14.7169 1.42733 14.7033 1.42295C14.6897 1.41857 14.6775 1.41079 14.6678 1.40034C14.1567 0.86107 13.4838 0.503102 12.7509 0.380684C12.0181 0.258266 11.2653 0.378069 10.6067 0.721939C9.94806 1.06581 9.41947 1.615 9.10103 2.28629C8.78258 2.95758 8.69164 3.71438 8.84199 4.44201C8.84466 4.45468 8.84441 4.46779 8.84125 4.48035C8.83808 4.4929 8.83209 4.50457 8.82373 4.51446C8.81537 4.52435 8.80486 4.5322 8.793 4.5374C8.78115 4.54261 8.76826 4.54504 8.75532 4.54451C7.43653 4.4626 6.14838 4.11212 4.96989 3.51456C3.79139 2.917 2.74741 2.08497 1.90199 1.06951C1.89354 1.05894 1.88261 1.05064 1.87017 1.04534C1.85773 1.04005 1.84417 1.03792 1.8307 1.03916C1.81724 1.0404 1.80429 1.04497 1.79302 1.05244C1.78176 1.05992 1.77252 1.07008 1.76615 1.08201C1.50304 1.58113 1.36573 2.13694 1.36615 2.70117C1.36509 3.26316 1.503 3.81669 1.76762 4.31248C2.03223 4.80827 2.41533 5.23093 2.88282 5.54284C2.38755 5.52938 1.90132 5.40704 1.45865 5.18451C1.40199 5.15534 1.33365 5.19617 1.33615 5.25951C1.36941 6.01042 1.64184 6.73105 2.11365 7.31617C2.61495 7.9233 3.31056 8.33866 4.08282 8.49201C3.78553 8.58248 3.47688 8.63018 3.16615 8.63367C2.99721 8.63163 2.82855 8.61911 2.66115 8.59617C2.59865 8.58784 2.54782 8.64617 2.56949 8.70451C2.80817 9.35062 3.23613 9.90976 3.79748 10.3089C4.35883 10.7081 5.02749 10.9287 5.71615 10.942C4.38642 11.9879 2.7167 12.5047 1.02865 12.3928C0.940319 12.387 0.899486 12.5045 0.975319 12.5495C2.468 13.4353 4.17211 13.9017 5.90782 13.8995C7.19083 13.9128 8.46363 13.6704 9.65189 13.1863C10.8401 12.7023 11.9201 11.9863 12.8285 11.0802C13.737 10.1741 14.4558 9.09614 14.943 7.90917C15.4303 6.7222 15.6761 5.45004 15.6662 4.16701V3.76701C15.6662 3.75407 15.6692 3.74131 15.675 3.72974C15.6807 3.71817 15.6891 3.7081 15.6995 3.70034C16.2644 3.27389 16.7617 2.76453 17.1745 2.18951Z" fill="url(#paint0_linear_1246_3335)"/>
<defs>
<linearGradient id="paint0_linear_1246_3335" x1="9.06287" y1="0.333984" x2="9.06287" y2="13.9" gradientUnits="userSpaceOnUse">
<stop stop-color="#F5C635"/>
<stop offset="1" stop-color="#4EE39D"/>
</linearGradient>
</defs>
</svg>
