<svg width="30" height="30" viewBox="0 0 30 30" fill="none" xmlns="http://www.w3.org/2000/svg">
<g clip-path="url(#clip0_1_2904)">
<path d="M26.9228 5.99843H21.392C22.1931 5.32976 22.6613 4.4638 22.7018 3.50679C22.7527 2.30362 22.0925 1.21349 21.0197 0.729619C20.3661 0.434717 18.6121 -0.0264157 16.4465 2.05478C15.702 2.76997 15.0557 3.62942 14.5547 4.55022C14.0542 3.6296 13.4081 2.77026 12.6634 2.05483C10.4976 -0.0264157 8.7436 0.434776 8.09004 0.729561C7.01731 1.21349 6.35707 2.30356 6.40799 3.50673C6.44848 4.4638 6.91664 5.32981 7.71768 5.99837H3.07717C1.82871 5.99837 0.813049 7.01403 0.813049 8.26249V12.6157C0.813049 13.5526 1.3851 14.3584 2.19826 14.7022V26.672C2.19826 28.2483 3.47994 29.5307 5.0553 29.5307H24.9447C26.5201 29.5307 27.8017 28.2483 27.8017 26.672V14.7022C28.6149 14.3584 29.187 13.5526 29.187 12.6157V8.26249C29.187 7.01403 28.1713 5.99843 26.9228 5.99843ZM27.4291 8.26255V12.6158C27.4291 12.895 27.202 13.1221 26.9228 13.1221H15.433V8.0096C15.8996 8.30023 16.3087 8.82862 16.8268 9.53099C17.2765 10.1407 17.7415 10.7712 18.354 11.2577C18.5156 11.3862 18.7085 11.4485 18.9001 11.4485C19.1589 11.4485 19.4153 11.3347 19.5888 11.1163C19.8908 10.7363 19.8274 10.1834 19.4474 9.88144C19.0177 9.54001 18.6405 9.02884 18.2414 8.48761C18.0667 8.25083 17.8829 8.00169 17.6838 7.7563H26.9229C27.2021 7.7563 27.4292 7.98341 27.4292 8.26261L27.4291 8.26255ZM17.6644 3.32228C18.4063 2.60931 19.159 2.22558 19.7776 2.22558C19.9642 2.22558 20.1387 2.26056 20.2969 2.33192C20.7113 2.51884 20.9659 2.95085 20.9455 3.43249C20.9133 4.19456 20.2301 4.8838 19.1176 5.27644C18.2499 5.58317 17.1131 5.80431 15.8347 5.9198C16.275 4.96032 16.9176 4.03964 17.6644 3.32228ZM8.81285 2.33192C8.97112 2.26056 9.14549 2.22558 9.33217 2.22558C9.95074 2.22558 10.7035 2.60937 11.4455 3.32239C12.1925 4.04005 12.8349 4.96073 13.2744 5.91991C11.9955 5.80442 10.8588 5.58323 9.9917 5.27632C8.87965 4.88386 8.19645 4.19462 8.16422 3.43255C8.14383 2.95091 8.39848 2.51884 8.81285 2.33192ZM2.57086 8.26255C2.57086 7.98335 2.79797 7.75624 3.07717 7.75624H11.4258C11.2269 8.00151 11.0432 8.25042 10.8687 8.48708C10.4694 9.02849 10.0923 9.53983 9.6624 9.88138C9.28236 10.1833 9.21903 10.7362 9.52096 11.1162C9.69446 11.3347 9.9508 11.4485 10.2097 11.4485C10.4012 11.4485 10.5942 11.3861 10.7558 11.2577C11.3685 10.7709 11.8336 10.1403 12.2834 9.53034C12.8008 8.82874 13.2094 8.30081 13.6751 8.01013V13.122H3.07717C2.79797 13.122 2.57086 12.8949 2.57086 12.6157V8.26249V8.26255ZM3.95608 26.6721V14.8799H13.6751V27.773H5.0553C4.4492 27.773 3.95608 27.2791 3.95608 26.6721ZM24.9447 27.773H15.433V14.8799H26.0439V26.6721C26.0439 27.2791 25.5508 27.773 24.9447 27.773Z" fill="#ECAC1A"/>
</g>
<defs>
<clipPath id="clip0_1_2904">
<rect width="30" height="30" fill="white"/>
</clipPath>
</defs>
</svg>
