<svg width="80" height="36" viewBox="0 0 80 36" fill="none" xmlns="http://www.w3.org/2000/svg">
<rect x="0.5" y="0.5" width="79" height="35" rx="17.5" fill="black" stroke="#ECAC1A"/>
<circle cx="60" cy="18" r="14" fill="url(#paint0_linear_1245_44)"/>
<g clip-path="url(#clip0_1245_44)">
<path d="M66.4342 19.6279C66.3756 19.5695 66.3017 19.5289 66.221 19.5108C66.1403 19.4927 66.0562 19.4978 65.9783 19.5256C64.9315 19.8988 63.8003 19.9673 62.7161 19.7232C61.6319 19.4791 60.6393 18.9323 59.8535 18.1465C59.0677 17.3606 58.521 16.3679 58.2769 15.2837C58.0328 14.1995 58.1014 13.0683 58.4747 12.0216C58.5025 11.9436 58.5075 11.8595 58.4894 11.7788C58.4712 11.6981 58.4306 11.6242 58.3722 11.5657C58.3137 11.5072 58.2399 11.4664 58.1593 11.4481C58.0786 11.4299 57.9944 11.4348 57.9165 11.4624C56.9727 11.7957 56.1163 12.3375 55.4109 13.0475C54.1464 14.313 53.4362 16.0289 53.4365 17.8179C53.4369 19.6069 54.1477 21.3225 55.4127 22.5876C56.6777 23.8526 58.3934 24.5634 60.1824 24.5638C61.9714 24.5641 63.6873 23.8539 64.9528 22.5894C65.6629 21.8839 66.2047 21.0273 66.5378 20.0834C66.5654 20.0054 66.5702 19.9213 66.5519 19.8407C66.5335 19.76 66.4927 19.6863 66.4342 19.6279ZM64.3342 21.9707C63.7376 22.5656 63.02 23.0252 62.2301 23.3182C61.4403 23.6112 60.5966 23.7308 59.7564 23.6689C58.9162 23.607 58.0991 23.3651 57.3607 22.9595C56.6223 22.5539 55.9798 21.9941 55.4769 21.3182C54.9739 20.6424 54.6223 19.8662 54.4459 19.0424C54.2694 18.2186 54.2723 17.3665 54.4544 16.5439C54.6364 15.7213 54.9933 14.9475 55.5009 14.2751C56.0084 13.6027 56.6547 13.0473 57.3958 12.6467C57.1764 13.7391 57.2293 14.8686 57.5498 15.9357C57.8702 17.0027 58.4484 17.9745 59.2333 18.7652C60.024 19.5502 60.9957 20.1285 62.0628 20.449C63.1299 20.7695 64.2595 20.8222 65.3518 20.6027C65.0813 21.106 64.7384 21.5669 64.3342 21.9707Z" fill="white"/>
</g>
<circle cx="20" cy="18" r="14" fill="#333333"/>
<g clip-path="url(#clip1_1245_44)">
<path d="M23.5 17.9997C23.5 16.0696 21.9298 14.4997 20 14.4997C18.0702 14.4997 16.5 16.0696 16.5 17.9997C16.5 19.9298 18.0702 21.4997 20 21.4997C21.9298 21.4997 23.5 19.9298 23.5 17.9997ZM20 20.0997C18.842 20.0997 17.9 19.1577 17.9 17.9997C17.9 16.8417 18.842 15.8997 20 15.8997C21.158 15.8997 22.1 16.8417 22.1 17.9997C22.1 19.1577 21.158 20.0997 20 20.0997Z" fill="white"/>
<path d="M20.6998 12.4V11.7C20.6998 11.3134 20.3864 11 19.9998 11C19.6132 11 19.2998 11.3134 19.2998 11.7V12.4C19.2998 12.7862 19.6132 13.1 19.9998 13.1C20.3864 13.1 20.6998 12.7862 20.6998 12.4Z" fill="white"/>
<path d="M24.9496 13.0501C24.6762 12.7767 24.2325 12.7767 23.9598 13.0501L23.4648 13.545C23.1914 13.8185 23.1914 14.2618 23.4648 14.5349C23.6012 14.6716 23.7807 14.74 23.9598 14.74C24.1389 14.74 24.318 14.6716 24.4547 14.5349L24.9496 14.04C25.223 13.7669 25.223 13.3235 24.9496 13.0501Z" fill="white"/>
<path d="M26.3004 17.3H25.6004C25.2142 17.3 24.9004 17.6134 24.9004 18C24.9004 18.3866 25.2142 18.7 25.6004 18.7H26.3004C26.687 18.7 27.0004 18.3866 27.0004 18C27.0004 17.6134 26.687 17.3 26.3004 17.3Z" fill="white"/>
<path d="M23.9598 22.9499C24.0961 23.0866 24.2756 23.155 24.4547 23.155C24.6338 23.155 24.8129 23.0866 24.9496 22.9499C25.223 22.6765 25.223 22.2332 24.9496 21.9601L24.4547 21.4651C24.1812 21.1917 23.7376 21.1917 23.4648 21.4651C23.1914 21.7383 23.1914 22.1816 23.4648 22.455L23.9598 22.9499Z" fill="white"/>
<path d="M19.2998 23.6V24.3C19.2998 24.6866 19.6132 25 19.9998 25C20.3864 25 20.6998 24.6866 20.6998 24.3V23.6C20.6998 23.2138 20.3864 22.9 19.9998 22.9C19.6132 22.9 19.2998 23.2138 19.2998 23.6Z" fill="white"/>
<path d="M15.0498 22.9499C15.1865 23.0866 15.3656 23.155 15.5447 23.155C15.7238 23.155 15.9033 23.0866 16.0396 22.9499L16.5346 22.455C16.808 22.1816 16.808 21.7383 16.5346 21.4651C16.2618 21.1917 15.8182 21.1917 15.5447 21.4651L15.0498 21.9601C14.7764 22.2332 14.7764 22.6765 15.0498 22.9499Z" fill="white"/>
<path d="M13 18C13 18.3866 13.3134 18.7 13.7 18.7H14.4C14.7862 18.7 15.1 18.3866 15.1 18C15.1 17.6134 14.7862 17.3 14.4 17.3H13.7C13.3134 17.3 13 17.6134 13 18Z" fill="white"/>
<path d="M16.5346 14.5349C16.808 14.2618 16.808 13.8185 16.5346 13.545L16.0396 13.0501C15.7669 12.7767 15.3232 12.7767 15.0498 13.0501C14.7764 13.3235 14.7764 13.7668 15.0498 14.04L15.5447 14.5349C15.6814 14.6716 15.8605 14.74 16.0396 14.74C16.2188 14.74 16.3982 14.6716 16.5346 14.5349Z" fill="white"/>
</g>
<defs>
<linearGradient id="paint0_linear_1245_44" x1="60" y1="4" x2="60" y2="32" gradientUnits="userSpaceOnUse">
<stop stop-color="#F5C635"/>
<stop offset="1" stop-color="#ECAC1A"/>
</linearGradient>
<clipPath id="clip0_1245_44">
<rect width="14" height="14" fill="white" transform="translate(53 11)"/>
</clipPath>
<clipPath id="clip1_1245_44">
<rect width="14" height="14" fill="white" transform="translate(13 11)"/>
</clipPath>
</defs>
</svg>
