<svg width="90" height="36" viewBox="0 0 90 36" fill="none" xmlns="http://www.w3.org/2000/svg">
<rect x="0.5" y="0.5" width="89" height="35" rx="17.5" fill="black" stroke="#ECAC1A"/>
<g clip-path="url(#clip0_1245_64)">
<path d="M20 28C25.5228 28 30 23.5228 30 18C30 12.4772 25.5228 8 20 8C14.4772 8 10 12.4772 10 18C10 23.5228 14.4772 28 20 28Z" fill="#F0F0F0"/>
<path d="M19.5654 18H30.0002C30.0002 17.0974 29.8799 16.2231 29.6557 15.3913H19.5654V18Z" fill="#D80027"/>
<path d="M19.5654 12.7826H28.5325C27.9203 11.7837 27.1376 10.9008 26.225 10.1739H19.5654V12.7826Z" fill="#D80027"/>
<path d="M20.0002 28C22.3537 28 24.5169 27.1866 26.2251 25.8261H13.7754C15.4836 27.1866 17.6468 28 20.0002 28Z" fill="#D80027"/>
<path d="M11.468 23.2174H28.5325C29.0239 22.4155 29.4051 21.5389 29.6557 20.6087H10.3447C10.5954 21.5389 10.9765 22.4155 11.468 23.2174Z" fill="#D80027"/>
<path d="M14.6322 9.56164H15.5435L14.6958 10.1775L15.0196 11.1739L14.172 10.5581L13.3244 11.1739L13.6041 10.3131C12.8577 10.9348 12.2036 11.6631 11.6645 12.4747H11.9565L11.417 12.8667C11.3329 13.0069 11.2523 13.1494 11.175 13.2939L11.4327 14.087L10.952 13.7377C10.8325 13.9909 10.7232 14.2497 10.6249 14.514L10.9088 15.3877H11.9565L11.1089 16.0036L11.4327 17L10.585 16.3842L10.0773 16.7531C10.0265 17.1616 10 17.5777 10 18H20C20 12.4772 20 11.8261 20 8C18.0245 8 16.183 8.57305 14.6322 9.56164ZM15.0196 17L14.172 16.3842L13.3244 17L13.6482 16.0036L12.8005 15.3877H13.8482L14.172 14.3913L14.4957 15.3877H15.5435L14.6958 16.0036L15.0196 17ZM14.6958 13.0905L15.0196 14.087L14.172 13.4711L13.3244 14.087L13.6482 13.0905L12.8005 12.4747H13.8482L14.172 11.4782L14.4957 12.4747H15.5435L14.6958 13.0905ZM18.6066 17L17.7589 16.3842L16.9113 17L17.2351 16.0036L16.3875 15.3877H17.4352L17.7589 14.3913L18.0827 15.3877H19.1304L18.2828 16.0036L18.6066 17ZM18.2828 13.0905L18.6066 14.087L17.7589 13.4711L16.9113 14.087L17.2351 13.0905L16.3875 12.4747H17.4352L17.7589 11.4782L18.0827 12.4747H19.1304L18.2828 13.0905ZM18.2828 10.1775L18.6066 11.1739L17.7589 10.5581L16.9113 11.1739L17.2351 10.1775L16.3875 9.56164H17.4352L17.7589 8.5652L18.0827 9.56164H19.1304L18.2828 10.1775Z" fill="#0052B4"/>
</g>
<path d="M36.156 23C35.792 23 35.498 22.8927 35.274 22.678C35.0593 22.454 34.952 22.1647 34.952 21.81V13.2H42.134V14.614H36.59V17.274H41.714V18.702H36.59V21.586H42.134V23H36.156ZM43.62 13.2H45.09L50.046 20.368V13.2H51.642V23H50.158L45.216 15.86V23H43.62V13.2Z" fill="white"/>
<path d="M71.0837 16.8333L74.0003 19.75L76.917 16.8333" stroke="white" stroke-width="1.45833" stroke-linecap="round" stroke-linejoin="round"/>
<defs>
<clipPath id="clip0_1245_64">
<rect width="20" height="20" fill="white" transform="translate(10 8)"/>
</clipPath>
</defs>
</svg>
