<svg width="542" height="542" viewBox="0 0 542 542" fill="none" xmlns="http://www.w3.org/2000/svg">
<path d="M270.936 541C420.017 541 540.872 420.118 540.872 271.001C540.872 121.883 420.017 1 270.936 1C121.855 1 1 121.883 1 271.001C1 420.118 121.855 541 270.936 541Z" fill="white" fill-opacity="0.02" stroke="white" stroke-miterlimit="10"/>
<path d="M271.252 541C406.952 541 516.96 420.118 516.96 271.001C516.96 121.883 406.952 1 271.252 1C135.551 1 25.5433 121.883 25.5433 271.001C25.5433 420.118 135.551 541 271.252 541Z" fill="white" fill-opacity="0.02" stroke="white" stroke-miterlimit="10"/>
<path d="M271.146 541C385.867 541 478.867 420.118 478.867 271.001C478.867 121.883 385.867 1 271.146 1C156.425 1 63.4255 121.883 63.4255 271.001C63.4255 420.118 156.425 541 271.146 541Z" fill="white" fill-opacity="0.02" stroke="white" stroke-miterlimit="10"/>
<path d="M270.831 541C364.688 541 440.774 420.118 440.774 271.001C440.774 121.883 364.688 1 270.831 1C176.973 1 100.887 121.883 100.887 271.001C100.887 420.118 176.973 541 270.831 541Z" fill="white" fill-opacity="0.02" stroke="white" stroke-miterlimit="10"/>
<path d="M270.305 541C343.415 541 402.682 420.118 402.682 271.001C402.682 121.883 343.415 1 270.305 1C197.194 1 137.927 121.883 137.927 271.001C137.927 420.118 197.194 541 270.305 541Z" fill="white" fill-opacity="0.02" stroke="white" stroke-miterlimit="10"/>
<path d="M270.936 541C323.24 541 365.641 420.118 365.641 271.001C365.641 121.883 323.24 1 270.936 1C218.631 1 176.23 121.883 176.23 271.001C176.23 420.118 218.631 541 270.936 541Z" fill="white" fill-opacity="0.02" stroke="white" stroke-miterlimit="10"/>
<path d="M270.192 541C301.629 541 327.114 420.118 327.114 271.001C327.114 121.883 301.629 1 270.192 1C238.755 1 213.271 121.883 213.271 271.001C213.271 420.118 238.755 541 270.192 541Z" fill="white" fill-opacity="0.02" stroke="white" stroke-miterlimit="10"/>
<path d="M270.594 541C281.098 541 289.614 420.118 289.614 271.001C289.614 121.883 281.098 1 270.594 1C260.089 1 251.574 121.883 251.574 271.001C251.574 420.118 260.089 541 270.594 541Z" fill="white" fill-opacity="0.02" stroke="white" stroke-miterlimit="10"/>
<path d="M116.783 164.138C119.278 164.138 121.301 162.115 121.301 159.62C121.301 157.125 119.278 155.102 116.783 155.102C114.288 155.102 112.266 157.125 112.266 159.62C112.266 162.115 114.288 164.138 116.783 164.138Z" fill="#F5C635" stroke="white" stroke-opacity="0.02" stroke-width="2"/>
<path d="M142.518 342.035C145.013 342.035 147.035 340.013 147.035 337.518C147.035 335.023 145.013 333 142.518 333C140.023 333 138 335.023 138 337.518C138 340.013 140.023 342.035 142.518 342.035Z" fill="#F5C635" stroke="white" stroke-opacity="0.02" stroke-width="2"/>
<path d="M289.518 277.035C292.013 277.035 294.035 275.013 294.035 272.518C294.035 270.023 292.013 268 289.518 268C287.023 268 285 270.023 285 272.518C285 275.013 287.023 277.035 289.518 277.035Z" fill="#F5C635" stroke="white" stroke-opacity="0.02" stroke-width="2"/>
<path d="M440.518 268.035C443.013 268.035 445.035 266.013 445.035 263.518C445.035 261.023 443.013 259 440.518 259C438.023 259 436 261.023 436 263.518C436 266.013 438.023 268.035 440.518 268.035Z" fill="#F5C635" stroke="white" stroke-opacity="0.02" stroke-width="2"/>
<path d="M347.518 436.035C350.013 436.035 352.035 434.013 352.035 431.518C352.035 429.023 350.013 427 347.518 427C345.023 427 343 429.023 343 431.518C343 434.013 345.023 436.035 347.518 436.035Z" fill="#F5C635" stroke="white" stroke-opacity="0.02" stroke-width="2"/>
<path d="M86.5176 453.035C89.0126 453.035 91.0353 451.013 91.0353 448.518C91.0353 446.023 89.0126 444 86.5176 444C84.0226 444 82 446.023 82 448.518C82 451.013 84.0226 453.035 86.5176 453.035Z" fill="#F5C635" stroke="white" stroke-opacity="0.02" stroke-width="2"/>
<path d="M102.262 63.7326C104.757 63.7326 106.779 61.71 106.779 59.215C106.779 56.72 104.757 54.6974 102.262 54.6974C99.7668 54.6974 97.7442 56.72 97.7442 59.215C97.7442 61.71 99.7668 63.7326 102.262 63.7326Z" fill="#F5C635" stroke="white" stroke-opacity="0.02" stroke-width="2"/>
<path d="M315.019 105.103C317.514 105.103 319.537 103.08 319.537 100.585C319.537 98.0903 317.514 96.0677 315.019 96.0677C312.524 96.0677 310.502 98.0903 310.502 100.585C310.502 103.08 312.524 105.103 315.019 105.103Z" fill="#F5C635" stroke="white" stroke-opacity="0.02" stroke-width="2"/>
<path d="M388.008 151.004C390.503 151.004 392.526 148.981 392.526 146.486C392.526 143.991 390.503 141.969 388.008 141.969C385.513 141.969 383.491 143.991 383.491 146.486C383.491 148.981 385.513 151.004 388.008 151.004Z" fill="#F5C635" stroke="white" stroke-opacity="0.02" stroke-width="2"/>
<path d="M496.869 170.405C499.364 170.405 501.387 168.382 501.387 165.887C501.387 163.392 499.364 161.369 496.869 161.369C494.374 161.369 492.352 163.392 492.352 165.887C492.352 168.382 494.374 170.405 496.869 170.405Z" fill="#F5C635" stroke="white" stroke-opacity="0.02" stroke-width="2"/>
<path d="M321.754 12.9212C324.249 12.9212 326.272 10.8986 326.272 8.40361C326.272 5.9086 324.249 3.88599 321.754 3.88599C319.259 3.88599 317.236 5.9086 317.236 8.40361C317.236 10.8986 319.259 12.9212 321.754 12.9212Z" fill="#F5C635" stroke="white" stroke-opacity="0.02" stroke-width="2"/>
<g clip-path="url(#clip0_1_2530)">
<path fill-rule="evenodd" clip-rule="evenodd" d="M209.995 132.672C214.73 128.881 217.58 122.108 217.58 112.911C217.58 92.1514 203.05 66.9074 185.127 56.5274C175.692 51.0631 167.197 50.8072 161.267 54.8189L161.265 54.816L161.143 54.9037C160.994 55.0065 160.847 55.112 160.701 55.2202L154.975 59.3255L155.9 60.8305C153.833 64.5791 152.673 69.4581 152.673 75.3221C152.673 96.0823 167.203 121.327 185.127 131.706C191.35 135.31 197.164 136.648 202.102 135.991L203.109 137.629L210.013 132.7L209.995 132.672Z" fill="url(#paint0_linear_1_2530)"/>
<path d="M209.995 132.672L209.766 132.384L209.51 132.589L209.684 132.868L209.995 132.672ZM161.267 54.8189L160.956 55.0149L161.158 55.3373L161.472 55.1244L161.267 54.8189ZM161.265 54.816L161.576 54.6201L161.369 54.2888L161.051 54.5163L161.265 54.816ZM161.143 54.9037L161.351 55.2073L161.356 55.2035L161.143 54.9037ZM160.701 55.2202L160.915 55.52L160.92 55.5162L160.701 55.2202ZM154.975 59.3255L154.762 59.0257L154.482 59.2258L154.663 59.5189L154.975 59.3255ZM155.9 60.8305L156.222 61.0089L156.326 60.8204L156.213 60.6371L155.9 60.8305ZM202.102 135.991L202.415 135.798L202.29 135.594L202.054 135.626L202.102 135.991ZM203.109 137.629L202.796 137.823L203.002 138.158L203.322 137.93L203.109 137.629ZM210.013 132.7L210.226 133L210.508 132.798L210.324 132.504L210.013 132.7ZM217.213 112.911C217.213 122.038 214.384 128.686 209.766 132.384L210.224 132.96C215.074 129.076 217.948 122.177 217.948 112.911H217.213ZM184.943 56.8465C193.836 61.9966 201.908 70.8489 207.757 81.0112C213.606 91.1737 217.213 102.611 217.213 112.911H217.948C217.948 102.452 214.29 90.8875 208.393 80.6427C202.496 70.3981 194.341 61.4383 185.311 56.2083L184.943 56.8465ZM161.472 55.1244C167.244 51.22 175.578 51.423 184.943 56.8465L185.311 56.2083C175.805 50.7032 167.15 50.3945 161.061 54.5134L161.472 55.1244ZM161.578 54.623L161.576 54.6201L160.954 55.012L160.956 55.0149L161.578 54.623ZM161.051 54.5163L160.929 54.6039L161.356 55.2035L161.479 55.1158L161.051 54.5163ZM160.92 55.5162C161.062 55.4106 161.206 55.3076 161.351 55.2073L160.934 54.6003C160.782 54.7054 160.631 54.8134 160.483 54.9242L160.92 55.5162ZM160.488 54.9204L154.762 59.0257L155.189 59.6253L160.915 55.52L160.488 54.9204ZM154.663 59.5189L155.588 61.0239L156.213 60.6371L155.288 59.1321L154.663 59.5189ZM153.041 75.3221C153.041 69.5048 154.191 64.6907 156.222 61.0089L155.579 60.6521C153.474 64.4677 152.306 69.4115 152.306 75.3221H153.041ZM185.311 131.387C176.418 126.237 168.346 117.385 162.497 107.223C156.648 97.06 153.041 85.6223 153.041 75.3221H152.306C152.306 85.7821 155.964 97.3464 161.861 107.591C167.757 117.836 175.913 126.796 184.943 132.026L185.311 131.387ZM202.054 135.626C197.217 136.27 191.485 134.963 185.311 131.387L184.943 132.026C191.215 135.657 197.11 137.027 202.151 136.356L202.054 135.626ZM201.79 136.185L202.796 137.823L203.422 137.436L202.415 135.798L201.79 136.185ZM203.322 137.93L210.226 133L209.8 132.4L202.896 137.329L203.322 137.93ZM210.324 132.504L210.306 132.476L209.684 132.868L209.702 132.896L210.324 132.504Z" fill="#1A1A1A"/>
<mask id="mask0_1_2530" style="mask-type:alpha" maskUnits="userSpaceOnUse" x="152" y="51" width="66" height="88">
<path fill-rule="evenodd" clip-rule="evenodd" d="M209.996 132.671C214.73 128.88 217.581 122.107 217.581 112.91C217.581 92.1504 203.051 66.9065 185.127 56.5264C175.692 51.0621 167.197 50.8062 161.267 54.818L161.265 54.8151L161.139 54.9053C160.993 55.0065 160.848 55.1102 160.705 55.2165L154.976 59.3245L155.901 60.8296C153.833 64.5783 152.674 69.4572 152.674 75.3212C152.674 96.0813 167.204 121.326 185.127 131.705C191.35 135.309 197.164 136.647 202.103 135.99L203.11 137.628L210.013 132.699L209.996 132.671Z" fill="#B0F127"/>
<path d="M209.996 132.671L209.767 132.383L209.51 132.588L209.684 132.867L209.996 132.671ZM161.267 54.818L160.956 55.0139L161.158 55.3364L161.473 55.1235L161.267 54.818ZM161.265 54.8151L161.576 54.6192L161.369 54.2878L161.052 54.5153L161.265 54.8151ZM161.139 54.9053L161.348 55.2088L161.353 55.2051L161.139 54.9053ZM160.705 55.2165L160.919 55.5163L160.924 55.5126L160.705 55.2165ZM154.976 59.3245L154.762 59.0247L154.483 59.2249L154.663 59.5179L154.976 59.3245ZM155.901 60.8296L156.222 61.008L156.326 60.8196L156.213 60.6363L155.901 60.8296ZM202.103 135.99L202.415 135.797L202.29 135.593L202.054 135.625L202.103 135.99ZM203.11 137.628L202.797 137.822L203.003 138.157L203.322 137.929L203.11 137.628ZM210.013 132.699L210.226 132.999L210.509 132.797L210.324 132.503L210.013 132.699ZM217.213 112.91C217.213 122.037 214.385 128.685 209.767 132.383L210.225 132.959C215.075 129.076 217.948 122.176 217.948 112.91H217.213ZM184.944 56.8456C193.837 61.9956 201.908 70.8479 207.757 81.0103C213.607 91.1727 217.213 102.61 217.213 112.91H217.948C217.948 102.451 214.29 90.8865 208.394 80.6418C202.497 70.3971 194.342 61.4373 185.311 56.2073L184.944 56.8456ZM161.473 55.1235C167.244 51.219 175.579 51.422 184.944 56.8456L185.311 56.2073C175.805 50.7022 167.15 50.3935 161.062 54.5125L161.473 55.1235ZM161.578 54.6221L161.576 54.6192L160.954 55.011L160.956 55.0139L161.578 54.6221ZM161.052 54.5153L160.926 54.6056L161.353 55.2051L161.479 55.1149L161.052 54.5153ZM160.924 55.5126C161.064 55.4087 161.205 55.3075 161.348 55.2088L160.931 54.6019C160.781 54.7054 160.633 54.8116 160.487 54.9205L160.924 55.5126ZM160.492 54.9167L154.762 59.0247L155.189 59.6243L160.919 55.5163L160.492 54.9167ZM154.663 59.5179L155.588 61.0231L156.213 60.6363L155.288 59.1311L154.663 59.5179ZM153.041 75.3212C153.041 69.5039 154.192 64.6898 156.222 61.008L155.579 60.6513C153.475 64.4668 152.307 69.4106 152.307 75.3212H153.041ZM185.311 131.386C176.418 126.236 168.347 117.384 162.498 107.222C156.648 97.059 153.041 85.6213 153.041 75.3212H152.307C152.307 85.7811 155.965 97.3454 161.861 107.59C167.758 117.835 175.913 126.795 184.944 132.025L185.311 131.386ZM202.054 135.625C197.217 136.269 191.485 134.962 185.311 131.386L184.944 132.025C191.215 135.656 197.11 137.026 202.151 136.355L202.054 135.625ZM201.79 136.184L202.797 137.822L203.422 137.435L202.415 135.797L201.79 136.184ZM203.322 137.929L210.226 132.999L209.8 132.399L202.897 137.328L203.322 137.929ZM210.324 132.503L210.307 132.475L209.684 132.867L209.702 132.895L210.324 132.503Z" fill="#060606"/>
</mask>
<g mask="url(#mask0_1_2530)">
<path d="M256.344 92.1654L187.691 131.924L187.691 166.115L256.344 126.356L256.344 92.1654Z" fill="url(#paint1_linear_1_2530)"/>
</g>
<path d="M209.995 132.672L209.766 132.384L209.51 132.589L209.684 132.868L209.995 132.672ZM161.267 54.8189L160.956 55.0149L161.158 55.3373L161.472 55.1244L161.267 54.8189ZM161.265 54.816L161.576 54.6201L161.369 54.2888L161.051 54.5163L161.265 54.816ZM161.143 54.9037L161.351 55.2073L161.356 55.2035L161.143 54.9037ZM160.701 55.2202L160.915 55.52L160.92 55.5162L160.701 55.2202ZM154.975 59.3255L154.762 59.0257L154.482 59.2258L154.663 59.5189L154.975 59.3255ZM155.9 60.8305L156.222 61.0089L156.326 60.8204L156.213 60.6371L155.9 60.8305ZM202.102 135.991L202.415 135.798L202.29 135.594L202.054 135.626L202.102 135.991ZM203.109 137.629L202.796 137.823L203.002 138.158L203.322 137.93L203.109 137.629ZM210.013 132.7L210.226 133L210.508 132.798L210.324 132.504L210.013 132.7ZM217.213 112.911C217.213 122.038 214.384 128.686 209.766 132.384L210.224 132.96C215.074 129.076 217.948 122.177 217.948 112.911H217.213ZM184.943 56.8465C193.836 61.9966 201.908 70.8489 207.757 81.0112C213.606 91.1737 217.213 102.611 217.213 112.911H217.948C217.948 102.452 214.29 90.8875 208.393 80.6427C202.496 70.3981 194.341 61.4383 185.311 56.2083L184.943 56.8465ZM161.472 55.1244C167.244 51.22 175.578 51.423 184.943 56.8465L185.311 56.2083C175.805 50.7032 167.15 50.3945 161.061 54.5134L161.472 55.1244ZM161.578 54.623L161.576 54.6201L160.954 55.012L160.956 55.0149L161.578 54.623ZM161.051 54.5163L160.929 54.6039L161.356 55.2035L161.479 55.1158L161.051 54.5163ZM160.92 55.5162C161.062 55.4106 161.206 55.3076 161.351 55.2073L160.934 54.6003C160.782 54.7054 160.631 54.8134 160.483 54.9242L160.92 55.5162ZM160.488 54.9204L154.762 59.0257L155.189 59.6253L160.915 55.52L160.488 54.9204ZM154.663 59.5189L155.588 61.0239L156.213 60.6371L155.288 59.1321L154.663 59.5189ZM153.041 75.3221C153.041 69.5048 154.191 64.6907 156.222 61.0089L155.579 60.6521C153.474 64.4677 152.306 69.4115 152.306 75.3221H153.041ZM185.311 131.387C176.418 126.237 168.346 117.385 162.497 107.223C156.648 97.06 153.041 85.6223 153.041 75.3221H152.306C152.306 85.7821 155.964 97.3464 161.861 107.591C167.757 117.836 175.913 126.796 184.943 132.026L185.311 131.387ZM202.054 135.626C197.217 136.27 191.485 134.963 185.311 131.387L184.943 132.026C191.215 135.657 197.11 137.027 202.151 136.356L202.054 135.626ZM201.79 136.185L202.796 137.823L203.422 137.436L202.415 135.798L201.79 136.185ZM203.322 137.93L210.226 133L209.8 132.4L202.896 137.329L203.322 137.93ZM210.324 132.504L210.306 132.476L209.684 132.868L209.702 132.896L210.324 132.504Z" fill="#1A1A1A"/>
<path d="M179.153 135.974C197.076 146.354 211.606 137.939 211.606 117.179C211.606 96.4187 197.076 71.1746 179.153 60.7946C161.229 50.4145 146.699 58.8292 146.699 79.5893C146.699 100.349 161.229 125.594 179.153 135.974Z" fill="white" stroke="#1A1A1A" stroke-width="1.5"/>
<mask id="mask1_1_2530" style="mask-type:alpha" maskUnits="userSpaceOnUse" x="146" y="55" width="67" height="87">
<path d="M179.153 135.974C197.076 146.354 211.606 137.939 211.606 117.179C211.606 96.4187 197.076 71.1746 179.153 60.7946C161.229 50.4145 146.699 58.8292 146.699 79.5893C146.699 100.349 161.229 125.594 179.153 135.974Z" fill="#B0F127" stroke="#060606" stroke-width="1.5"/>
</mask>
<g mask="url(#mask1_1_2530)">
<path d="M189.65 101.801C190.166 98.106 187.541 94.4389 183.951 90.9279L185.116 86.1925L182.273 83.7253L181.139 88.3361C180.392 87.6875 179.624 87.0394 178.861 86.396L180.003 81.7553L177.162 79.2891L175.996 84.0222C175.378 83.5007 174.771 82.9877 174.181 82.4765L174.184 82.4615L170.263 79.0569L169.507 82.1361C169.507 82.1361 171.617 83.9176 171.572 83.9265C172.723 84.9263 172.932 85.9294 172.897 86.6089L171.57 92.0035C171.65 92.0733 171.753 92.1666 171.866 92.2845C171.771 92.2025 171.67 92.114 171.566 92.0241L169.706 99.5809C169.565 99.9047 169.208 100.306 168.403 99.6089C168.432 99.6728 166.337 97.8147 166.337 97.8147L164.926 100.766L168.625 103.978C169.314 104.576 169.988 105.175 170.652 105.757L169.476 110.547L172.315 113.013L173.481 108.274C174.256 108.967 175.009 109.628 175.746 110.267L174.585 114.983L177.428 117.45L178.605 112.67C183.453 116.54 187.098 118.223 188.633 114.033C189.869 110.659 188.571 107.549 186.02 104.534C187.878 105.113 189.277 104.508 189.65 101.801ZM183.155 108.589C182.276 112.17 176.332 106.517 174.405 104.846L175.966 98.5015C177.893 100.175 184.073 104.857 183.155 108.589ZM184.034 98.4892C183.232 101.745 178.285 96.9898 176.68 95.5969L178.095 89.8419C179.7 91.2346 184.869 95.0928 184.034 98.4892Z" fill="#1A1A1A"/>
<path d="M179.153 135.974C197.076 146.354 211.606 137.939 211.606 117.179C211.606 96.4187 197.076 71.1746 179.153 60.7946C161.229 50.4145 146.699 58.8292 146.699 79.5893C146.699 100.349 161.229 125.594 179.153 135.974Z" stroke="#1A1A1A" stroke-width="1.5"/>
</g>
</g>
<path fill-rule="evenodd" clip-rule="evenodd" d="M182.74 447.105C186.84 443.89 189.308 438.145 189.308 430.346C189.308 412.74 176.725 391.331 161.203 382.528C153.032 377.894 145.675 377.677 140.54 381.079L140.538 381.077L140.43 381.152C140.302 381.239 140.176 381.327 140.051 381.418L135.091 384.901L135.892 386.177C134.101 389.356 133.097 393.494 133.097 398.468C133.097 416.074 145.68 437.483 161.203 446.286C166.592 449.342 171.627 450.477 175.904 449.92L176.776 451.309L182.755 447.128L182.74 447.105Z" fill="url(#paint2_linear_1_2530)"/>
<path d="M182.74 447.105L182.362 446.639L181.939 446.971L182.227 447.421L182.74 447.105ZM140.54 381.079L140.026 381.395L140.359 381.916L140.878 381.572L140.54 381.079ZM140.538 381.076L141.051 380.76L140.709 380.225L140.186 380.592L140.538 381.076ZM140.43 381.152L140.773 381.642L140.782 381.637L140.43 381.152ZM140.051 381.418L140.404 381.902L140.412 381.896L140.051 381.418ZM135.091 384.901L134.739 384.417L134.278 384.74L134.575 385.213L135.091 384.901ZM135.892 386.177L136.422 386.465L136.593 386.161L136.408 385.865L135.892 386.177ZM175.904 449.92L176.42 449.608L176.214 449.279L175.825 449.33L175.904 449.92ZM176.776 451.309L176.261 451.621L176.6 452.162L177.127 451.794L176.776 451.309ZM182.755 447.128L183.106 447.613L183.572 447.287L183.268 446.812L182.755 447.128ZM188.703 430.346C188.703 438.033 186.27 443.575 182.362 446.639L183.118 447.57C187.409 444.205 189.914 438.257 189.914 430.346H188.703ZM160.9 383.043C168.547 387.38 175.505 394.847 180.552 403.434C185.599 412.021 188.703 421.672 188.703 430.346H189.914C189.914 421.414 186.726 411.558 181.601 402.839C176.476 394.119 169.381 386.479 161.506 382.013L160.9 383.043ZM140.878 381.572C145.752 378.343 152.845 378.475 160.9 383.043L161.506 382.013C153.219 377.313 145.598 377.01 140.201 380.586L140.878 381.572ZM141.053 380.763L141.051 380.76L140.025 381.393L140.026 381.395L141.053 380.763ZM140.186 380.592L140.078 380.668L140.782 381.637L140.89 381.561L140.186 380.592ZM140.412 381.896C140.531 381.809 140.652 381.725 140.773 381.642L140.086 380.662C139.953 380.753 139.821 380.845 139.691 380.94L140.412 381.896ZM139.699 380.934L134.739 384.417L135.443 385.385L140.404 381.902L139.699 380.934ZM134.575 385.213L135.376 386.489L136.408 385.865L135.606 384.588L134.575 385.213ZM133.703 398.468C133.703 393.57 134.692 389.536 136.422 386.465L135.362 385.889C133.51 389.176 132.491 393.419 132.491 398.468H133.703ZM161.506 445.771C153.858 441.433 146.901 433.967 141.854 425.38C136.807 416.793 133.703 407.142 133.703 398.468H132.491C132.491 407.4 135.679 417.255 140.805 425.975C145.93 434.695 153.025 442.335 160.9 446.801L161.506 445.771ZM175.825 449.33C171.716 449.866 166.815 448.782 161.506 445.771L160.9 446.801C166.369 449.903 171.539 451.089 175.984 450.51L175.825 449.33ZM175.389 450.232L176.261 451.621L177.292 450.996L176.42 449.608L175.389 450.232ZM177.127 451.794L183.106 447.613L182.404 446.644L176.425 450.824L177.127 451.794ZM183.268 446.812L183.253 446.788L182.227 447.421L182.242 447.445L183.268 446.812Z" fill="#1A1A1A"/>
<mask id="mask2_1_2530" style="mask-type:alpha" maskUnits="userSpaceOnUse" x="132" y="378" width="58" height="75">
<path fill-rule="evenodd" clip-rule="evenodd" d="M182.74 447.103C186.84 443.888 189.308 438.144 189.308 430.345C189.308 412.739 176.725 391.33 161.203 382.527C153.032 377.892 145.675 377.675 140.54 381.077L140.538 381.075L140.43 381.151C140.302 381.237 140.176 381.326 140.051 381.417L135.091 384.899L135.892 386.176C134.101 389.355 133.097 393.493 133.097 398.466C133.097 416.072 145.68 437.481 161.203 446.284C166.592 449.34 171.627 450.476 175.904 449.918L176.776 451.307L182.755 447.127L182.74 447.103Z" fill="#B0F127"/>
<path d="M182.74 447.103L182.362 446.638L181.939 446.969L182.227 447.419L182.74 447.103ZM140.54 381.077L140.027 381.394L140.359 381.914L140.878 381.571L140.54 381.077ZM140.538 381.075L141.051 380.759L140.709 380.223L140.186 380.591L140.538 381.075ZM140.43 381.151L140.773 381.641L140.782 381.635L140.43 381.151ZM140.051 381.417L140.404 381.901L140.412 381.895L140.051 381.417ZM135.091 384.899L134.739 384.415L134.278 384.738L134.575 385.212L135.091 384.899ZM135.892 386.176L136.422 386.464L136.593 386.159L136.408 385.863L135.892 386.176ZM175.904 449.918L176.42 449.606L176.214 449.278L175.825 449.328L175.904 449.918ZM176.776 451.307L176.261 451.62L176.6 452.161L177.127 451.792L176.776 451.307ZM182.755 447.127L183.106 447.612L183.572 447.286L183.268 446.81L182.755 447.127ZM188.703 430.345C188.703 438.032 186.27 443.573 182.362 446.638L183.118 447.568C187.409 444.203 189.914 438.256 189.914 430.345H188.703ZM160.9 383.042C168.547 387.379 175.505 394.845 180.552 403.432C185.599 412.019 188.703 421.671 188.703 430.345H189.914C189.914 421.413 186.726 411.557 181.601 402.837C176.476 394.117 169.381 386.477 161.506 382.011L160.9 383.042ZM140.878 381.571C145.752 378.342 152.845 378.474 160.9 383.042L161.506 382.011C153.219 377.311 145.598 377.009 140.201 380.584L140.878 381.571ZM141.053 380.761L141.051 380.759L140.025 381.391L140.027 381.394L141.053 380.761ZM140.186 380.591L140.078 380.667L140.782 381.635L140.89 381.559L140.186 380.591ZM140.412 381.895C140.531 381.808 140.652 381.723 140.773 381.641L140.086 380.661C139.953 380.751 139.821 380.844 139.691 380.938L140.412 381.895ZM139.699 380.932L134.739 384.415L135.443 385.383L140.404 381.901L139.699 380.932ZM134.575 385.212L135.376 386.488L136.408 385.863L135.606 384.587L134.575 385.212ZM133.703 398.466C133.703 393.568 134.692 389.535 136.422 386.464L135.362 385.887C133.51 389.175 132.491 393.417 132.491 398.466H133.703ZM161.506 445.769C153.858 441.432 146.901 433.966 141.854 425.379C136.807 416.792 133.703 407.14 133.703 398.466H132.491C132.491 407.398 135.679 417.254 140.805 425.974C145.93 434.694 153.025 442.334 160.9 446.8L161.506 445.769ZM175.825 449.328C171.716 449.864 166.815 448.78 161.506 445.769L160.9 446.8C166.369 449.901 171.539 451.087 175.984 450.508L175.825 449.328ZM175.389 450.231L176.261 451.62L177.292 450.995L176.42 449.606L175.389 450.231ZM177.127 451.792L183.106 447.612L182.404 446.642L176.425 450.822L177.127 451.792ZM183.268 446.81L183.253 446.787L182.227 447.419L182.242 447.443L183.268 446.81Z" fill="#060606"/>
</mask>
<g mask="url(#mask2_1_2530)">
<path d="M222.878 412.751L163.423 446.469V475.466L222.878 441.747V412.751Z" fill="url(#paint3_linear_1_2530)"/>
</g>
<path d="M182.74 447.105L182.362 446.639L181.939 446.971L182.227 447.421L182.74 447.105ZM140.54 381.079L140.026 381.395L140.359 381.916L140.878 381.572L140.54 381.079ZM140.538 381.076L141.051 380.76L140.709 380.225L140.186 380.592L140.538 381.076ZM140.43 381.152L140.773 381.642L140.782 381.637L140.43 381.152ZM140.051 381.418L140.404 381.902L140.412 381.896L140.051 381.418ZM135.091 384.901L134.739 384.417L134.278 384.74L134.575 385.213L135.091 384.901ZM135.892 386.177L136.422 386.465L136.593 386.161L136.408 385.865L135.892 386.177ZM175.904 449.92L176.42 449.608L176.214 449.279L175.825 449.33L175.904 449.92ZM176.776 451.309L176.261 451.621L176.6 452.162L177.127 451.794L176.776 451.309ZM182.755 447.128L183.106 447.613L183.572 447.287L183.268 446.812L182.755 447.128ZM188.703 430.346C188.703 438.033 186.27 443.575 182.362 446.639L183.118 447.57C187.409 444.205 189.914 438.257 189.914 430.346H188.703ZM160.9 383.043C168.547 387.38 175.505 394.847 180.552 403.434C185.599 412.021 188.703 421.672 188.703 430.346H189.914C189.914 421.414 186.726 411.558 181.601 402.839C176.476 394.119 169.381 386.479 161.506 382.013L160.9 383.043ZM140.878 381.572C145.752 378.343 152.845 378.475 160.9 383.043L161.506 382.013C153.219 377.313 145.598 377.01 140.201 380.586L140.878 381.572ZM141.053 380.763L141.051 380.76L140.025 381.393L140.026 381.395L141.053 380.763ZM140.186 380.592L140.078 380.668L140.782 381.637L140.89 381.561L140.186 380.592ZM140.412 381.896C140.531 381.809 140.652 381.725 140.773 381.642L140.086 380.662C139.953 380.753 139.821 380.845 139.691 380.94L140.412 381.896ZM139.699 380.934L134.739 384.417L135.443 385.385L140.404 381.902L139.699 380.934ZM134.575 385.213L135.376 386.489L136.408 385.865L135.606 384.588L134.575 385.213ZM133.703 398.468C133.703 393.57 134.692 389.536 136.422 386.465L135.362 385.889C133.51 389.176 132.491 393.419 132.491 398.468H133.703ZM161.506 445.771C153.858 441.433 146.901 433.967 141.854 425.38C136.807 416.793 133.703 407.142 133.703 398.468H132.491C132.491 407.4 135.679 417.255 140.805 425.975C145.93 434.695 153.025 442.335 160.9 446.801L161.506 445.771ZM175.825 449.33C171.716 449.866 166.815 448.782 161.506 445.771L160.9 446.801C166.369 449.903 171.539 451.089 175.984 450.51L175.825 449.33ZM175.389 450.232L176.261 451.621L177.292 450.996L176.42 449.608L175.389 450.232ZM177.127 451.794L183.106 447.613L182.404 446.644L176.425 450.824L177.127 451.794ZM183.268 446.812L183.253 446.788L182.227 447.421L182.242 447.445L183.268 446.812Z" fill="#1A1A1A"/>
<path d="M156.03 449.905C171.552 458.708 184.136 451.572 184.136 433.965C184.136 416.359 171.552 394.95 156.03 386.147C140.508 377.344 127.924 384.48 127.924 402.087C127.924 419.693 140.508 441.102 156.03 449.905Z" fill="white" stroke="#1A1A1A" stroke-width="1.5"/>
<mask id="mask3_1_2530" style="mask-type:alpha" maskUnits="userSpaceOnUse" x="127" y="381" width="58" height="74">
<path d="M156.03 449.906C171.552 458.709 184.136 451.572 184.136 433.966C184.136 416.36 171.552 394.951 156.03 386.148C140.508 377.345 127.924 384.481 127.924 402.087C127.924 419.694 140.508 441.103 156.03 449.906Z" fill="#B0F127" stroke="#060606" stroke-width="1.5"/>
</mask>
<g mask="url(#mask3_1_2530)">
<path d="M147.952 420.499C148.103 420.415 148.31 420.434 148.53 420.559L168.504 431.887C168.869 432.094 169.052 432.691 168.794 432.834L164.848 435.017C164.697 435.101 164.49 435.082 164.269 434.957L144.295 423.629C143.93 423.422 143.748 422.825 144.006 422.682L147.952 420.499Z" fill="#1A1A1A"/>
<path d="M147.952 404.018C148.109 403.938 148.317 403.957 148.53 404.078L168.504 415.406C168.869 415.613 169.052 416.21 168.794 416.353L164.848 418.536C164.697 418.619 164.49 418.6 164.269 418.475L144.295 407.148C143.93 406.941 143.748 406.343 144.006 406.201L147.952 404.018Z" fill="#1A1A1A"/>
<path d="M164.848 421.801C164.697 421.546 164.49 421.329 164.269 421.204L144.295 409.877C143.93 409.67 143.748 410.06 144.006 410.495L147.952 417.154C148.103 417.408 148.31 417.625 148.53 417.75L168.504 429.078C168.869 429.285 169.052 428.894 168.794 428.459L164.848 421.801Z" fill="#1A1A1A"/>
<path d="M156.03 449.906C171.552 458.709 184.136 451.572 184.136 433.966C184.136 416.36 171.552 394.951 156.03 386.148C140.508 377.345 127.924 384.481 127.924 402.087C127.924 419.694 140.508 441.103 156.03 449.906Z" stroke="#1A1A1A" stroke-width="1.5"/>
</g>
<path fill-rule="evenodd" clip-rule="evenodd" d="M61.7379 282.147C65.5569 279.138 67.8567 273.76 67.8567 266.46C67.8567 249.979 56.134 229.938 41.6734 221.697C34.0615 217.359 27.2082 217.156 22.424 220.34L22.4221 220.337L22.2745 220.441C22.187 220.501 22.1003 220.562 22.0143 220.625L17.3475 223.917L18.094 225.112C16.4255 228.088 15.49 231.962 15.49 236.618C15.49 253.099 27.2127 273.141 41.6734 281.381C46.6945 284.243 51.3855 285.305 55.3702 284.783L56.1818 286.082L61.7516 282.169L61.7379 282.147Z" fill="url(#paint4_linear_1_2530)"/>
<path d="M61.7379 282.147L61.4242 281.759L61.0733 282.036L61.3121 282.411L61.7379 282.147ZM22.424 220.34L21.9982 220.604L22.2744 221.038L22.7052 220.752L22.424 220.34ZM22.4221 220.337L22.848 220.073L22.5641 219.627L22.1297 219.933L22.4221 220.337ZM22.2745 220.441L22.5617 220.849L22.5669 220.845L22.2745 220.441ZM22.0143 220.625L22.3068 221.029L22.3119 221.025L22.0143 220.625ZM17.3475 223.917L17.0551 223.513L16.6729 223.783L16.9195 224.178L17.3475 223.917ZM18.0941 225.112L18.5341 225.352L18.6763 225.099L18.5221 224.852L18.0941 225.112ZM55.3703 284.783L55.7983 284.523L55.6272 284.249L55.3041 284.291L55.3703 284.783ZM56.1818 286.082L55.7538 286.342L56.0357 286.794L56.4734 286.486L56.1818 286.082ZM61.7516 282.169L62.0433 282.573L62.4299 282.302L62.1775 281.905L61.7516 282.169ZM67.3539 266.46C67.3539 273.667 65.0845 278.874 61.4242 281.759L62.0517 282.535C66.0292 279.401 68.3596 273.854 68.3596 266.46H67.3539ZM41.422 222.127C48.5579 226.193 55.0466 233.191 59.7523 241.237C64.4582 249.282 67.3539 258.327 67.3539 266.46H68.3596C68.3596 258.112 65.394 248.896 60.6233 240.74C55.8526 232.584 49.2495 225.441 41.9248 221.267L41.422 222.127ZM22.7052 220.752C27.2723 217.712 33.9064 217.844 41.422 222.127L41.9248 221.267C34.2165 216.875 27.144 216.6 22.1429 219.929L22.7052 220.752ZM22.8499 220.076L22.848 220.073L21.9962 220.601L21.9982 220.604L22.8499 220.076ZM22.1297 219.933L21.9821 220.037L22.5669 220.845L22.7145 220.741L22.1297 219.933ZM22.3119 221.025C22.3945 220.965 22.4778 220.906 22.5617 220.849L21.9874 220.034C21.8964 220.096 21.8062 220.16 21.7168 220.225L22.3119 221.025ZM21.7219 220.221L17.0551 223.513L17.6399 224.321L22.3068 221.029L21.7219 220.221ZM16.9195 224.178L17.666 225.373L18.5221 224.852L17.7755 223.657L16.9195 224.178ZM15.9928 236.618C15.9928 232.025 16.916 228.238 18.5341 225.352L17.6541 224.872C15.9351 227.938 14.9872 231.899 14.9872 236.618H15.9928ZM41.9248 280.951C34.7889 276.885 28.3002 269.887 23.5944 261.842C18.8886 253.797 15.9928 244.751 15.9928 236.618H14.9872C14.9872 244.966 17.9528 254.182 22.7235 262.338C27.4942 270.494 34.0972 277.637 41.422 281.811L41.9248 280.951ZM55.3041 284.291C51.459 284.795 46.8795 283.775 41.9248 280.951L41.422 281.811C46.5094 284.711 51.3121 285.815 55.4364 285.275L55.3041 284.291ZM54.9422 285.043L55.7538 286.342L56.6099 285.822L55.7983 284.523L54.9422 285.043ZM56.4734 286.486L62.0433 282.573L61.4601 281.764L55.8903 285.677L56.4734 286.486ZM62.1775 281.905L62.1638 281.883L61.3121 282.411L61.3258 282.433L62.1775 281.905Z" fill="#1A1A1A"/>
<mask id="mask4_1_2530" style="mask-type:alpha" maskUnits="userSpaceOnUse" x="14" y="217" width="55" height="70">
<path fill-rule="evenodd" clip-rule="evenodd" d="M61.7386 282.147C65.5576 279.138 67.8574 273.76 67.8574 266.46C67.8574 249.979 56.1347 229.938 41.674 221.697C34.0622 217.359 27.2089 217.156 22.4247 220.34L22.4228 220.337L22.2752 220.441C22.1877 220.501 22.101 220.562 22.015 220.625L17.3482 223.917L18.0947 225.112C16.4262 228.088 15.4907 231.962 15.4907 236.618C15.4907 253.099 27.2134 273.141 41.674 281.381C46.6951 284.243 51.3862 285.305 55.3709 284.783L56.1825 286.082L61.7523 282.169L61.7386 282.147Z" fill="#B0F127"/>
<path d="M61.7386 282.147L61.4249 281.759L61.074 282.036L61.3128 282.411L61.7386 282.147ZM22.4247 220.34L21.9988 220.604L22.275 221.038L22.7059 220.752L22.4247 220.34ZM22.4228 220.337L22.8487 220.073L22.5648 219.627L22.1304 219.933L22.4228 220.337ZM22.2752 220.441L22.5624 220.849L22.5675 220.845L22.2752 220.441ZM22.015 220.625L22.3074 221.029L22.3126 221.025L22.015 220.625ZM17.3482 223.917L17.0557 223.513L16.6736 223.783L16.9202 224.178L17.3482 223.917ZM18.0947 225.112L18.5347 225.352L18.677 225.099L18.5228 224.852L18.0947 225.112ZM55.3709 284.783L55.799 284.523L55.6279 284.249L55.3048 284.291L55.3709 284.783ZM56.1825 286.082L55.7545 286.342L56.0364 286.794L56.4741 286.486L56.1825 286.082ZM61.7523 282.169L62.0439 282.573L62.4306 282.302L62.1782 281.905L61.7523 282.169ZM67.3546 266.46C67.3546 273.667 65.0852 278.874 61.4249 281.759L62.0524 282.535C66.0299 279.401 68.3603 273.854 68.3603 266.46H67.3546ZM41.4226 222.127C48.5585 226.193 55.0472 233.191 59.753 241.237C64.4588 249.282 67.3546 258.327 67.3546 266.46H68.3603C68.3603 258.112 65.3946 248.896 60.624 240.74C55.8533 232.584 49.2502 225.441 41.9254 221.267L41.4226 222.127ZM22.7059 220.752C27.273 217.712 33.907 217.844 41.4226 222.127L41.9254 221.267C34.2172 216.875 27.1447 216.6 22.1436 219.929L22.7059 220.752ZM22.8506 220.076L22.8487 220.073L21.9969 220.601L21.9988 220.604L22.8506 220.076ZM22.1304 219.933L21.9828 220.037L22.5675 220.845L22.7152 220.741L22.1304 219.933ZM22.3126 221.025C22.3952 220.965 22.4785 220.906 22.5624 220.849L21.988 220.034C21.8971 220.096 21.8069 220.16 21.7174 220.225L22.3126 221.025ZM21.7226 220.221L17.0557 223.513L17.6406 224.321L22.3074 221.029L21.7226 220.221ZM16.9202 224.178L17.6667 225.373L18.5228 224.852L17.7762 223.657L16.9202 224.178ZM15.9935 236.618C15.9935 232.025 16.9167 228.238 18.5347 225.352L17.6548 224.872C15.9357 227.938 14.9878 231.899 14.9878 236.618H15.9935ZM41.9254 280.951C34.7895 276.885 28.3009 269.887 23.5951 261.842C18.8892 253.797 15.9935 244.751 15.9935 236.618H14.9878C14.9878 244.966 17.9534 254.182 22.7241 262.338C27.4949 270.494 34.0979 277.637 41.4226 281.811L41.9254 280.951ZM55.3048 284.291C51.4596 284.795 46.8802 283.775 41.9254 280.951L41.4226 281.811C46.5101 284.711 51.3127 285.815 55.4371 285.275L55.3048 284.291ZM54.9429 285.043L55.7545 286.342L56.6105 285.822L55.799 284.523L54.9429 285.043ZM56.4741 286.486L62.0439 282.573L61.4607 281.764L55.8909 285.677L56.4741 286.486ZM62.1782 281.905L62.1645 281.883L61.3128 282.411L61.3265 282.433L62.1782 281.905Z" fill="#060606"/>
</mask>
<g mask="url(#mask4_1_2530)">
<path d="M99.1312 249.991L43.7427 281.555L43.7427 308.699L99.1312 277.135L99.1312 249.991Z" fill="url(#paint5_linear_1_2530)"/>
</g>
<path d="M61.7379 282.147L61.4242 281.759L61.0733 282.036L61.3121 282.411L61.7379 282.147ZM22.424 220.34L21.9982 220.604L22.2744 221.038L22.7052 220.752L22.424 220.34ZM22.4221 220.337L22.848 220.073L22.5641 219.627L22.1297 219.933L22.4221 220.337ZM22.2745 220.441L22.5617 220.849L22.5669 220.845L22.2745 220.441ZM22.0143 220.625L22.3068 221.029L22.3119 221.025L22.0143 220.625ZM17.3475 223.917L17.0551 223.513L16.6729 223.783L16.9195 224.178L17.3475 223.917ZM18.0941 225.112L18.5341 225.352L18.6763 225.099L18.5221 224.852L18.0941 225.112ZM55.3703 284.783L55.7983 284.523L55.6272 284.249L55.3041 284.291L55.3703 284.783ZM56.1818 286.082L55.7538 286.342L56.0357 286.794L56.4734 286.486L56.1818 286.082ZM61.7516 282.169L62.0433 282.573L62.4299 282.302L62.1775 281.905L61.7516 282.169ZM67.3539 266.46C67.3539 273.667 65.0845 278.874 61.4242 281.759L62.0517 282.535C66.0292 279.401 68.3596 273.854 68.3596 266.46H67.3539ZM41.422 222.127C48.5579 226.193 55.0466 233.191 59.7523 241.237C64.4582 249.282 67.3539 258.327 67.3539 266.46H68.3596C68.3596 258.112 65.394 248.896 60.6233 240.74C55.8526 232.584 49.2495 225.441 41.9248 221.267L41.422 222.127ZM22.7052 220.752C27.2723 217.712 33.9064 217.844 41.422 222.127L41.9248 221.267C34.2165 216.875 27.144 216.6 22.1429 219.929L22.7052 220.752ZM22.8499 220.076L22.848 220.073L21.9962 220.601L21.9982 220.604L22.8499 220.076ZM22.1297 219.933L21.9821 220.037L22.5669 220.845L22.7145 220.741L22.1297 219.933ZM22.3119 221.025C22.3945 220.965 22.4778 220.906 22.5617 220.849L21.9874 220.034C21.8964 220.096 21.8062 220.16 21.7168 220.225L22.3119 221.025ZM21.7219 220.221L17.0551 223.513L17.6399 224.321L22.3068 221.029L21.7219 220.221ZM16.9195 224.178L17.666 225.373L18.5221 224.852L17.7755 223.657L16.9195 224.178ZM15.9928 236.618C15.9928 232.025 16.916 228.238 18.5341 225.352L17.6541 224.872C15.9351 227.938 14.9872 231.899 14.9872 236.618H15.9928ZM41.9248 280.951C34.7889 276.885 28.3002 269.887 23.5944 261.842C18.8886 253.797 15.9928 244.751 15.9928 236.618H14.9872C14.9872 244.966 17.9528 254.182 22.7235 262.338C27.4942 270.494 34.0972 277.637 41.422 281.811L41.9248 280.951ZM55.3041 284.291C51.459 284.795 46.8795 283.775 41.9248 280.951L41.422 281.811C46.5094 284.711 51.3121 285.815 55.4364 285.275L55.3041 284.291ZM54.9422 285.043L55.7538 286.342L56.6099 285.822L55.7983 284.523L54.9422 285.043ZM56.4734 286.486L62.0433 282.573L61.4601 281.764L55.8903 285.677L56.4734 286.486ZM62.1775 281.905L62.1638 281.883L61.3121 282.411L61.3258 282.433L62.1775 281.905Z" fill="#1A1A1A"/>
<path d="M36.8538 284.77C51.3145 293.011 63.0372 286.33 63.0372 269.849C63.0372 253.368 51.3145 233.326 36.8539 225.086C22.3932 216.845 10.6705 223.526 10.6705 240.007C10.6705 256.488 22.3932 276.529 36.8538 284.77Z" fill="white" stroke="#1A1A1A" stroke-width="1.5"/>
<mask id="mask5_1_2530" style="mask-type:alpha" maskUnits="userSpaceOnUse" x="10" y="220" width="54" height="70">
<path d="M36.8538 284.77C51.3145 293.011 63.0372 286.33 63.0372 269.849C63.0372 253.368 51.3145 233.326 36.8539 225.086C22.3932 216.845 10.6705 223.526 10.6705 240.007C10.6705 256.488 22.3932 276.529 36.8538 284.77Z" fill="#B0F127" stroke="#060606" stroke-width="1.5"/>
</mask>
<g mask="url(#mask5_1_2530)">
<path d="M36.8538 284.77C51.3145 293.011 63.0372 286.33 63.0372 269.849C63.0372 253.368 51.3145 233.326 36.8539 225.086C22.3932 216.845 10.6705 223.526 10.6705 240.007C10.6705 256.488 22.3932 276.529 36.8538 284.77Z" stroke="#1A1A1A" stroke-width="1.5"/>
<path fill-rule="evenodd" clip-rule="evenodd" d="M46.8972 260.651C46.8972 266.972 42.401 269.534 36.8545 266.374C31.3081 263.213 26.8118 255.526 26.8118 249.205C26.8118 242.883 31.3081 240.321 36.8545 243.482C42.401 246.642 46.8972 254.329 46.8972 260.651ZM34.0087 257.861L32.0596 256.75C31.6501 256.517 31.4479 256.401 31.3245 256.241C31.1913 256.067 31.1098 255.857 31.1 255.672C31.0926 255.502 31.1938 255.357 31.396 255.067L36.2084 248.142C36.4131 247.848 36.5168 247.702 36.6475 247.7C36.7881 247.699 36.9559 247.795 37.0965 247.956C37.2273 248.107 37.3309 248.371 37.5357 248.898L38.525 251.43L38.53 251.443C38.7512 252.01 38.8634 252.297 38.9123 252.559C38.9666 252.846 38.9666 253.116 38.9123 253.341C38.863 253.549 38.7519 253.711 38.5275 254.03L35.9996 257.682L35.9931 257.692C35.7705 258.009 35.6576 258.169 35.5013 258.25C35.3311 258.339 35.1263 258.357 34.9018 258.305C34.697 258.253 34.4676 258.122 34.0087 257.861ZM38.9305 260.666L41.7232 262.257C42.1352 262.492 42.3425 262.61 42.466 262.588C42.5992 262.565 42.683 262.447 42.6905 262.271C42.6975 262.115 42.5987 261.864 42.4047 261.372C42.3981 261.355 42.3914 261.338 42.3845 261.321L40.9856 257.796L40.9697 257.756C40.7731 257.265 40.6739 257.018 40.5465 256.871C40.4059 256.709 40.2405 256.615 40.0999 256.617C39.9717 256.619 39.8681 256.76 39.6633 257.045L38.2694 258.979L38.2646 258.985C38.0605 259.27 37.9586 259.413 37.9659 259.582C37.9758 259.767 38.0572 259.979 38.1904 260.154C38.3113 260.313 38.5185 260.431 38.9305 260.666Z" fill="#1A1A1A"/>
</g>
<g clip-path="url(#clip1_1_2530)">
<path fill-rule="evenodd" clip-rule="evenodd" d="M404.701 174.04C400.605 170.719 398.138 164.783 398.138 156.725C398.138 138.534 410.71 116.414 426.218 107.318C434.381 102.53 441.731 102.306 446.862 105.822L446.863 105.82L446.926 105.865C447.084 105.975 447.24 106.088 447.393 106.205L452.305 109.771L451.505 111.089C453.294 114.374 454.297 118.649 454.297 123.787C454.297 141.978 441.725 164.098 426.218 173.194C420.834 176.352 415.804 177.524 411.531 176.949L410.659 178.385L404.686 174.066L404.701 174.04Z" fill="url(#paint6_linear_1_2530)"/>
<path d="M404.702 174.04L405.07 173.571L405.482 173.905L405.202 174.359L404.702 174.04ZM446.862 105.822L447.362 106.141L447.038 106.666L446.532 106.319L446.862 105.822ZM446.863 105.82L446.363 105.501L446.696 104.961L447.206 105.332L446.863 105.82ZM446.926 105.865L446.593 106.361L446.587 106.357L446.582 106.354L446.926 105.865ZM447.393 106.205L447.05 106.693L447.045 106.69L447.04 106.686L447.393 106.205ZM452.305 109.771L452.648 109.283L453.097 109.609L452.808 110.086L452.305 109.771ZM451.505 111.089L450.988 111.38L450.821 111.073L451.002 110.774L451.505 111.089ZM411.531 176.949L411.028 176.634L411.229 176.302L411.608 176.354L411.531 176.949ZM410.659 178.385L411.162 178.7L410.83 179.246L410.316 178.874L410.659 178.385ZM404.686 174.066L404.343 174.554L403.889 174.226L404.186 173.747L404.686 174.066ZM398.729 156.725C398.729 164.67 401.16 170.401 405.07 173.571L404.333 174.509C400.051 171.036 397.548 164.896 397.548 156.725H398.729ZM426.513 107.838C418.87 112.321 411.917 120.037 406.874 128.911C401.831 137.785 398.729 147.76 398.729 156.725H397.548C397.548 147.499 400.732 137.319 405.851 128.311C410.971 119.303 418.058 111.412 425.922 106.799L426.513 107.838ZM446.532 106.319C441.656 102.978 434.564 103.116 426.513 107.838L425.922 106.799C434.199 101.944 441.807 101.634 447.192 105.324L446.532 106.319ZM446.362 105.502L446.363 105.501L447.363 106.139L447.362 106.141L446.362 105.502ZM447.206 105.332L447.269 105.377L446.582 106.354L446.52 106.308L447.206 105.332ZM447.04 106.686C446.893 106.574 446.744 106.466 446.593 106.361L447.259 105.37C447.424 105.484 447.587 105.603 447.747 105.725L447.04 106.686ZM447.737 105.717L452.648 109.283L451.962 110.259L447.05 106.693L447.737 105.717ZM452.808 110.086L452.008 111.404L451.002 110.774L451.802 109.456L452.808 110.086ZM453.706 123.787C453.706 118.725 452.718 114.556 450.988 111.38L452.022 110.799C453.87 114.192 454.887 118.573 454.887 123.787H453.706ZM425.922 172.674C433.565 168.191 440.518 160.475 445.561 151.601C450.604 142.728 453.706 132.753 453.706 123.787H454.887C454.887 133.013 451.704 143.194 446.584 152.201C441.465 161.209 434.378 169.101 426.513 173.713L425.922 172.674ZM411.608 176.354C415.717 176.907 420.616 175.786 425.922 172.674L426.513 173.713C421.051 176.917 415.89 178.142 411.453 177.543L411.608 176.354ZM412.033 177.263L411.162 178.7L410.156 178.07L411.028 176.634L412.033 177.263ZM410.316 178.874L404.343 174.554L405.028 173.577L411.001 177.896L410.316 178.874ZM404.186 173.747L404.201 173.721L405.202 174.359L405.186 174.385L404.186 173.747Z" fill="#1A1A1A"/>
<mask id="mask6_1_2530" style="mask-type:alpha" maskUnits="userSpaceOnUse" x="397" y="102" width="58" height="78">
<path fill-rule="evenodd" clip-rule="evenodd" d="M404.698 174.037C400.602 170.715 398.135 164.78 398.135 156.722C398.135 138.531 410.707 116.411 426.215 107.315C434.378 102.527 441.728 102.303 446.859 105.818L446.86 105.817L446.922 105.862C447.081 105.972 447.237 106.085 447.39 106.202L452.302 109.768L451.502 111.086C453.291 114.371 454.294 118.646 454.294 123.784C454.294 141.975 441.722 164.095 426.215 173.191C420.831 176.349 415.801 177.522 411.528 176.946L410.656 178.382L404.683 174.062L404.698 174.037Z" fill="#B0F127"/>
<path d="M404.698 174.037L405.067 173.568L405.479 173.902L405.199 174.356L404.698 174.037ZM446.859 105.818L447.359 106.138L447.035 106.663L446.529 106.316L446.859 105.818ZM446.86 105.817L446.36 105.498L446.693 104.958L447.203 105.329L446.86 105.817ZM446.922 105.862L446.589 106.358L446.584 106.354L446.579 106.35L446.922 105.862ZM447.39 106.202L447.047 106.69L447.042 106.686L447.037 106.683L447.39 106.202ZM452.302 109.768L452.645 109.28L453.094 109.606L452.805 110.083L452.302 109.768ZM451.502 111.086L450.985 111.377L450.818 111.07L450.999 110.771L451.502 111.086ZM411.528 176.946L411.025 176.63L411.226 176.299L411.605 176.35L411.528 176.946ZM410.656 178.382L411.159 178.697L410.827 179.242L410.313 178.87L410.656 178.382ZM404.683 174.062L404.34 174.551L403.886 174.223L404.182 173.743L404.683 174.062ZM398.726 156.722C398.726 164.667 401.157 170.398 405.067 173.568L404.33 174.506C400.047 171.033 397.545 164.893 397.545 156.722H398.726ZM426.51 107.835C418.867 112.318 411.914 120.034 406.871 128.908C401.828 137.782 398.726 147.756 398.726 156.722H397.545C397.545 147.496 400.729 137.316 405.848 128.308C410.967 119.3 418.054 111.409 425.919 106.796L426.51 107.835ZM446.529 106.316C441.653 102.975 434.56 103.113 426.51 107.835L425.919 106.796C434.196 101.941 441.804 101.631 447.189 105.321L446.529 106.316ZM446.359 105.499L446.36 105.498L447.36 106.136L447.359 106.138L446.359 105.499ZM447.203 105.329L447.266 105.374L446.579 106.35L446.516 106.305L447.203 105.329ZM447.037 106.683C446.89 106.571 446.741 106.463 446.589 106.358L447.256 105.367C447.421 105.481 447.583 105.6 447.744 105.721L447.037 106.683ZM447.734 105.714L452.645 109.28L451.958 110.256L447.047 106.69L447.734 105.714ZM452.805 110.083L452.005 111.401L450.999 110.771L451.799 109.453L452.805 110.083ZM453.703 123.784C453.703 118.722 452.715 114.552 450.985 111.377L452.019 110.796C453.867 114.189 454.884 118.57 454.884 123.784H453.703ZM425.919 172.671C433.562 168.188 440.515 160.472 445.558 151.598C450.601 142.724 453.703 132.75 453.703 123.784H454.884C454.884 133.01 451.7 143.19 446.581 152.198C441.462 161.206 434.375 169.098 426.51 173.71L425.919 172.671ZM411.605 176.35C415.714 176.904 420.613 175.783 425.919 172.671L426.51 173.71C421.048 176.914 415.887 178.138 411.45 177.54L411.605 176.35ZM412.03 177.26L411.159 178.697L410.153 178.066L411.025 176.63L412.03 177.26ZM410.313 178.87L404.34 174.551L405.025 173.574L410.998 177.893L410.313 178.87ZM404.182 173.743L404.198 173.718L405.199 174.356L405.183 174.382L404.182 173.743Z" fill="#060606"/>
</mask>
<g mask="url(#mask6_1_2530)">
<path d="M364.598 138.544L423.997 173.383L423.997 203.342L364.598 168.504L364.598 138.544Z" fill="url(#paint7_linear_1_2530)"/>
</g>
<path d="M404.702 174.04L405.07 173.571L405.482 173.905L405.202 174.359L404.702 174.04ZM446.862 105.822L447.362 106.141L447.038 106.666L446.532 106.319L446.862 105.822ZM446.863 105.82L446.363 105.501L446.696 104.961L447.206 105.332L446.863 105.82ZM446.926 105.865L446.593 106.361L446.587 106.357L446.582 106.354L446.926 105.865ZM447.393 106.205L447.05 106.693L447.045 106.69L447.04 106.686L447.393 106.205ZM452.305 109.771L452.648 109.283L453.097 109.609L452.808 110.086L452.305 109.771ZM451.505 111.089L450.988 111.38L450.821 111.073L451.002 110.774L451.505 111.089ZM411.531 176.949L411.028 176.634L411.229 176.302L411.608 176.354L411.531 176.949ZM410.659 178.385L411.162 178.7L410.83 179.246L410.316 178.874L410.659 178.385ZM404.686 174.066L404.343 174.554L403.889 174.226L404.186 173.747L404.686 174.066ZM398.729 156.725C398.729 164.67 401.16 170.401 405.07 173.571L404.333 174.509C400.051 171.036 397.548 164.896 397.548 156.725H398.729ZM426.513 107.838C418.87 112.321 411.917 120.037 406.874 128.911C401.831 137.785 398.729 147.76 398.729 156.725H397.548C397.548 147.499 400.732 137.319 405.851 128.311C410.971 119.303 418.058 111.412 425.922 106.799L426.513 107.838ZM446.532 106.319C441.656 102.978 434.564 103.116 426.513 107.838L425.922 106.799C434.199 101.944 441.807 101.634 447.192 105.324L446.532 106.319ZM446.362 105.502L446.363 105.501L447.363 106.139L447.362 106.141L446.362 105.502ZM447.206 105.332L447.269 105.377L446.582 106.354L446.52 106.308L447.206 105.332ZM447.04 106.686C446.893 106.574 446.744 106.466 446.593 106.361L447.259 105.37C447.424 105.484 447.587 105.603 447.747 105.725L447.04 106.686ZM447.737 105.717L452.648 109.283L451.962 110.259L447.05 106.693L447.737 105.717ZM452.808 110.086L452.008 111.404L451.002 110.774L451.802 109.456L452.808 110.086ZM453.706 123.787C453.706 118.725 452.718 114.556 450.988 111.38L452.022 110.799C453.87 114.192 454.887 118.573 454.887 123.787H453.706ZM425.922 172.674C433.565 168.191 440.518 160.475 445.561 151.601C450.604 142.728 453.706 132.753 453.706 123.787H454.887C454.887 133.013 451.704 143.194 446.584 152.201C441.465 161.209 434.378 169.101 426.513 173.713L425.922 172.674ZM411.608 176.354C415.717 176.907 420.616 175.786 425.922 172.674L426.513 173.713C421.051 176.917 415.89 178.142 411.453 177.543L411.608 176.354ZM412.033 177.263L411.162 178.7L410.156 178.07L411.028 176.634L412.033 177.263ZM410.316 178.874L404.343 174.554L405.028 173.577L411.001 177.896L410.316 178.874ZM404.186 173.747L404.201 173.721L405.202 174.359L405.186 174.385L404.186 173.747Z" fill="#1A1A1A"/>
<path d="M431.386 176.933C415.878 186.029 403.306 178.655 403.306 160.464C403.306 142.273 415.878 120.153 431.386 111.058C446.893 101.962 459.465 109.336 459.465 127.527C459.465 145.718 446.893 167.838 431.386 176.933Z" fill="white" stroke="#1A1A1A" stroke-width="1.5"/>
<mask id="mask7_1_2530" style="mask-type:alpha" maskUnits="userSpaceOnUse" x="402" y="106" width="59" height="76">
<path d="M431.386 176.933C415.878 186.029 403.306 178.655 403.306 160.464C403.306 142.273 415.878 120.153 431.386 111.058C446.893 101.962 459.465 109.336 459.465 127.527C459.465 145.718 446.893 167.838 431.386 176.933Z" fill="#B0F127" stroke="#060606" stroke-width="1.5"/>
</mask>
<g mask="url(#mask7_1_2530)">
<path d="M431.386 176.933C415.878 186.029 403.306 178.655 403.306 160.464C403.306 142.273 415.878 120.153 431.386 111.058C446.893 101.962 459.465 109.336 459.465 127.527C459.465 145.718 446.893 167.838 431.386 176.933Z" stroke="#1A1A1A" stroke-width="1.5"/>
<path d="M431.389 127.281L431.58 127.93V150.031L431.389 150.367L422.643 149.432L431.389 127.281Z" fill="#1A1A1A"/>
<path d="M431.388 127.281L440.133 139.174L431.388 150.367V139.64V127.281Z" fill="#1A1A1A"/>
<path d="M431.389 152.312L431.496 152.402V160.275L431.389 160.707L422.638 151.383L431.389 152.312Z" fill="#1A1A1A"/>
<path d="M431.388 160.703V152.308L440.134 141.117L431.388 160.703Z" fill="#1A1A1A"/>
<path d="M431.389 150.369L422.643 149.434L431.389 139.642V150.369Z" fill="#1A1A1A"/>
<path d="M440.133 139.174L431.388 150.367V139.64L440.133 139.174Z" fill="#1A1A1A"/>
</g>
</g>
<g clip-path="url(#clip2_1_2530)">
<path fill-rule="evenodd" clip-rule="evenodd" d="M442.505 373.944C438.079 370.393 435.413 364.047 435.413 355.432C435.413 335.983 448.998 312.334 465.756 302.61C474.577 297.491 482.52 297.251 488.064 301.009L488.065 301.006L488.182 301.09C488.32 301.186 488.456 301.283 488.59 301.384L493.946 305.231L493.081 306.641C495.015 310.153 496.098 314.724 496.098 320.217C496.098 339.666 482.514 363.315 465.756 373.04C459.938 376.416 454.502 377.67 449.884 377.054L448.943 378.588L442.489 373.97L442.505 373.944Z" fill="url(#paint8_linear_1_2530)"/>
<path d="M442.505 373.944L442.698 373.7L442.915 373.874L442.768 374.11L442.505 373.944ZM488.064 301.009L488.326 301.175L488.156 301.448L487.89 301.267L488.064 301.009ZM488.065 301.006L487.803 300.841L487.978 300.56L488.246 300.753L488.065 301.006ZM488.182 301.09L488.006 301.347L488.002 301.344L488.182 301.09ZM488.59 301.384L488.41 301.637L488.406 301.634L488.59 301.384ZM493.946 305.231L494.126 304.977L494.362 305.147L494.21 305.395L493.946 305.231ZM493.081 306.641L492.81 306.792L492.722 306.632L492.817 306.477L493.081 306.641ZM449.884 377.054L449.62 376.89L449.726 376.718L449.925 376.745L449.884 377.054ZM448.943 378.588L449.207 378.752L449.033 379.035L448.763 378.842L448.943 378.588ZM442.489 373.97L442.309 374.224L442.07 374.054L442.226 373.805L442.489 373.97ZM435.724 355.432C435.724 363.988 438.37 370.228 442.698 373.7L442.311 374.187C437.788 370.558 435.103 364.106 435.103 355.432H435.724ZM465.911 302.88C457.59 307.708 450.04 316.006 444.569 325.53C439.098 335.054 435.724 345.775 435.724 355.432H435.103C435.103 345.64 438.521 334.812 444.032 325.218C449.543 315.625 457.164 307.236 465.601 302.34L465.911 302.88ZM487.89 301.267C482.48 297.6 474.673 297.795 465.911 302.88L465.601 302.34C474.482 297.186 482.559 296.902 488.237 300.751L487.89 301.267ZM487.801 300.843L487.803 300.841L488.328 301.172L488.326 301.175L487.801 300.843ZM488.246 300.753L488.363 300.837L488.002 301.344L487.885 301.26L488.246 300.753ZM488.406 301.634C488.274 301.536 488.141 301.44 488.006 301.347L488.358 300.833C488.499 300.931 488.638 301.031 488.775 301.133L488.406 301.634ZM488.771 301.13L494.126 304.977L493.766 305.485L488.41 301.637L488.771 301.13ZM494.21 305.395L493.345 306.804L492.817 306.477L493.682 305.067L494.21 305.395ZM495.788 320.217C495.788 314.763 494.712 310.247 492.81 306.792L493.352 306.49C495.317 310.058 496.408 314.684 496.408 320.217H495.788ZM465.601 372.769C473.921 367.941 481.472 359.643 486.943 350.119C492.414 340.595 495.788 329.874 495.788 320.217H496.408C496.408 330.009 492.991 340.837 487.48 350.431C481.969 360.025 474.348 368.414 465.911 373.309L465.601 372.769ZM449.925 376.745C454.457 377.349 459.824 376.122 465.601 372.769L465.911 373.309C460.052 376.71 454.547 377.99 449.844 377.363L449.925 376.745ZM450.148 377.217L449.207 378.752L448.679 378.424L449.62 376.89L450.148 377.217ZM448.763 378.842L442.309 374.224L442.668 373.716L449.123 378.334L448.763 378.842ZM442.226 373.805L442.242 373.778L442.768 374.11L442.751 374.136L442.226 373.805Z" fill="#1A1A1A"/>
<mask id="mask8_1_2530" style="mask-type:alpha" maskUnits="userSpaceOnUse" x="435" y="298" width="62" height="82">
<path fill-rule="evenodd" clip-rule="evenodd" d="M442.505 373.942C438.079 370.391 435.413 364.046 435.413 355.43C435.413 335.982 448.998 312.333 465.756 302.608C474.577 297.489 482.52 297.249 488.064 301.007L488.065 301.005L488.182 301.089C488.32 301.184 488.456 301.282 488.59 301.382L493.946 305.229L493.081 306.639C495.015 310.151 496.098 314.722 496.098 320.216C496.098 339.664 482.514 363.313 465.756 373.038C459.938 376.414 454.502 377.668 449.884 377.052L448.943 378.587L442.489 373.969L442.505 373.942Z" fill="#B0F127"/>
<path d="M442.505 373.942L442.698 373.699L442.915 373.872L442.768 374.108L442.505 373.942ZM488.064 301.007L488.326 301.173L488.156 301.446L487.89 301.266L488.064 301.007ZM488.065 301.005L487.803 300.839L487.978 300.559L488.246 300.751L488.065 301.005ZM488.182 301.089L488.006 301.345L488.002 301.342L488.182 301.089ZM488.59 301.382L488.41 301.636L488.406 301.633L488.59 301.382ZM493.946 305.229L494.126 304.976L494.362 305.145L494.21 305.393L493.946 305.229ZM493.081 306.639L492.81 306.79L492.722 306.631L492.817 306.475L493.081 306.639ZM449.884 377.052L449.62 376.889L449.726 376.716L449.925 376.743L449.884 377.052ZM448.943 378.587L449.207 378.75L449.033 379.034L448.763 378.841L448.943 378.587ZM442.489 373.969L442.309 374.223L442.07 374.052L442.226 373.803L442.489 373.969ZM435.724 355.43C435.724 363.987 438.37 370.226 442.698 373.699L442.311 374.186C437.788 370.556 435.103 364.104 435.103 355.43H435.724ZM465.911 302.878C457.59 307.707 450.04 316.005 444.569 325.529C439.098 335.053 435.724 345.774 435.724 355.43H435.103C435.103 345.639 438.521 334.811 444.032 325.217C449.543 315.623 457.164 307.234 465.601 302.338L465.911 302.878ZM487.89 301.266C482.48 297.599 474.673 297.794 465.911 302.878L465.601 302.338C474.482 297.185 482.559 296.9 488.237 300.749L487.89 301.266ZM487.801 300.842L487.803 300.839L488.328 301.171L488.326 301.173L487.801 300.842ZM488.246 300.751L488.363 300.835L488.002 301.342L487.885 301.258L488.246 300.751ZM488.406 301.633C488.274 301.534 488.141 301.439 488.006 301.345L488.358 300.832C488.499 300.929 488.638 301.029 488.775 301.132L488.406 301.633ZM488.771 301.128L494.126 304.976L493.766 305.483L488.41 301.636L488.771 301.128ZM494.21 305.393L493.345 306.803L492.817 306.475L493.682 305.066L494.21 305.393ZM495.788 320.216C495.788 314.761 494.712 310.245 492.81 306.79L493.352 306.488C495.317 310.057 496.408 314.682 496.408 320.216H495.788ZM465.601 372.768C473.921 367.94 481.472 359.642 486.943 350.118C492.414 340.593 495.788 329.872 495.788 320.216H496.408C496.408 330.008 492.991 340.836 487.48 350.429C481.969 360.023 474.348 368.412 465.911 373.308L465.601 372.768ZM449.925 376.743C454.457 377.347 459.824 376.12 465.601 372.768L465.911 373.308C460.052 376.708 454.547 377.988 449.844 377.361L449.925 376.743ZM450.148 377.216L449.207 378.75L448.679 378.423L449.62 376.889L450.148 377.216ZM448.763 378.841L442.309 374.223L442.668 373.715L449.123 378.332L448.763 378.841ZM442.226 373.803L442.242 373.777L442.768 374.108L442.751 374.134L442.226 373.803Z" fill="#060606"/>
</mask>
<g mask="url(#mask8_1_2530)">
<path d="M399.172 335.995L463.359 373.242V405.273L399.172 368.026V335.995Z" fill="url(#paint9_linear_1_2530)"/>
</g>
<path d="M442.505 373.944L442.698 373.7L442.915 373.874L442.768 374.11L442.505 373.944ZM488.064 301.009L488.326 301.175L488.156 301.448L487.89 301.267L488.064 301.009ZM488.065 301.006L487.803 300.841L487.978 300.56L488.246 300.753L488.065 301.006ZM488.182 301.09L488.006 301.347L488.002 301.344L488.182 301.09ZM488.59 301.384L488.41 301.637L488.406 301.634L488.59 301.384ZM493.946 305.231L494.126 304.977L494.362 305.147L494.21 305.395L493.946 305.231ZM493.081 306.641L492.81 306.792L492.722 306.632L492.817 306.477L493.081 306.641ZM449.884 377.054L449.62 376.89L449.726 376.718L449.925 376.745L449.884 377.054ZM448.943 378.588L449.207 378.752L449.033 379.035L448.763 378.842L448.943 378.588ZM442.489 373.97L442.309 374.224L442.07 374.054L442.226 373.805L442.489 373.97ZM435.724 355.432C435.724 363.988 438.37 370.228 442.698 373.7L442.311 374.187C437.788 370.558 435.103 364.106 435.103 355.432H435.724ZM465.911 302.88C457.59 307.708 450.04 316.006 444.569 325.53C439.098 335.054 435.724 345.775 435.724 355.432H435.103C435.103 345.64 438.521 334.812 444.032 325.218C449.543 315.625 457.164 307.236 465.601 302.34L465.911 302.88ZM487.89 301.267C482.48 297.6 474.673 297.795 465.911 302.88L465.601 302.34C474.482 297.186 482.559 296.902 488.237 300.751L487.89 301.267ZM487.801 300.843L487.803 300.841L488.328 301.172L488.326 301.175L487.801 300.843ZM488.246 300.753L488.363 300.837L488.002 301.344L487.885 301.26L488.246 300.753ZM488.406 301.634C488.274 301.536 488.141 301.44 488.006 301.347L488.358 300.833C488.499 300.931 488.638 301.031 488.775 301.133L488.406 301.634ZM488.771 301.13L494.126 304.977L493.766 305.485L488.41 301.637L488.771 301.13ZM494.21 305.395L493.345 306.804L492.817 306.477L493.682 305.067L494.21 305.395ZM495.788 320.217C495.788 314.763 494.712 310.247 492.81 306.792L493.352 306.49C495.317 310.058 496.408 314.684 496.408 320.217H495.788ZM465.601 372.769C473.921 367.941 481.472 359.643 486.943 350.119C492.414 340.595 495.788 329.874 495.788 320.217H496.408C496.408 330.009 492.991 340.837 487.48 350.431C481.969 360.025 474.348 368.414 465.911 373.309L465.601 372.769ZM449.925 376.745C454.457 377.349 459.824 376.122 465.601 372.769L465.911 373.309C460.052 376.71 454.547 377.99 449.844 377.363L449.925 376.745ZM450.148 377.217L449.207 378.752L448.679 378.424L449.62 376.89L450.148 377.217ZM448.763 378.842L442.309 374.224L442.668 373.716L449.123 378.334L448.763 378.842ZM442.226 373.805L442.242 373.778L442.768 374.11L442.751 374.136L442.226 373.805Z" fill="#1A1A1A"/>
<path d="M471.341 377.037C454.583 386.762 440.998 378.879 440.998 359.43C440.998 339.981 454.583 316.332 471.341 306.608C488.099 296.883 501.683 304.766 501.683 324.215C501.683 343.664 488.099 367.313 471.341 377.037Z" fill="white" stroke="#1A1A1A" stroke-width="1.5"/>
<mask id="mask9_1_2530" style="mask-type:alpha" maskUnits="userSpaceOnUse" x="440" y="301" width="63" height="82">
<path d="M471.341 377.037C454.583 386.762 440.998 378.879 440.998 359.43C440.998 339.981 454.583 316.332 471.341 306.608C488.099 296.883 501.683 304.766 501.683 324.215C501.683 343.664 488.099 367.313 471.341 377.037Z" fill="#B0F127" stroke="#060606" stroke-width="1.5"/>
</mask>
<g mask="url(#mask9_1_2530)">
<path d="M471.341 377.037C454.583 386.762 440.998 378.879 440.998 359.43C440.998 339.981 454.583 316.332 471.341 306.608C488.099 296.883 501.683 304.766 501.683 324.215C501.683 343.664 488.099 367.313 471.341 377.037Z" stroke="#1A1A1A" stroke-width="1.5"/>
<path d="M465.479 348.21L470.973 351.397L476.47 341.828L479.667 343.684L470.973 358.818L462.283 353.775L465.479 348.21ZM456.828 350.61L460.025 352.465L463.222 346.9L460.025 345.045L456.828 350.61ZM465.479 342.97L470.973 333.406L476.47 336.595L479.669 331.031L479.667 331.03L470.973 325.985L462.282 341.115L462.278 341.122L465.479 342.97ZM478.725 337.902L481.922 339.757L485.119 334.192L481.922 332.337L478.725 337.902Z" fill="#1A1A1A"/>
<path d="M474.299 340.474L474.301 340.473L470.974 346.264L468.516 344.837L468.515 344.838L468.233 344.674L467.65 344.335L467.646 344.333L467.65 344.325L470.974 338.539L474.301 340.469L474.302 340.47L474.299 340.474Z" fill="#1A1A1A"/>
</g>
</g>
<defs>
<linearGradient id="paint0_linear_1_2530" x1="185.127" y1="52.0814" x2="185.127" y2="137.629" gradientUnits="userSpaceOnUse">
<stop stop-color="#ECAC1A"/>
<stop offset="1" stop-color="#FFE864"/>
</linearGradient>
<linearGradient id="paint1_linear_1_2530" x1="222.018" y1="112.045" x2="236.845" y2="137.648" gradientUnits="userSpaceOnUse">
<stop stop-color="#ECAC1A"/>
<stop offset="1" stop-color="#FFE864"/>
</linearGradient>
<linearGradient id="paint2_linear_1_2530" x1="161.203" y1="378.758" x2="161.203" y2="451.309" gradientUnits="userSpaceOnUse">
<stop stop-color="#ECAC1A"/>
<stop offset="1" stop-color="#FFE864"/>
</linearGradient>
<linearGradient id="paint3_linear_1_2530" x1="193.151" y1="429.61" x2="205.594" y2="451.55" gradientUnits="userSpaceOnUse">
<stop stop-color="#ECAC1A"/>
<stop offset="1" stop-color="#FFE864"/>
</linearGradient>
<linearGradient id="paint4_linear_1_2530" x1="41.6734" y1="218.167" x2="41.6734" y2="286.082" gradientUnits="userSpaceOnUse">
<stop stop-color="#ECAC1A"/>
<stop offset="1" stop-color="#FFE864"/>
</linearGradient>
<linearGradient id="paint5_linear_1_2530" x1="71.437" y1="265.773" x2="83.1135" y2="286.263" gradientUnits="userSpaceOnUse">
<stop stop-color="#ECAC1A"/>
<stop offset="1" stop-color="#FFE864"/>
</linearGradient>
<linearGradient id="paint6_linear_1_2530" x1="426.218" y1="103.423" x2="426.218" y2="178.385" gradientUnits="userSpaceOnUse">
<stop stop-color="#ECAC1A"/>
<stop offset="1" stop-color="#FFE864"/>
</linearGradient>
<linearGradient id="paint7_linear_1_2530" x1="394.298" y1="155.964" x2="381.223" y2="178.255" gradientUnits="userSpaceOnUse">
<stop stop-color="#ECAC1A"/>
<stop offset="1" stop-color="#FFE864"/>
</linearGradient>
<linearGradient id="paint8_linear_1_2530" x1="465.756" y1="298.445" x2="465.756" y2="378.588" gradientUnits="userSpaceOnUse">
<stop stop-color="#ECAC1A"/>
<stop offset="1" stop-color="#FFE864"/>
</linearGradient>
<linearGradient id="paint9_linear_1_2530" x1="431.265" y1="354.619" x2="417.36" y2="378.581" gradientUnits="userSpaceOnUse">
<stop stop-color="#ECAC1A"/>
<stop offset="1" stop-color="#FFE864"/>
</linearGradient>
<clipPath id="clip0_1_2530">
<rect width="72" height="113" fill="white" transform="translate(146 42)"/>
</clipPath>
<clipPath id="clip1_1_2530">
<rect width="63" height="100" fill="white" transform="translate(397 94)"/>
</clipPath>
<clipPath id="clip2_1_2530">
<rect width="67" height="106" fill="white" transform="translate(435 289)"/>
</clipPath>
</defs>
</svg>
