<svg width="28" height="28" viewBox="0 0 28 28" fill="none" xmlns="http://www.w3.org/2000/svg">
<path d="M13.5211 2.29858C7.32393 2.29858 2.25351 7.35774 2.25351 13.5887C2.25351 19.2225 6.37745 23.8986 11.7634 24.7437V16.8563H8.9014V13.5887H11.7634V11.0986C11.7634 8.27042 13.4422 6.71549 16.0225 6.71549C17.2507 6.71549 18.5352 6.92957 18.5352 6.92957V9.71267H17.1155C15.7183 9.71267 15.2789 10.5803 15.2789 11.4704V13.5887H18.4113L17.9042 16.8563H15.2789V24.7437C17.934 24.3243 20.3518 22.9696 22.0957 20.924C23.8396 18.8784 24.7947 16.2768 24.7887 13.5887C24.7887 7.35774 19.7183 2.29858 13.5211 2.29858Z" fill="url(#paint0_linear_1_2454)"/>
<defs>
<linearGradient id="paint0_linear_1_2454" x1="13.5211" y1="2.29858" x2="13.5211" y2="24.7437" gradientUnits="userSpaceOnUse">
<stop stop-color="#ECAC1A"/>
<stop offset="1" stop-color="white"/>
</linearGradient>
</defs>
</svg>
