<svg width="26" height="26" viewBox="0 0 26 26" fill="none" xmlns="http://www.w3.org/2000/svg">
<g clip-path="url(#clip0_1246_2366)">
<path d="M19.3087 6.69129C17.9621 2.80038 14.2771 0 9.95312 0C4.47896 0 0 4.47962 0 9.95312C0 14.2771 2.80038 17.9621 6.69129 19.3087C8.03791 23.1996 11.7229 26 16.0469 26C21.521 26 26 21.5204 26 16.0469C26 11.7229 23.1996 8.03791 19.3087 6.69129ZM1.52344 9.95312C1.52344 5.30497 5.30497 1.52344 9.95312 1.52344C13.2523 1.52344 16.1119 3.45201 17.4775 6.24726C17.0102 6.18003 16.5326 6.14453 16.0469 6.14453C10.5729 6.14453 6.14453 10.6029 6.14453 16.0469C6.14453 16.5326 6.18003 17.0102 6.24726 17.4775C3.45201 16.1119 1.52344 13.2523 1.52344 9.95312ZM15.3119 16.3891L9.61086 10.6881C9.93672 10.2974 10.2974 9.93672 10.6881 9.61086L16.3891 15.3119C16.0633 15.7026 15.7026 16.0633 15.3119 16.3891ZM12.5375 17.9236L8.07635 13.4626C8.24662 12.9387 8.46716 12.4373 8.73234 11.9641L14.0359 17.2677C13.5628 17.5328 13.0614 17.7534 12.5375 17.9236ZM7.70636 15.247L10.753 18.2936C9.79266 18.385 8.83467 18.3116 7.91593 18.0841C7.68859 17.1661 7.6149 16.2082 7.70636 15.247ZM17.2677 14.0359L11.9641 8.73234C12.4373 8.46716 12.9386 8.24662 13.4625 8.07635L17.9236 12.5374C17.7534 13.0613 17.5328 13.5627 17.2677 14.0359ZM18.2936 10.753L15.247 7.70636C16.2074 7.61495 17.1653 7.68843 18.0841 7.91593C18.3114 8.83391 18.3851 9.79184 18.2936 10.753ZM16.0469 24.4766C12.7477 24.4766 9.88812 22.548 8.52246 19.7527C15.0947 20.6982 20.6943 15.0679 19.7528 8.52241C22.548 9.88813 24.4766 12.7477 24.4766 16.0469C24.4766 20.695 20.695 24.4766 16.0469 24.4766Z" fill="#1A1A1A"/>
</g>
<defs>
<clipPath id="clip0_1246_2366">
<rect width="26" height="26" fill="white"/>
</clipPath>
</defs>
</svg>
