<svg width="24" height="24" viewBox="0 0 24 24" fill="none" xmlns="http://www.w3.org/2000/svg">
<path d="M23.087 5.54535L12.489 0.175485L12.4846 0.173282C12.0127 -0.0616555 11.452 -0.0564055 10.9845 0.187345L6.43913 2.59972C6.40219 2.61538 6.3667 2.63436 6.33272 2.6562L0.88575 5.54708C0.339375 5.83316 0 6.39369 0 7.01061V16.9894C0 17.6063 0.339375 18.1668 0.88575 18.4529L10.98 23.8103L10.9846 23.8127C11.223 23.937 11.4857 23.9993 11.7485 23.9993C12.0009 23.9993 12.2535 23.9419 12.4846 23.8267L23.087 18.4547C23.6502 18.173 24 17.6071 24 16.9772V7.02285C24 6.39289 23.6502 5.82697 23.087 5.54535ZM11.6361 1.43295C11.705 1.39761 11.7872 1.39691 11.8567 1.43099L21.7768 6.45739L17.916 8.3795L8.21756 3.2473L11.6361 1.43295ZM11.0355 22.2483L1.54266 17.21L1.53811 17.2077C1.4565 17.165 1.40573 17.0815 1.40573 16.9894V7.64492L11.0355 12.6664V22.2483ZM11.7458 11.4514L2.169 6.45753L6.717 4.0438L16.3674 9.1505L11.7458 11.4514ZM22.5942 16.9771C22.5942 17.0712 22.5419 17.1557 22.4577 17.1976L12.4413 22.2728V12.6754L17.0531 10.3794V12.7866C17.0531 13.1748 17.3678 13.4895 17.756 13.4895C18.1442 13.4895 18.4589 13.1748 18.4589 12.7866V9.67949L22.5942 7.62074V16.9771Z" fill="white"/>
</svg>
