<svg width="24" height="24" viewBox="0 0 24 24" fill="none" xmlns="http://www.w3.org/2000/svg">
<path d="M22.2672 15.9408C21.7666 15.6985 21.2238 15.555 20.6688 15.5184C20.9109 14.9199 21.0426 14.2824 21.0576 13.6368C21.1704 10.2408 18.48 7.77604 17.3352 6.72004L17.2152 6.61204C17.0496 6.45844 16.8984 6.30724 16.7568 6.15604C16.903 6.03299 17.0204 5.8794 17.1009 5.70608C17.1813 5.53276 17.2228 5.34392 17.2224 5.15284V5.12884C17.2215 4.86501 17.1414 4.60752 16.9925 4.38972C16.8436 4.17192 16.6327 4.00384 16.3872 3.90725C16.6622 3.14031 16.8545 2.34621 16.9608 1.53844C16.9775 1.40067 16.955 1.26099 16.896 1.13539C16.837 1.00978 16.7438 0.903331 16.6271 0.82821C16.5104 0.753089 16.3749 0.712333 16.2361 0.710606C16.0974 0.708879 15.9609 0.746251 15.8424 0.818445C15.4747 1.02209 15.0817 1.17622 14.6736 1.27684C14.2802 1.3792 13.8671 1.3792 13.4736 1.27684C13.0629 1.1762 12.6674 1.02124 12.2976 0.816045C12.1784 0.744029 12.0412 0.707171 11.9019 0.709718C11.7627 0.712266 11.6269 0.754116 11.5104 0.830445C11.3946 0.904309 11.3023 1.00976 11.2445 1.13436C11.1866 1.25896 11.1657 1.39751 11.184 1.53364C11.2919 2.34447 11.485 3.14168 11.76 3.91204C11.5138 4.00798 11.3023 4.17583 11.1529 4.39372C11.0035 4.61162 10.9232 4.86945 10.9224 5.13364V5.15764C10.9223 5.37093 10.9743 5.581 11.0739 5.76963C11.1734 5.95825 11.3175 6.11973 11.4936 6.24004C11.3856 6.35524 11.2536 6.48004 11.1144 6.61204L10.9992 6.72004C9.84001 7.77604 7.16401 10.2384 7.27441 13.6344C7.27441 13.812 7.29601 13.9824 7.31521 14.1528H5.44561V13.3824C5.44561 13.2551 5.39503 13.1331 5.30502 13.043C5.215 12.953 5.09291 12.9024 4.96561 12.9024H1.55761C1.4303 12.9024 1.30821 12.953 1.2182 13.043C1.12818 13.1331 1.07761 13.2551 1.07761 13.3824V21.5664C1.07761 21.6938 1.12818 21.8158 1.2182 21.9059C1.30821 21.9959 1.4303 22.0464 1.55761 22.0464H4.96561C5.09291 22.0464 5.215 21.9959 5.30502 21.9059C5.39503 21.8158 5.44561 21.6938 5.44561 21.5664V20.9424L10.6728 23.052C11.0767 23.204 11.5037 23.2852 11.9352 23.292C12.8952 23.292 13.7352 22.8768 14.7168 22.3872L14.8272 22.332H14.8512L22.2912 18.0576C22.4849 17.9561 22.6466 17.8027 22.7581 17.6145C22.8696 17.4263 22.9265 17.2107 22.9224 16.992C22.9241 16.7727 22.8634 16.5575 22.7474 16.3714C22.6314 16.1852 22.4648 16.0359 22.2672 15.9408ZM12.3888 5.52004H12.24C12.1462 5.52005 12.0562 5.48295 11.9897 5.41686C11.9231 5.35076 11.8854 5.26103 11.8848 5.16724V5.14324C11.8838 5.096 11.8923 5.04903 11.9097 5.0051C11.9272 4.96117 11.9532 4.92116 11.9863 4.88741C12.0193 4.85366 12.0588 4.82685 12.1024 4.80855C12.146 4.79026 12.1927 4.78084 12.24 4.78084H15.9096C16.0032 4.78084 16.0929 4.81801 16.1591 4.88418C16.2252 4.95034 16.2624 5.04008 16.2624 5.13364V5.15764C16.2637 5.20478 16.2555 5.25169 16.2384 5.29561C16.2212 5.33952 16.1954 5.37956 16.1625 5.41334C16.1296 5.44713 16.0903 5.47397 16.0469 5.4923C16.0034 5.51063 15.9568 5.52006 15.9096 5.52004H12.3888ZM13.2192 2.21284C13.7775 2.36168 14.365 2.36168 14.9232 2.21284C15.273 2.12102 15.6149 2.00144 15.9456 1.85524C15.8192 2.52451 15.637 3.18201 15.4008 3.82084H12.7368C12.5023 3.18165 12.3209 2.52423 12.1944 1.85524C12.5261 2.00105 12.8688 2.12062 13.2192 2.21284ZM11.6472 7.44004L11.7648 7.33204C12.0552 7.0678 12.3263 6.78307 12.576 6.48004H15.756C16.0046 6.77874 16.2732 7.06019 16.56 7.32244L16.6824 7.43284C17.7312 8.39284 20.1912 10.6488 20.0928 13.6032C20.086 14.2982 19.9035 14.9801 19.5624 15.5856C19.1943 15.6629 18.8372 15.7855 18.4992 15.9504L15.912 17.196C15.8425 16.8187 15.6442 16.4773 15.3509 16.23C15.0577 15.9826 14.6876 15.8448 14.304 15.84H11.52C10.657 14.9514 9.52158 14.3769 8.29441 14.208C8.26183 14.0079 8.24179 13.8059 8.23441 13.6032C8.13841 10.6488 10.596 8.40004 11.6472 7.44004ZM2.04721 21.096V13.8624H4.49521V21.0864L2.04721 21.096ZM21.84 17.1912L14.4 21.468L14.304 21.516C12.9912 22.1712 12.1968 22.5672 11.028 22.1544L5.44561 19.92V15.12H7.51921C8.16537 15.1203 8.80416 15.2573 9.3936 15.522C9.98304 15.7867 10.5098 16.1732 10.9392 16.656C10.9841 16.7065 11.0392 16.7469 11.1008 16.7746C11.1625 16.8023 11.2292 16.8167 11.2968 16.8168H14.304C14.4639 16.8192 14.6178 16.8778 14.7389 16.9822C14.86 17.0866 14.9405 17.2303 14.9664 17.388C14.9708 17.5207 14.932 17.6512 14.856 17.76C14.856 17.76 14.856 17.76 14.8416 17.7792C14.784 17.8519 14.7112 17.9111 14.6283 17.9526C14.5453 17.994 14.4543 18.0168 14.3616 18.0192H8.99281C8.8655 18.0192 8.74341 18.0698 8.65339 18.1598C8.56338 18.2499 8.51281 18.3719 8.51281 18.4992C8.51281 18.6265 8.56338 18.7486 8.65339 18.8387C8.74341 18.9287 8.8655 18.9792 8.99281 18.9792H14.3568C14.5628 18.9799 14.7668 18.9398 14.9571 18.8611C15.1474 18.7824 15.3203 18.6668 15.4656 18.5208C15.4968 18.4896 15.528 18.456 15.5568 18.4224L18.9168 16.8048C19.2188 16.6515 19.5426 16.5455 19.8768 16.4904C20.5475 16.3933 21.2318 16.5012 21.84 16.8C21.8741 16.8155 21.9029 16.8405 21.9229 16.872C21.9429 16.9036 21.9533 16.9403 21.9528 16.9776C21.9562 17.0203 21.9474 17.063 21.9274 17.1008C21.9074 17.1386 21.8771 17.17 21.84 17.1912Z" fill="white"/>
<path d="M14.88 13.284H13.776C13.7402 13.2843 13.7046 13.2775 13.6715 13.264C13.6383 13.2505 13.6081 13.2306 13.5827 13.2054C13.5572 13.1802 13.537 13.1502 13.5233 13.1171C13.5095 13.0841 13.5024 13.0486 13.5024 13.0128C13.5024 12.8855 13.4518 12.7634 13.3618 12.6734C13.2718 12.5834 13.1497 12.5328 13.0224 12.5328C12.8951 12.5328 12.773 12.5834 12.683 12.6734C12.593 12.7634 12.5424 12.8855 12.5424 13.0128C12.543 13.3395 12.6733 13.6527 12.9045 13.8835C13.1358 14.1143 13.4492 14.244 13.776 14.244H13.848V14.604C13.848 14.7313 13.8986 14.8534 13.9886 14.9434C14.0786 15.0334 14.2007 15.084 14.328 15.084C14.4553 15.084 14.5774 15.0334 14.6674 14.9434C14.7574 14.8534 14.808 14.7313 14.808 14.604V14.244H14.88C15.0417 14.244 15.2018 14.2121 15.3511 14.1503C15.5005 14.0884 15.6363 13.9977 15.7506 13.8834C15.8649 13.769 15.9556 13.6333 16.0175 13.4839C16.0793 13.3346 16.1112 13.1745 16.1112 13.0128V12.216C16.1106 11.8896 15.9806 11.5768 15.7499 11.3461C15.5191 11.1153 15.2063 10.9854 14.88 10.9848H13.776C13.7402 10.9851 13.7046 10.9783 13.6715 10.9648C13.6383 10.9513 13.6081 10.9314 13.5827 10.9062C13.5572 10.881 13.537 10.851 13.5233 10.8179C13.5095 10.7849 13.5024 10.7494 13.5024 10.7136V9.91678C13.503 9.84463 13.5321 9.77566 13.5834 9.72487C13.6346 9.67407 13.7038 9.64558 13.776 9.64558H14.88C14.9517 9.64621 15.0203 9.67498 15.0711 9.72571C15.1218 9.77643 15.1506 9.84505 15.1512 9.91678C15.1512 10.0441 15.2018 10.1662 15.2918 10.2562C15.3818 10.3462 15.5039 10.3968 15.6312 10.3968C15.7585 10.3968 15.8806 10.3462 15.9706 10.2562C16.0606 10.1662 16.1112 10.0441 16.1112 9.91678C16.1112 9.7551 16.0793 9.595 16.0175 9.44562C15.9556 9.29625 15.8649 9.16052 15.7506 9.04619C15.6363 8.93186 15.5005 8.84117 15.3511 8.7793C15.2018 8.71743 15.0417 8.68558 14.88 8.68558H14.808V8.32558C14.808 8.19828 14.7574 8.07619 14.6674 7.98617C14.5774 7.89615 14.4553 7.84558 14.328 7.84558C14.2007 7.84558 14.0786 7.89615 13.9886 7.98617C13.8986 8.07619 13.848 8.19828 13.848 8.32558V8.68558H13.776C13.4492 8.68558 13.1358 8.81522 12.9045 9.04605C12.6733 9.27687 12.543 9.59003 12.5424 9.91678V10.7136C12.543 11.0403 12.6733 11.3535 12.9045 11.5843C13.1358 11.8151 13.4492 11.9448 13.776 11.9448H14.88C14.9517 11.9454 15.0203 11.9742 15.0711 12.0249C15.1218 12.0756 15.1506 12.1442 15.1512 12.216V13.0128C15.1512 13.0847 15.1226 13.1537 15.0718 13.2045C15.0209 13.2554 14.9519 13.284 14.88 13.284Z" fill="white"/>
</svg>
