<svg width="30" height="30" viewBox="0 0 30 30" fill="none" xmlns="http://www.w3.org/2000/svg">
<g clip-path="url(#clip0_1_2872)">
<path d="M26.9904 4.85962C25.4832 4.34189 24.2758 3.12767 23.7604 1.61156C23.4326 0.64751 22.5302 3.33786e-06 21.5144 3.33786e-06H8.42691C7.41136 3.33786e-06 6.50865 0.64751 6.18089 1.61156C5.66545 3.12767 4.4581 4.34189 2.95091 4.85962C1.9919 5.18921 1.3476 6.09444 1.3476 7.11228V10.4231C1.3476 14.7434 2.64215 18.9034 5.09142 22.4533C7.3324 25.7014 10.4205 28.2431 14.0222 29.8041C14.3236 29.9348 14.647 30 14.9706 30C15.2941 30 15.6175 29.9348 15.9189 29.8041C19.5206 28.2433 22.6087 25.7014 24.8496 22.4533C27.2989 18.9034 28.5937 14.7432 28.5937 10.4231V7.11228C28.5937 6.09444 27.9494 5.18921 26.9904 4.85962ZM26.8359 10.4231C26.8359 14.385 25.6487 18.1998 23.4026 21.4552C21.3489 24.432 18.5192 26.7613 15.2199 28.1912C15.0617 28.2598 14.8798 28.26 14.7212 28.1912C11.4216 26.7613 8.59216 24.432 6.53841 21.4552C4.29262 18.2 3.10541 14.3852 3.10541 10.4231V7.11228C3.10541 6.84494 3.27295 6.60782 3.5222 6.52222C5.53979 5.82894 7.15593 4.20479 7.84509 2.17736C7.93047 1.9265 8.16415 1.75782 8.42691 1.75782H21.5144C21.7769 1.75782 22.0108 1.9265 22.0962 2.17736C22.7854 4.20479 24.4015 5.82894 26.4191 6.52222C26.6683 6.60782 26.8359 6.84494 26.8359 7.11228V10.4231Z" fill="#ECAC1A"/>
<path d="M18.7053 11.3956H18.6456V8.89252C18.6456 6.86623 16.9969 5.21759 14.9706 5.21759C12.9444 5.21759 11.2957 6.86623 11.2957 8.89252V11.3956H11.236C10.0689 11.3956 9.11951 12.3452 9.11951 13.5123V18.5706C9.11951 20.744 10.8878 22.5126 13.0611 22.5126H16.8802C19.0537 22.5126 20.8218 20.744 20.8218 18.5706V13.5123C20.8218 12.3452 19.8724 11.3956 18.7053 11.3956ZM13.0535 8.89252C13.0535 7.83554 13.9137 6.97541 14.9706 6.97541C16.0276 6.97541 16.8878 7.83554 16.8878 8.89252V11.3958H13.0535V8.89252ZM19.064 18.5706C19.064 19.7749 18.0844 20.7546 16.8802 20.7546H13.0611C11.8569 20.7546 10.8773 19.7749 10.8773 18.5706V13.5123C10.8773 13.3145 11.0382 13.1536 11.236 13.1536H18.7053C18.9031 13.1536 19.064 13.3145 19.064 13.5123V18.5706Z" fill="#ECAC1A"/>
<path d="M14.9706 15.2449C14.4852 15.2449 14.0917 15.6384 14.0917 16.1238V17.7844C14.0917 18.2698 14.4852 18.6633 14.9706 18.6633C15.4561 18.6633 15.8495 18.2698 15.8495 17.7844V16.1238C15.8495 15.6384 15.4561 15.2449 14.9706 15.2449Z" fill="#ECAC1A"/>
</g>
<defs>
<clipPath id="clip0_1_2872">
<rect width="30" height="30" fill="white"/>
</clipPath>
</defs>
</svg>
