<svg width="30" height="30" viewBox="0 0 30 30" fill="none" xmlns="http://www.w3.org/2000/svg">
<path d="M25.842 12.401H25.7678V10.5817C25.7678 4.73759 21.0303 0 15.1861 0C9.34194 0 4.60442 4.73759 4.60442 10.5817V12.401H4.1589C2.52522 12.401 1.26287 13.849 1.26287 15.5198V20.1609C1.22172 21.7803 2.5012 23.1264 4.1206 23.1676C4.13339 23.1679 4.14611 23.1681 4.1589 23.1683H6.90641C7.29557 23.15 7.59625 22.8196 7.57792 22.4305C7.57728 22.4165 7.57621 22.4025 7.57472 22.3886V13.292C7.57472 12.8465 7.31483 12.4009 6.90641 12.4009H6.08957V10.5816C6.08957 5.55777 10.1623 1.48508 15.1861 1.48508C20.2099 1.48508 24.2826 5.55777 24.2826 10.5816V12.4009H23.4658C23.0574 12.4009 22.7975 12.8464 22.7975 13.292V22.3886C22.7561 22.7759 23.0365 23.1236 23.4239 23.165C23.4378 23.1665 23.4518 23.1676 23.4658 23.1682H24.3197L24.2455 23.2796C23.1314 24.7603 21.3831 25.6275 19.5301 25.6187C19.1245 23.6296 17.1831 22.3459 15.194 22.7516C13.493 23.0985 12.2666 24.5882 12.2529 26.3242C12.2732 28.3602 13.9296 30 15.9658 29.9999C16.9737 29.9835 17.9345 29.5699 18.639 28.8489C19.1144 28.3621 19.4259 27.739 19.5301 27.0667C21.8506 27.0755 24.0389 25.9881 25.4336 24.1335L26.139 23.0939C27.7355 22.9825 28.738 21.9801 28.738 20.532V15.8909C28.7381 14.2946 27.55 12.401 25.842 12.401ZM6.08957 21.6831H4.1589C3.3594 21.6637 2.72705 20.9998 2.74653 20.2003C2.74688 20.1872 2.74738 20.174 2.74802 20.1608V15.5197C2.74802 14.6658 3.34206 13.8861 4.1589 13.8861H6.08957V21.6831ZM17.5624 27.8094C17.1509 28.2555 16.5728 28.511 15.9658 28.5148C14.7579 28.4957 13.7776 27.5317 13.7381 26.3242C13.7376 25.1144 14.718 24.1332 15.9278 24.1327C17.1377 24.1322 18.1188 25.1126 18.1193 26.3224C18.1193 26.323 18.1193 26.3237 18.1193 26.3242C18.1502 26.8755 17.9481 27.4144 17.5624 27.8094ZM27.2529 20.5321C27.2529 21.5346 26.2876 21.6831 25.842 21.6831H24.2826V13.8861H25.842C26.6589 13.8861 27.2529 15.0371 27.2529 15.8911V20.5321Z" fill="#ECAC1A"/>
</svg>
