<svg width="30" height="30" viewBox="0 0 30 30" fill="none" xmlns="http://www.w3.org/2000/svg">
<g clip-path="url(#clip0_1_2883)">
<path d="M2.27344 15.3516C2.2793 15.3574 2.28516 15.3633 2.29102 15.3691L5.51367 18.416C4.8457 19.4766 4.96875 20.9004 5.89453 21.8262C6.42188 22.3535 7.10742 22.6172 7.79297 22.6289C7.81641 23.332 8.09766 24.0293 8.63672 24.5684C9.16992 25.1016 9.87891 25.4004 10.6348 25.4121C10.6465 26.1387 10.9277 26.8535 11.4785 27.4102C12.5508 28.5293 14.4844 28.5293 15.5625 27.4102L17.3145 25.6582L17.707 26.0508C18.8438 27.1875 20.7012 27.1875 21.8379 26.0508L21.8613 26.0273C22.4121 25.4766 22.6934 24.7617 22.7168 24.0352C23.4727 24.041 24.2227 23.7539 24.7969 23.1797L24.8203 23.1562C25.3652 22.6113 25.6699 21.8906 25.6758 21.1172C26.4141 21.1113 27.1465 20.8242 27.709 20.2617L27.7324 20.2383C28.8691 19.1016 28.8691 17.2441 27.7324 16.1074L27.4336 15.8086L27.5859 15.6562C34.8926 7.71679 24.0293 -3.13477 16.0957 4.16601L14.5957 5.66601L13.2539 4.35937C10.2188 1.34179 5.29688 1.34179 2.27344 4.36523C-0.755859 7.39452 -0.755859 12.3223 2.27344 15.3516ZM26.4609 19.0195C26.0039 19.4766 25.2656 19.4766 24.8145 19.0195L23.2031 17.4082C22.752 16.9746 22.752 16.1953 23.2031 15.7617L23.2266 15.7383C23.6602 15.2871 24.4395 15.2871 24.873 15.7383L26.4844 17.3496C26.9414 17.8066 26.9414 18.5449 26.4844 18.9961L26.4609 19.0195ZM21.8965 21.9375L19.2598 19.3008C18.8086 18.8672 18.8086 18.0879 19.2598 17.6543L19.2832 17.6309C19.7402 17.1738 20.4785 17.1738 20.9297 17.6309L21.9492 18.6504L23.5605 20.2617C24.0117 20.6953 24.0117 21.4746 23.5605 21.9082L23.5371 21.9316C23.0918 22.3887 22.3535 22.3887 21.8965 21.9375ZM18.9375 24.8086L17.8945 23.7656C17.4434 23.332 17.4434 22.5527 17.8945 22.1191L17.918 22.0957C18.375 21.6387 19.1133 21.6387 19.5645 22.0957L20.6074 23.1387C21.0645 23.5957 21.0645 24.334 20.6074 24.7852L20.584 24.8086C20.1328 25.2598 19.3945 25.2598 18.9375 24.8086ZM7.13672 19.1836L13.166 13.1543C13.1953 13.125 13.248 13.125 13.2773 13.1543L14.25 14.1269C15.4219 15.3516 17.5371 15.3516 18.709 14.1269C19.9453 12.9434 19.9277 10.7988 18.6738 9.63281L15.8555 6.89648L17.3379 5.41405C19.8223 2.92968 23.8594 2.92968 26.3438 5.41405C28.8281 7.89843 28.8281 11.9355 26.3438 14.4199L26.1914 14.5723L26.1152 14.4961C25.0254 13.3652 23.0684 13.3652 21.9844 14.4961L21.9609 14.5195C21.6094 14.8711 21.3633 15.293 21.2285 15.75C20.168 15.3164 18.9082 15.5273 18.0527 16.3828L18.0293 16.4062C17.0215 17.373 16.8926 19.0605 17.7188 20.1738C17.3438 20.3144 16.9863 20.5371 16.6816 20.8418L16.6582 20.8652C15.75 21.7441 15.5391 23.2266 16.1543 24.3281L14.3203 26.1621C13.8984 26.6016 13.1426 26.6016 12.7207 26.1621C12.2754 25.7168 12.2813 24.9961 12.7266 24.5566L14.3555 22.9277C14.7012 22.582 14.7012 22.0312 14.3555 21.6855C14.0098 21.3398 13.459 21.3398 13.1133 21.6855L11.4785 23.3203C11.0566 23.7598 10.3008 23.7598 9.87891 23.3203C9.43945 22.8809 9.43945 22.166 9.87891 21.7207L11.5254 20.0742C11.8711 19.7285 11.8711 19.1777 11.5254 18.832C11.1797 18.4863 10.6289 18.4863 10.2832 18.832C10.2832 18.832 8.54883 20.5664 8.54297 20.5723C8.15625 20.959 7.5293 20.959 7.14258 20.5723C6.75 20.1973 6.75 19.5703 7.13672 19.1836ZM3.51563 5.61327C5.85938 3.26952 9.67969 3.26952 12.0234 5.62499L17.4492 10.8984C17.7188 11.1621 17.8711 11.5137 17.877 11.8887C17.8887 13.1367 16.377 13.7637 15.4922 12.8848L14.5195 11.9121C13.834 11.1973 12.6094 11.1973 11.9238 11.9121L6.70898 17.1269L3.50977 14.0976C1.17188 11.7598 1.17188 7.95116 3.51563 5.61327Z" fill="#ECAC1A"/>
</g>
<defs>
<clipPath id="clip0_1_2883">
<rect width="30" height="30" fill="white"/>
</clipPath>
</defs>
</svg>
